<svg width="20" height="18" viewBox="0 0 20 18" fill="none" xmlns="http://www.w3.org/2000/svg">
<path fill-rule="evenodd" clip-rule="evenodd" d="M2.77378 0H16.6693C18.1988 0 19.443 1.24432 19.443 2.77378V12.1521C19.443 13.6815 18.1988 14.9258 16.6693 14.9258H8.61668L4.84105 17.8399C4.73503 17.9218 4.6069 17.9638 4.47782 17.9638C4.38942 17.9638 4.30059 17.9441 4.21808 17.904C4.01506 17.8053 3.88546 17.6002 3.88356 17.3746L3.86225 14.9258H2.77378C1.24428 14.9258 0 13.6815 0 12.1521V2.77378C0 1.24432 1.24428 0 2.77378 0ZM8.49413 13.6288H16.4853C17.3313 13.6288 18.0196 12.9406 18.0197 12.0945V3.01621C18.0197 2.17018 17.3314 1.48189 16.4853 1.48189H3.03432C2.18829 1.48189 1.5 2.17018 1.5 3.01621V12.0945C1.5 12.9406 2.18829 13.6288 3.03432 13.6288H4.65834C4.97415 13.6288 5.23095 13.8834 5.23367 14.1992L5.24918 15.9819L8.1426 13.7487C8.24332 13.671 8.36694 13.6288 8.49413 13.6288Z" fill="#5A5D69"/>
</svg>
