<svg width="18" height="18" viewBox="0 0 18 18" fill="none" xmlns="http://www.w3.org/2000/svg">
<path fill-rule="evenodd" clip-rule="evenodd" d="M7.49649 0H16.4965C17.3238 0 17.9965 0.672729 17.9965 1.5V16.5C17.9965 17.3273 17.3238 18 16.4965 18H7.49649C6.66922 18 5.99649 17.3273 5.99649 16.5V9.75H2.20382L3.23159 11.1892C3.47238 11.5259 3.39437 11.9943 3.05728 12.2355C2.92526 12.3296 2.77273 12.375 2.62185 12.375C2.38784 12.375 2.15768 12.2659 2.01138 12.0608L0.136379 9.43579C0.13482 9.43345 0.13367 9.43087 0.132524 9.42829C0.131246 9.42542 0.129972 9.42255 0.128139 9.42004C0.0933489 9.36823 0.0633195 9.31348 0.0422625 9.2558C0.0413623 9.25301 0.0407277 9.25013 0.0400975 9.24727C0.0394458 9.24431 0.0387988 9.24138 0.0378679 9.23859C0.0204729 9.1864 0.00966966 9.13275 0.0039934 9.078C0.00252856 9.06116 0.00142993 9.04504 0.000697505 9.02856C-0.00149976 8.97638 0.00142993 8.92383 0.0104021 8.87183C0.0110348 8.86803 0.0113259 8.86434 0.0116147 8.86067C0.0119946 8.85585 0.0123707 8.85108 0.0135149 8.84619C0.0257829 8.78668 0.0468401 8.72882 0.0741228 8.67261C0.0755785 8.66999 0.0763655 8.66721 0.0771654 8.66439C0.0778748 8.66189 0.0785942 8.65936 0.0797991 8.65686C0.0824706 8.65142 0.0861046 8.64683 0.0897475 8.64223C0.092846 8.63832 0.095951 8.6344 0.0984758 8.62994C0.102631 8.62267 0.106521 8.61528 0.110418 8.60787C0.118199 8.59308 0.126008 8.57824 0.136012 8.56421L2.01101 5.93921C2.25216 5.60175 2.72055 5.52448 3.05728 5.76453C3.39437 6.00568 3.47238 6.47406 3.23159 6.81079L2.20382 8.25H5.99649V1.5C5.99649 0.672729 6.66922 0 7.49649 0ZM7.49649 9.75V16.5H16.4972L16.4965 1.5H7.49649V8.25H11.9965C12.4105 8.25 12.7465 8.586 12.7465 9C12.7465 9.414 12.4105 9.75 11.9965 9.75H7.49649Z" fill="#5A5D69"/>
</svg>
