<svg width="17" height="30" viewBox="0 0 17 30" fill="none" xmlns="http://www.w3.org/2000/svg">
<mask id="path-1-inside-1" fill="white">
<path fill-rule="evenodd" clip-rule="evenodd" d="M16.5208 10.5733C16.8312 9.7489 17 8.86226 17 7.93878C17 3.55431 13.1944 0 8.5 0C3.80558 0 0 3.55431 0 7.93878C0 8.86226 0.168825 9.7489 0.479221 10.5733C0.484363 10.6815 0.507541 10.7916 0.551112 10.9001L7.57201 28.3863C7.90788 29.2229 9.09212 29.2229 9.42799 28.3863L16.4489 10.9001C16.4925 10.7916 16.5156 10.6815 16.5208 10.5733Z"/>
</mask>
<path fill-rule="evenodd" clip-rule="evenodd" d="M16.5208 10.5733C16.8312 9.7489 17 8.86226 17 7.93878C17 3.55431 13.1944 0 8.5 0C3.80558 0 0 3.55431 0 7.93878C0 8.86226 0.168825 9.7489 0.479221 10.5733C0.484363 10.6815 0.507541 10.7916 0.551112 10.9001L7.57201 28.3863C7.90788 29.2229 9.09212 29.2229 9.42799 28.3863L16.4489 10.9001C16.4925 10.7916 16.5156 10.6815 16.5208 10.5733Z" fill="#ED474D"/>
<path d="M16.5208 10.5733L15.5849 10.2209L15.5294 10.3684L15.5219 10.5258L16.5208 10.5733ZM0.479221 10.5733L1.47809 10.5258L1.47061 10.3684L1.41508 10.2209L0.479221 10.5733ZM0.551112 10.9001L1.4791 10.5275L1.4791 10.5275L0.551112 10.9001ZM7.57201 28.3863L8.5 28.0137L8.5 28.0137L7.57201 28.3863ZM9.42799 28.3863L10.356 28.7589L10.356 28.7589L9.42799 28.3863ZM16.4489 10.9001L17.3769 11.2727L17.3769 11.2727L16.4489 10.9001ZM16 7.93878C16 8.73926 15.8538 9.50668 15.5849 10.2209L17.4566 10.9256C17.8085 9.99113 18 8.98525 18 7.93878H16ZM8.5 1C12.7076 1 16 4.16984 16 7.93878H18C18 2.93879 13.6813 -1 8.5 -1V1ZM1 7.93878C1 4.16984 4.29243 1 8.5 1V-1C3.31873 -1 -1 2.93879 -1 7.93878H1ZM1.41508 10.2209C1.14616 9.50668 1 8.73926 1 7.93878H-1C-1 8.98525 -0.808509 9.99113 -0.456638 10.9256L1.41508 10.2209ZM-0.519652 10.6207C-0.509234 10.84 -0.462281 11.06 -0.376881 11.2727L1.4791 10.5275C1.47858 10.5262 1.47828 10.5253 1.47811 10.5248C1.47803 10.5245 1.47798 10.5243 1.47794 10.5242C1.47791 10.5241 1.4779 10.524 1.4779 10.524C1.4779 10.524 1.47791 10.524 1.47792 10.5241C1.47794 10.5242 1.47796 10.5244 1.47798 10.5245C1.47803 10.5249 1.47807 10.5253 1.47809 10.5258L-0.519652 10.6207ZM-0.376881 11.2727L6.64401 28.7589L8.5 28.0137L1.4791 10.5275L-0.376881 11.2727ZM6.64401 28.7589C7.31577 30.432 9.68423 30.432 10.356 28.7589L8.5 28.0137L8.5 28.0137L6.64401 28.7589ZM10.356 28.7589L17.3769 11.2727L15.5209 10.5275L8.5 28.0138L10.356 28.7589ZM17.3769 11.2727C17.4623 11.06 17.5092 10.84 17.5197 10.6207L15.5219 10.5258C15.5219 10.5253 15.522 10.5249 15.522 10.5245C15.522 10.5244 15.5221 10.5242 15.5221 10.5241C15.5221 10.524 15.5221 10.524 15.5221 10.524C15.5221 10.524 15.5221 10.5241 15.5221 10.5242C15.522 10.5243 15.522 10.5245 15.5219 10.5248C15.5217 10.5253 15.5214 10.5262 15.5209 10.5275L17.3769 11.2727Z" fill="black" fill-opacity="0.0687311" mask="url(#path-1-inside-1)"/>
<ellipse cx="8.49935" cy="7.93923" rx="2.83333" ry="2.64626" fill="black" fill-opacity="0.464433"/>
</svg>
