<svg width="213" height="145" viewBox="0 0 213 145" fill="none" xmlns="http://www.w3.org/2000/svg">
<path fill-rule="evenodd" clip-rule="evenodd" d="M134.725 40.1149H108.143V34.3654C108.143 33.6058 107.528 32.9901 106.768 32.9901H98.9624V26.8657C98.9624 26.3876 98.5748 26 98.0967 26H88.042C87.5639 26 87.1763 26.3876 87.1763 26.8657V32.9922H77.9997C77.2402 32.9922 76.6246 33.6079 76.6246 34.3674V40.1169H51.2775C51.1239 40.1181 51 40.2429 51 40.3965V116.72C51 116.874 51.1239 116.999 51.2775 117H68.1231C68.2775 117 68.4027 116.875 68.4027 116.72V106.452C68.4038 106.298 68.5283 106.173 68.6822 106.172H75.7982C75.9522 106.173 76.0767 106.298 76.0778 106.452V116.72C76.0778 116.874 76.2017 116.999 76.3553 117H109.643C109.797 116.999 109.921 116.874 109.922 116.72V106.452C109.922 106.298 110.046 106.173 110.2 106.172H117.316C117.47 106.172 117.595 106.297 117.595 106.452V116.72C117.596 116.874 117.721 116.999 117.875 117H134.72C134.874 116.999 134.999 116.874 135 116.72V40.3945C134.999 40.2421 134.877 40.1182 134.725 40.1149ZM65.3873 102.606C65.3873 102.759 65.263 102.883 65.1098 102.883H54.705C54.6311 102.884 54.5599 102.855 54.5075 102.803C54.455 102.75 54.4254 102.679 54.4254 102.606V99.0618C54.4254 98.9876 54.4549 98.9165 54.5073 98.8641C54.5598 98.8116 54.6309 98.7822 54.705 98.7822H65.116C65.2696 98.7833 65.3935 98.9082 65.3935 99.0618L65.3873 102.606ZM65.3067 93.6196C65.3588 93.5671 65.3878 93.496 65.3873 93.4221L65.3935 89.87C65.394 89.7961 65.365 89.7249 65.3129 89.6725C65.2608 89.62 65.1899 89.5904 65.116 89.5904H54.705C54.6307 89.5899 54.5593 89.6192 54.5067 89.6717C54.4542 89.7243 54.4249 89.7957 54.4254 89.87V93.4221C54.4249 93.4964 54.4542 93.5678 54.5067 93.6204C54.5593 93.6729 54.6307 93.7022 54.705 93.7017H65.1098C65.1837 93.7017 65.2546 93.6721 65.3067 93.6196ZM65.3873 84.2407C65.3873 84.3943 65.2634 84.5191 65.1098 84.5203H54.705C54.6309 84.5203 54.5598 84.4908 54.5073 84.4384C54.4549 84.3859 54.4254 84.3148 54.4254 84.2407V80.6866C54.4254 80.5322 54.5506 80.407 54.705 80.407H65.116C65.2696 80.4081 65.3935 80.533 65.3935 80.6866L65.3873 84.2407ZM65.3067 75.2548C65.3588 75.2023 65.3878 75.1312 65.3873 75.0572L65.3935 71.5155C65.394 71.4416 65.365 71.3704 65.3129 71.3179C65.2608 71.2654 65.1899 71.2359 65.116 71.2359H54.705C54.6307 71.2354 54.5593 71.2647 54.5067 71.3172C54.4542 71.3698 54.4249 71.4412 54.4254 71.5155V75.0572C54.4249 75.1315 54.4542 75.203 54.5067 75.2555C54.5593 75.3081 54.6307 75.3374 54.705 75.3368H65.1098C65.1837 75.3368 65.2546 75.3073 65.3067 75.2548ZM65.3873 65.8758C65.3873 66.0294 65.2634 66.1543 65.1098 66.1554H54.705C54.6309 66.1554 54.5598 66.1259 54.5073 66.0735C54.4549 66.0211 54.4254 65.95 54.4254 65.8758V62.3217C54.4254 62.2477 54.455 62.1768 54.5075 62.1247C54.5599 62.0726 54.6311 62.0436 54.705 62.0442H65.116C65.2692 62.0442 65.3935 62.1684 65.3935 62.3217L65.3873 65.8758ZM65.1098 56.9719C65.263 56.9719 65.3873 56.8477 65.3873 56.6944L65.3935 53.1403C65.3935 52.9867 65.2696 52.8618 65.116 52.8607H54.705C54.6309 52.8607 54.5598 52.8902 54.5073 52.9426C54.4549 52.995 54.4254 53.0662 54.4254 53.1403V56.6944C54.4254 56.7684 54.455 56.8393 54.5075 56.8914C54.5599 56.9435 54.6311 56.9725 54.705 56.9719H65.1098ZM65.3873 47.5109C65.3878 47.5849 65.3588 47.656 65.3067 47.7085C65.2546 47.761 65.1837 47.7905 65.1098 47.7905H54.705C54.6307 47.7911 54.5593 47.7618 54.5067 47.7093C54.4542 47.6567 54.4249 47.5853 54.4254 47.5109V43.9693C54.4249 43.8949 54.4542 43.8235 54.5067 43.7709C54.5593 43.7184 54.6307 43.6891 54.705 43.6897H65.116C65.1899 43.6897 65.2608 43.7192 65.3129 43.7717C65.365 43.8242 65.394 43.8953 65.3935 43.9693L65.3873 47.5109ZM89.973 102.8C90.0255 102.748 90.055 102.677 90.055 102.603V99.0618C90.055 98.9876 90.0256 98.9165 89.9731 98.8641C89.9207 98.8116 89.8496 98.7822 89.7754 98.7822H79.3707C79.2168 98.7833 79.0923 98.9078 79.0911 99.0618V102.603C79.0923 102.757 79.2171 102.881 79.3707 102.881H89.7754C89.8494 102.882 89.9205 102.853 89.973 102.8ZM90.055 93.42C90.0556 93.4943 90.0263 93.5658 89.9738 93.6183C89.9212 93.6709 89.8498 93.7001 89.7754 93.6996H79.3707C79.2163 93.6996 79.0911 93.5744 79.0911 93.42V89.87C79.0911 89.7156 79.2163 89.5904 79.3707 89.5904H89.7754C89.8498 89.5899 89.9212 89.6192 89.9738 89.6717C90.0263 89.7243 90.0556 89.7957 90.055 89.87V93.42ZM89.9731 84.4363C90.0256 84.3839 90.055 84.3127 90.055 84.2386V80.6866C90.055 80.6124 90.0256 80.5413 89.9731 80.4889C89.9207 80.4364 89.8496 80.407 89.7754 80.407H79.3707C79.2168 80.4081 79.0923 80.5326 79.0911 80.6866V84.2386C79.0923 84.3925 79.2168 84.5171 79.3707 84.5182H89.7754C89.8496 84.5182 89.9207 84.4887 89.9731 84.4363ZM90.055 75.0551C90.0556 75.1294 90.0263 75.2009 89.9738 75.2534C89.9212 75.306 89.8498 75.3353 89.7754 75.3347H79.3707C79.2163 75.3347 79.0911 75.2095 79.0911 75.0551V71.5155C79.0911 71.3611 79.2163 71.2359 79.3707 71.2359H89.7754C89.8498 71.2354 89.9212 71.2647 89.9738 71.3172C90.0263 71.3698 90.0556 71.4412 90.055 71.5155V75.0551ZM89.9731 66.0714C90.0256 66.019 90.055 65.9479 90.055 65.8737V62.3217C90.055 62.2477 90.0255 62.1768 89.973 62.1247C89.9205 62.0726 89.8494 62.0436 89.7754 62.0442H79.3707C79.2171 62.0442 79.0923 62.1681 79.0911 62.3217V65.8737C79.0923 66.0277 79.2168 66.1522 79.3707 66.1533H89.7754C89.8496 66.1533 89.9207 66.1239 89.9731 66.0714ZM90.055 56.6923C90.055 56.7663 90.0255 56.8372 89.973 56.8893C89.9205 56.9414 89.8494 56.9704 89.7754 56.9699H79.3707C79.2171 56.9699 79.0923 56.8459 79.0911 56.6923V53.1403C79.0923 52.9864 79.2168 52.8618 79.3707 52.8607H89.7754C89.8496 52.8607 89.9207 52.8902 89.9731 52.9426C90.0256 52.995 90.055 53.0662 90.055 53.1403V56.6923ZM89.9738 47.7072C90.0263 47.6546 90.0556 47.5832 90.055 47.5089V43.9693C90.0556 43.8949 90.0263 43.8235 89.9738 43.7709C89.9212 43.7184 89.8498 43.6891 89.7754 43.6897H79.3707C79.2163 43.6897 79.0911 43.8149 79.0911 43.9693V47.5089C79.0911 47.6633 79.2163 47.7885 79.3707 47.7885H89.7754C89.8498 47.789 89.9212 47.7597 89.9738 47.7072ZM106.911 102.601C106.911 102.675 106.881 102.746 106.829 102.798C106.776 102.85 106.705 102.879 106.631 102.879H96.2266C96.073 102.879 95.9482 102.755 95.947 102.601V99.0618C95.9482 98.9078 96.0727 98.7833 96.2266 98.7822H106.631C106.786 98.7822 106.911 98.9074 106.911 99.0618V102.601ZM106.83 93.6162C106.882 93.5637 106.912 93.4922 106.911 93.4179V89.87C106.912 89.7957 106.882 89.7243 106.83 89.6717C106.777 89.6192 106.706 89.5899 106.631 89.5904H96.2266C96.0722 89.5904 95.947 89.7156 95.947 89.87V93.4179C95.947 93.5723 96.0722 93.6975 96.2266 93.6975H106.631C106.706 93.6981 106.777 93.6688 106.83 93.6162ZM106.911 84.2365C106.911 84.3909 106.786 84.5161 106.631 84.5161H96.2266C96.0727 84.515 95.9482 84.3905 95.947 84.2365V80.6866C95.9482 80.5326 96.0727 80.4081 96.2266 80.407H106.631C106.786 80.407 106.911 80.5322 106.911 80.6866V84.2365ZM106.83 75.2514C106.882 75.1988 106.912 75.1274 106.911 75.0531V71.5155C106.912 71.4412 106.882 71.3698 106.83 71.3172C106.777 71.2647 106.706 71.2354 106.631 71.2359H96.2266C96.0722 71.2359 95.947 71.3611 95.947 71.5155V75.0531C95.947 75.2075 96.0722 75.3327 96.2266 75.3327H106.631C106.706 75.3332 106.777 75.3039 106.83 75.2514ZM106.911 65.8717C106.911 66.0261 106.786 66.1513 106.631 66.1513H96.2266C96.0727 66.1501 95.9482 66.0256 95.947 65.8717V62.3217C95.9482 62.1681 96.073 62.0442 96.2266 62.0442H106.631C106.705 62.0436 106.776 62.0726 106.829 62.1247C106.881 62.1768 106.911 62.2477 106.911 62.3217V65.8717ZM106.829 56.8872C106.881 56.8351 106.911 56.7642 106.911 56.6903V53.1403C106.911 52.9859 106.786 52.8607 106.631 52.8607H96.2266C96.0727 52.8618 95.9482 52.9864 95.947 53.1403V56.6903C95.9482 56.8439 96.073 56.9678 96.2266 56.9678H106.631C106.705 56.9683 106.776 56.9394 106.829 56.8872ZM106.911 47.5068C106.912 47.5811 106.882 47.6526 106.83 47.7051C106.777 47.7577 106.706 47.787 106.631 47.7864H96.2266C96.0722 47.7864 95.947 47.6612 95.947 47.5068V43.9693C95.947 43.8149 96.0722 43.6897 96.2266 43.6897H106.631C106.706 43.6891 106.777 43.7184 106.83 43.7709C106.882 43.8235 106.912 43.8949 106.911 43.9693V47.5068ZM131.299 102.877C131.453 102.877 131.578 102.753 131.579 102.599V99.0618C131.578 98.9078 131.453 98.7833 131.299 98.7822H120.894C120.74 98.7822 120.615 98.9074 120.615 99.0618V102.599C120.615 102.673 120.644 102.744 120.697 102.796C120.749 102.848 120.82 102.877 120.894 102.877H131.299ZM131.579 93.4158C131.579 93.5703 131.454 93.6954 131.299 93.6954H120.894C120.82 93.696 120.749 93.6667 120.696 93.6142C120.644 93.5616 120.614 93.4902 120.615 93.4158V89.87C120.614 89.7957 120.644 89.7243 120.696 89.6717C120.749 89.6192 120.82 89.5899 120.894 89.5904H131.299C131.454 89.5904 131.579 89.7156 131.579 89.87V93.4158ZM131.299 84.5141C131.453 84.5129 131.578 84.3884 131.579 84.2344V80.6866C131.578 80.5326 131.453 80.4081 131.299 80.407H120.894C120.74 80.407 120.615 80.5322 120.615 80.6866V84.2344C120.615 84.3889 120.74 84.5141 120.894 84.5141H131.299ZM131.579 75.051C131.579 75.2054 131.454 75.3306 131.299 75.3306H120.894C120.744 75.3295 120.621 75.208 120.619 75.0572V71.5155C120.618 71.4412 120.648 71.3698 120.7 71.3172C120.753 71.2647 120.824 71.2354 120.899 71.2359H131.303C131.458 71.2359 131.583 71.3611 131.583 71.5155L131.579 75.051ZM131.299 66.1492C131.453 66.1481 131.578 66.0235 131.579 65.8696V62.3217C131.578 62.1681 131.453 62.0442 131.299 62.0442H120.894C120.82 62.0436 120.749 62.0726 120.697 62.1247C120.644 62.1768 120.615 62.2477 120.615 62.3217V65.8696C120.615 66.024 120.74 66.1492 120.894 66.1492H131.299ZM131.579 56.6882C131.578 56.8418 131.453 56.9657 131.299 56.9657H120.894C120.82 56.9663 120.749 56.9373 120.697 56.8852C120.644 56.8331 120.615 56.7622 120.615 56.6882V53.1403C120.615 52.9859 120.74 52.8607 120.894 52.8607H131.299C131.453 52.8618 131.578 52.9864 131.579 53.1403V56.6882ZM131.497 47.7024C131.549 47.65 131.579 47.5789 131.579 47.5047L131.583 43.9693C131.583 43.8149 131.458 43.6897 131.303 43.6897H120.899C120.824 43.6891 120.753 43.7184 120.7 43.7709C120.648 43.8235 120.618 43.8949 120.619 43.9693V47.5109C120.621 47.6618 120.744 47.7832 120.894 47.7843H131.299C131.373 47.7843 131.444 47.7549 131.497 47.7024Z" fill="#F2F2F2"/>
<path d="M55.1478 8.97955L51.9156 10.9918L53.8774 7.48671C53.3219 7.05149 52.6345 6.81043 51.9239 6.80164H51.8718C51.6473 6.80494 51.4228 6.78851 51.2012 6.75256L50.1058 7.43354L50.5744 6.59509C49.7975 6.32912 49.1266 5.82789 48.6584 5.1636L46.6987 6.39059L47.9357 4.17996C46.7903 2.82822 45.245 2 43.5435 2C41.5046 2 39.6886 3.19018 38.5161 5.04499C37.8102 6.17891 36.5366 6.85111 35.1839 6.80368H35.0757C32.8244 6.80368 31 9.31084 31 12.4008C31 15.4908 32.8327 18 35.084 18C35.5785 17.9975 36.0651 17.8775 36.5022 17.6503C38.053 16.9094 39.857 16.875 41.4359 17.5562C42.7703 18.1424 44.2959 18.1424 45.6303 17.5562C47.1962 16.8894 48.98 16.9237 50.5182 17.6503C50.9515 17.8756 51.4336 17.9955 51.9239 18C54.1752 18 55.9996 15.4928 55.9996 12.4008C56.0129 11.2082 55.72 10.0316 55.1478 8.97955Z" fill="#F2F2F2"/>
<path opacity="0.03" d="M49 17.1551C47.8272 16.9274 46.6144 17.0616 45.5167 17.5405C44.1863 18.146 42.666 18.146 41.3356 17.5405C39.7604 16.8371 37.9621 16.8727 36.415 17.6379C35.9787 17.8744 35.4924 17.9987 34.9984 18C33.0044 18 31.3448 15.9522 31 13.2501C31.3986 12.9534 31.7371 12.5809 31.997 12.1532C33.1664 10.2325 34.9776 9 37.0111 9C39.0445 9 40.8329 10.2176 41.9961 12.1193C42.7046 13.2875 43.9619 13.9916 45.309 13.9744H45.361C46.9562 13.9638 48.3312 15.2619 49 17.1551Z" fill="black"/>
<path d="M167.585 3.49154L166.029 4.49821L166.971 2.74526C166.704 2.52782 166.374 2.40736 166.033 2.40287H166.009C165.901 2.40504 165.793 2.3968 165.686 2.37827L165.161 2.72066L165.385 2.31061C165.013 2.17712 164.691 1.92757 164.465 1.59713L163.525 2.2122L164.126 1.10712C163.623 0.431616 162.849 0.0247019 162.019 0C161.041 0 160.168 0.596617 159.613 1.52332C159.273 2.09095 158.66 2.42708 158.009 2.40287H157.957C156.876 2.40287 156 3.65556 156 5.20144C156 6.74731 156.876 8 157.957 8C158.195 7.99921 158.429 7.93941 158.639 7.82573C159.383 7.45585 160.249 7.43861 161.006 7.77857C161.648 8.07119 162.38 8.07119 163.022 7.77857C163.774 7.44572 164.63 7.46293 165.369 7.82573C165.577 7.93693 165.808 7.9953 166.043 7.9959C167.124 7.9959 168 6.74321 168 5.19733C168.003 4.60222 167.86 4.01578 167.585 3.49154V3.49154Z" fill="#F2F2F2"/>
<path opacity="0.03" d="M165 6.6283C164.413 6.52831 163.806 6.58805 163.256 6.8C162.928 6.9321 162.573 7.00024 162.214 7C161.855 6.99833 161.5 6.92893 161.172 6.79623C160.384 6.48329 159.483 6.49915 158.709 6.83962C158.491 6.94445 158.248 6.9995 158 7C157.002 7 156.173 6.09057 156 4.88868C156.2 4.75689 156.369 4.59164 156.5 4.40189C157.084 3.54906 157.99 3 159.001 3C160.011 3 160.914 3.54151 161.501 4.38679C161.858 4.90854 162.491 5.22182 163.168 5.21132H163.195C163.977 5.21132 164.665 5.78868 165 6.6283Z" fill="black"/>
<path d="M127.48 21.9251L125.542 23.0592L126.718 21.0937C126.386 20.8459 125.973 20.7075 125.546 20.7006H125.514C125.379 20.7023 125.245 20.6931 125.112 20.6731L124.456 21.0662L124.737 20.5925C124.271 20.4428 123.869 20.1615 123.586 19.7886L122.411 20.4765L123.154 19.2304C122.521 18.4756 121.553 18.0237 120.519 18C119.296 18 118.206 18.6722 117.503 19.7178C117.078 20.3521 116.317 20.7273 115.509 20.7006H115.443C114.093 20.7006 113 22.1138 113 23.8454C113 25.577 114.093 27 115.443 27C115.74 26.9995 116.033 26.932 116.295 26.8035C117.225 26.3864 118.307 26.367 119.254 26.7504C120.055 27.0793 120.969 27.0793 121.769 26.7504C122.709 26.3748 123.779 26.3942 124.703 26.8035C124.965 26.9312 125.258 26.9986 125.555 27C126.905 27 128 25.5888 128 23.8454C128.003 23.1753 127.825 22.5151 127.48 21.9251V21.9251Z" fill="#F2F2F2"/>
<path opacity="0.03" d="M124 26.5297C123.348 26.4037 122.674 26.4785 122.064 26.7448C121.325 27.081 120.48 27.081 119.741 26.7448C118.866 26.3528 117.867 26.3727 117.008 26.799C116.766 26.9303 116.496 26.9993 116.221 27C115.114 27 114.191 25.8605 114 24.3573C114.221 24.1945 114.408 23.9898 114.553 23.7544C115.202 22.6853 116.209 22 117.339 22C118.468 22 119.463 22.6773 120.113 23.7343C120.505 24.385 121.204 24.7772 121.952 24.7673H121.974C122.863 24.7532 123.628 25.4767 124 26.5297Z" fill="black"/>
<path d="M195 117C195 117.357 195 117.714 194.978 118.067C194.926 119.441 194.764 120.809 194.495 122.156C193.161 128.824 189.31 134.007 184.472 135.537C183.51 135.844 182.508 136 181.5 136C174.044 136 168 127.486 168 117C168 106.514 174.044 98 181.5 98C188.494 98 194.247 105.488 194.931 115.079C194.978 115.71 195 116.352 195 117Z" fill="#36334A"/>
<path opacity="0.1" d="M195 118.514C194.948 119.889 194.787 121.258 194.518 122.606C193.186 129.28 189.342 134.468 184.513 136C180.774 134.235 178 127.622 178 119.732C178 110.491 181.81 103 186.511 103C190.457 103 193.776 108.283 194.739 115.452C194.872 116.435 194.959 117.462 195 118.514Z" fill="black"/>
<path d="M126 75.5927C126 75.5927 163.124 67.9402 182.717 74.9722C182.717 74.9722 185.604 76.4199 182.717 78.9018C182.717 78.9018 185.447 81.7973 180.679 82.8315L161.736 84L126 80.3496V75.5927Z" fill="#3F3D56"/>
<path opacity="0.1" d="M133 75.9943C133 75.9943 165.002 69.6166 181.893 75.4769C181.893 75.4769 184.384 76.6848 181.893 78.7523C181.893 78.7523 184.245 81.168 180.136 82.0277L163.806 83L133 79.9622V75.9943Z" fill="black"/>
<path d="M169 87.3585L166.524 82.3774C166.524 82.3774 167.609 77.3381 158.786 75.8562C158.297 73.6583 156.08 72 153.421 72C150.825 72 148.654 73.5774 148.093 75.6943C146.826 75.8043 145.476 75.9538 144.032 76.1509L142.014 87.0347L141.762 86.5283C141.762 86.5283 143.043 80.5758 131.494 79.7062C132.124 78.9387 132.47 77.9761 132.476 76.9811C132.476 74.3432 130.027 72.2075 127.008 72.2075C123.989 72.2075 121.54 74.3432 121.54 76.9811C121.548 78.0648 121.957 79.1066 122.687 79.9034C121.607 80.0072 120.468 80.14 119.27 80.3019L117 92.5472L127.524 94L144.238 91.5094L142.759 88.5311L152.286 89.847L169 87.3585Z" fill="#5FC0D8"/>
<path opacity="0.2" d="M169 87.3585L166.524 82.3774C166.524 82.3774 167.609 77.3381 158.786 75.8562C158.297 73.6583 156.08 72 153.421 72C150.825 72 148.654 73.5774 148.093 75.6943C146.826 75.8043 145.476 75.9538 144.032 76.1509L142.014 87.0347L141.762 86.5283C141.762 86.5283 143.043 80.5758 131.494 79.7062C132.124 78.9387 132.47 77.9761 132.476 76.9811C132.476 74.3432 130.027 72.2075 127.008 72.2075C123.989 72.2075 121.54 74.3432 121.54 76.9811C121.548 78.0648 121.957 79.1066 122.687 79.9034C121.607 80.0072 120.468 80.14 119.27 80.3019L117 92.5472L127.524 94L144.238 91.5094L142.759 88.5311L152.286 89.847L169 87.3585Z" fill="black"/>
<path d="M133.68 76.5596C133.68 76.5596 132.031 67.2107 139.657 67.0023C147.284 66.794 144.81 80.5424 144.81 80.5424C144.81 80.5424 150.582 81.7923 150.994 84.0837C151.406 86.3751 131 87 131 87L133.68 76.5596Z" fill="#5FC0D8"/>
<path d="M120 125.369C120 136.207 111.941 145 102 145C92.0591 145 84 136.207 84 125.369C84 114.531 92.1593 104 102.102 104C112.045 104 120 114.527 120 125.369Z" fill="#36334A"/>
<ellipse opacity="0.1" cx="101.5" cy="126.5" rx="14.5" ry="16.5" fill="black"/>
<ellipse cx="22" cy="124" rx="18" ry="20" fill="#36334A"/>
<path d="M53 77C53 77 44.605 77.3931 45.0145 81.7166C45.424 86.0402 52.181 82.8958 52.181 82.8958L53 77Z" fill="#36334A"/>
<path d="M123.515 83.567L126.986 60.5417C126.986 60.5417 127.809 57.6801 116.705 57.6801C116.705 57.6801 81.133 55.4318 72.0857 59.1109C72.0857 59.1109 61.599 62.9944 47 83.0253C47 83.0253 122.076 84.7933 123.515 83.567Z" fill="#3F3D56"/>
<path d="M122 60L115.579 85L111.553 84.9045L92.4985 84.4492L50.0005 83.4329C49.8825 81.4573 70.0079 61.0163 70.0079 61.0163L122 60Z" fill="#36334A"/>
<path opacity="0.2" d="M93 84.5272L94.7318 77.6885C94.7318 77.6885 93.0785 68.2134 100.725 68.0024C108.371 67.7913 105.891 81.7221 105.891 81.7221C105.891 81.7221 111.161 82.8766 112 85L93 84.5272Z" fill="#5FC0D8"/>
<path d="M195.548 115.668C194.311 103.664 186.573 101.077 186.573 101.077C179.145 100.663 174.193 129.018 174.193 129.018L117.04 134.193C117.04 134.193 119 110.08 105.176 106.147C91.3522 102.215 87.7415 130.467 87.1225 134.4C86.5035 138.332 3.76551 133.986 1.49589 132.33C-0.773735 130.674 0.0515823 114.737 0.67057 113.495C1.28956 112.253 2.94019 106.665 2.94019 106.665C2.94019 105.332 3.57568 103.647 4.10389 102.478C4.47528 101.65 4.79715 101.077 4.79715 101.077C6.59015 90.8768 15.8997 88.4076 16.5249 88.2441H16.5579C19.0339 85.7604 41.9364 84.1046 41.9364 84.1046L50.6022 82.4488L121.057 83.8376L124.055 83.8976L159.874 82.1694L184.097 81C189.668 81 192.557 95.0743 192.557 95.0743C197.715 107.493 195.548 115.668 195.548 115.668Z" fill="#3F3D56"/>
<ellipse opacity="0.1" cx="76.6107" cy="97.2606" rx="10.6309" ry="6.6557" transform="rotate(-21.92 76.6107 97.2606)" fill="black"/>
<ellipse cx="76.1986" cy="96.4363" rx="10.6309" ry="6.6557" transform="rotate(-21.92 76.1986 96.4363)" fill="#F2F2F2"/>
<path opacity="0.1" d="M16 89C15.8983 91.2199 14.9156 94.0211 13.1475 96.7193C10.303 101.062 6.40199 103.619 4 102.871C4.3588 102.063 4.66977 101.504 4.66977 101.504C6.40199 91.559 15.396 89.1514 16 89Z" fill="black"/>
<path d="M16 88C15.8983 90.2199 14.9156 93.0211 13.1475 95.7193C10.303 100.062 6.40199 102.619 4 101.871C4.3588 101.063 4.66977 100.504 4.66977 100.504C6.40199 90.559 15.396 88.1514 16 88Z" fill="#F2F2F2"/>
<path d="M45.2917 94H28.8333L28 92H48L45.2917 94V94Z" fill="#36334A"/>
<rect x="14" y="111" width="27" height="8" fill="#36334A"/>
<circle opacity="0.1" cx="70.5" cy="122.5" r="3.5" fill="black"/>
<circle cx="69.5" cy="122.5" r="3.5" fill="#F2F2F2"/>
<ellipse opacity="0.1" cx="3" cy="120" rx="2" ry="4" fill="black"/>
<ellipse cx="2" cy="120" rx="2" ry="4" fill="#F2F2F2"/>
<path d="M166.241 103.347C163.953 110.438 163.745 121.492 163.745 121.492L162.914 124.412L122.358 129C122.358 129 122.566 108.561 123.19 98.9667C123.629 92.1988 122 86.4695 121 83.681L124.022 83.7415L160.127 82C166.158 86.2401 168.294 96.9791 166.241 103.347Z" fill="#36334A"/>
<path d="M156.927 90.4735C156.648 90.4896 156.389 90.6071 156.215 90.797C156.041 90.987 155.968 91.2318 156.013 91.4712C156.052 91.6725 156.203 91.8439 156.417 91.9289C157.07 92.2113 161.416 91.5782 163.064 91.3257C163.565 91.2552 163.949 90.9 163.998 90.4612C164.018 90.2122 163.913 90 163.492 90L156.927 90.4735Z" fill="#F2F2F2"/>
<path d="M121 83.438C121 83.438 122.081 88.2235 127.27 86.7009L129 79.9577L125.541 78L121 83.438Z" fill="#36334A"/>
<path d="M127.034 74.3895C129.29 73.0811 132.869 71.9373 136.409 74.6844C137.925 75.856 138.424 77.8913 137.617 79.6088C136.458 82.0629 133.707 84.7257 127.286 81.5372C126.656 81.2242 126.118 80.7586 125.723 80.1847L125.691 80.1365C125.063 79.2074 124.851 78.0674 125.105 76.9816C125.359 75.8959 126.056 74.9591 127.034 74.3895V74.3895Z" fill="#36334A"/>
<circle cx="102" cy="126" r="4" fill="#F2F2F2"/>
<ellipse cx="187.5" cy="118" rx="2.5" ry="4" fill="#F2F2F2"/>
<rect x="99" y="113" width="5" height="7" rx="2.5" fill="#36334A"/>
<path d="M187.526 105V105C187.917 105 188.292 105.147 188.568 105.41C188.845 105.673 189 106.029 189 106.4V109.6C189 110.925 187.869 112 186.474 112V112C185.66 112 185 111.373 185 110.6V107.4C185 106.075 186.131 105 187.526 105V105Z" fill="#36334A"/>
<path d="M187.665 131V131C186.193 131 185 129.925 185 128.6V126.4C185 125.075 186.193 124 187.665 124V124C189.13 124 188.997 125.08 188.997 126.4V128.6C188.995 129.92 189.135 131 187.665 131Z" fill="#36334A"/>
<path d="M181.6 114V114C182.925 114 184 115.075 184 116.4V119.4C184 120.284 183.284 121 182.4 121V121C181.075 121 180 119.925 180 118.6V115.6C180 115.176 180.169 114.769 180.469 114.469C180.769 114.169 181.176 114 181.6 114Z" fill="#36334A"/>
<path d="M195 117C195 117.344 195 117.688 194.98 118.028C194.933 119.351 194.789 120.668 194.547 121.966C194.427 121.988 194.305 122 194.183 122C192.977 122 192 120.925 192 119.6V117.4C192 116.075 192.977 115 194.183 115C194.374 114.999 194.563 115.027 194.747 115.082C194.813 115.102 194.878 115.124 194.94 115.15C194.98 115.758 195 116.376 195 117Z" fill="#36334A"/>
<rect x="110" y="122" width="5" height="7" rx="2.5" fill="#36334A"/>
<rect x="90" y="122" width="5" height="7" rx="2.5" fill="#36334A"/>
<rect x="100" y="132" width="5" height="7" rx="2.5" fill="#36334A"/>
<path d="M203.285 134C203.817 132.956 203.213 131.675 202.521 130.744C201.829 129.814 200.983 128.844 201 127.655C201.027 125.95 202.732 124.943 204.104 124.039C205.115 123.368 206.048 122.571 206.883 121.667C207.232 121.319 207.521 120.908 207.737 120.454C208.018 119.787 208.01 119.027 207.993 118.296C207.935 115.862 207.822 113.43 207.653 111" stroke="#3F3D56" stroke-width="4"/>
<path d="M209.997 111.385C209.958 110.533 209.488 109.761 208.749 109.335L208.19 110.442L208.207 109.101C207.94 109.023 207.661 108.99 207.383 109.003C206.004 109.067 204.939 110.237 205.003 111.616C205.067 112.995 206.237 114.061 207.616 113.997C208.995 113.933 210.061 112.764 209.997 111.385V111.385Z" fill="#5FC0D8"/>
<path d="M205.723 128.644C205.205 129.651 204.076 130.183 202.97 129.943C201.864 129.702 201.057 128.749 201.003 127.618C200.985 127.272 201.041 126.926 201.166 126.602C201.54 125.632 202.475 124.994 203.515 125C204.555 125.006 205.482 125.655 205.845 126.629L204.283 127.901L206 127.502C206.001 127.9 205.906 128.291 205.723 128.644V128.644Z" fill="#5FC0D8"/>
<path d="M204.621 123.997C203.957 124.028 203.309 123.795 202.818 123.348C202.327 122.902 202.034 122.278 202.003 121.616C201.984 121.225 202.058 120.835 202.22 120.479C202.525 119.803 203.113 119.297 203.826 119.094L203.815 120.125L204.381 119.003V119.003C205.762 118.939 206.933 120.005 206.997 121.384C207.012 121.672 206.976 121.961 206.89 122.237C206.58 123.242 205.673 123.945 204.621 123.997Z" fill="#5FC0D8"/>
<path d="M210.617 119.997C209.955 120.028 209.307 119.795 208.817 119.348C208.326 118.902 208.034 118.278 208.003 117.616C207.982 117.208 208.063 116.801 208.239 116.432C208.535 115.805 209.078 115.329 209.739 115.118C210.399 114.907 211.117 114.981 211.722 115.32L211.281 116.529L212.188 115.657C212.675 116.102 212.966 116.723 212.997 117.382C213.008 117.613 212.987 117.845 212.933 118.071C212.679 119.158 211.733 119.945 210.617 119.997V119.997Z" fill="#5FC0D8"/>
<path opacity="0.1" d="M209.714 111.85C209.127 111.92 208.562 112.116 207.977 112.156C207.392 112.197 206.748 112.043 206.378 111.547C206.206 111.26 206.05 110.961 205.911 110.653C205.751 110.383 205.533 110.158 205.275 110C205.075 110.424 204.982 110.897 205.003 111.373C205.06 112.755 206.051 113.875 207.318 113.99C208.585 114.105 209.733 113.179 210 111.826C209.904 111.831 209.808 111.839 209.714 111.85Z" fill="black"/>
<path opacity="0.1" d="M210.653 119.997C209.981 120.032 209.325 119.77 208.828 119.269C208.331 118.768 208.034 118.07 208.003 117.327C207.982 116.87 208.064 116.414 208.243 116C208.444 116.15 208.617 116.341 208.752 116.564C208.933 116.865 209.041 117.214 209.254 117.49C209.647 118.002 210.323 118.171 210.935 118.141C211.547 118.11 212.135 117.924 212.745 117.856C212.829 117.856 212.916 117.841 213 117.839C212.741 119.057 211.783 119.938 210.653 119.997V119.997Z" fill="black"/>
<path opacity="0.1" d="M204.679 123.997C204.001 124.032 203.338 123.767 202.836 123.26C202.334 122.752 202.034 122.044 202.003 121.292C201.983 120.848 202.06 120.405 202.225 120C202.432 120.155 202.614 120.35 202.76 120.576C202.958 120.888 203.082 121.235 203.314 121.534C203.746 122.068 204.473 122.254 205.126 122.239C205.78 122.224 206.37 122.05 207 121.997C206.683 123.139 205.755 123.939 204.679 123.997Z" fill="black"/>
<path opacity="0.1" d="M206 129.404C205.451 130.589 204.256 131.216 203.085 130.933C201.915 130.65 201.061 129.527 201.003 128.196C200.985 127.789 201.043 127.381 201.176 127C201.393 127.16 201.588 127.354 201.755 127.577C202.007 127.918 202.165 128.306 202.464 128.623C203.005 129.215 203.88 129.459 204.656 129.482C205.105 129.485 205.554 129.459 206 129.404V129.404Z" fill="black"/>
<path d="M199 133.143C199 133.143 201.148 133.079 201.798 132.624C202.447 132.17 205.104 131.628 205.266 132.356C205.428 133.085 208.496 135.981 206.069 135.999C203.643 136.018 200.429 135.628 199.782 135.24C199.135 134.851 199 133.143 199 133.143Z" fill="#656380"/>
<path opacity="0.2" d="M206.112 135.736C203.685 135.755 200.472 135.343 199.824 134.938C199.333 134.626 199.137 133.514 199.072 133H199C199 133 199.135 134.794 199.782 135.202C200.43 135.609 203.643 136.019 206.07 135.999C206.77 135.999 207.012 135.736 207 135.345C206.903 135.587 206.631 135.731 206.112 135.736Z" fill="black"/>
</svg>
