<svg width="24" height="16" viewBox="0 0 24 16" fill="none" xmlns="http://www.w3.org/2000/svg">
<path d="M22.6686 15.1579H0.397714C0.178088 15.1579 0 14.9793 0 14.759V0.39891C0 0.178624 0.178088 0 0.397714 0H22.6686C22.8883 0 23.0664 0.178624 23.0664 0.39891V14.759C23.0663 14.9793 22.8882 15.1579 22.6686 15.1579Z" fill="#41479B"/>
<path d="M23.0663 0.39891C23.0663 0.178624 22.8882 0 22.6686 0H20.8893L13.5216 4.84164V0H9.54462V4.84164L2.17697 0H0.397713C0.178088 0 0 0.178624 0 0.39891V1.43057L6.3211 5.58447H0V9.57338H6.3211L0 13.7273V14.759C0 14.9793 0.178088 15.1579 0.397713 15.1579H2.17701L9.54471 10.3163V15.1579H13.5217V10.3163L20.8893 15.1579H22.6686C22.8883 15.1579 23.0664 14.9793 23.0664 14.759V13.7273L16.7453 9.57343H23.0663V5.58451H16.7452L23.0663 1.43057V0.39891Z" fill="#F5F5F5"/>
<path d="M23.0664 6.38354H12.7263V0.0117188H10.3401V6.38354H0V8.77294H10.3401V15.1448H12.7263V8.77294H23.0664V6.38354Z" fill="#FF4B55"/>
<path d="M8.06184 9.57031L0.0112305 14.8033C0.0393876 14.9956 0.197744 15.1457 0.397637 15.1457H0.945418L9.52277 9.57036H8.06184V9.57031Z" fill="#FF4B55"/>
<path d="M15.6055 9.57031H14.1445L22.7094 15.1374C22.909 15.1161 23.0666 14.9529 23.0666 14.7474V14.4199L15.6055 9.57031Z" fill="#FF4B55"/>
<path d="M0 0.849819L7.28838 5.58729H8.74931L0.2317 0.0507812C0.0956443 0.114074 0 0.25009 0 0.410195V0.849819Z" fill="#FF4B55"/>
<path d="M14.9824 5.58703L23.0524 0.341448C23.0188 0.155493 22.8639 0.0117188 22.6685 0.0117188H22.0987L13.5215 5.58703H14.9824Z" fill="#FF4B55"/>
</svg>
