<?xml version="1.0" encoding="UTF-8"?>
<svg width="173px" height="180px" viewBox="0 0 173 180" version="1.1" xmlns="http://www.w3.org/2000/svg" xmlns:xlink="http://www.w3.org/1999/xlink">
    <title>Asset 1(2)</title>
    <defs>
        <linearGradient x1="49.9974622%" y1="96.429106%" x2="49.9974622%" y2="28.824834%" id="linearGradient-1">
            <stop stop-color="#E0F2FD" offset="0%"></stop>
            <stop stop-color="#EBF9FB" offset="100%"></stop>
        </linearGradient>
        <linearGradient x1="0.845443361%" y1="49.987076%" x2="100.030701%" y2="49.987076%" id="linearGradient-2">
            <stop stop-color="#9ED6F5" offset="0%"></stop>
            <stop stop-color="#D2EAF8" offset="100%"></stop>
        </linearGradient>
        <linearGradient x1="-0.00250116257%" y1="49.987076%" x2="100.030701%" y2="49.987076%" id="linearGradient-3">
            <stop stop-color="#A8D0F3" offset="0%"></stop>
            <stop stop-color="#DBEDF8" offset="100%"></stop>
        </linearGradient>
        <linearGradient x1="49.9932074%" y1="150.225564%" x2="49.9932074%" y2="-1083.45865%" id="linearGradient-4">
            <stop stop-color="#D9DCF9" offset="0%"></stop>
            <stop stop-color="#E6E8FA" offset="100%"></stop>
        </linearGradient>
        <linearGradient x1="50%" y1="150.27027%" x2="50%" y2="-1084.5045%" id="linearGradient-5">
            <stop stop-color="#D9DCF9" offset="0%"></stop>
            <stop stop-color="#E6E8FA" offset="100%"></stop>
        </linearGradient>
        <linearGradient x1="0.845443361%" y1="49.987076%" x2="100.030701%" y2="49.987076%" id="linearGradient-6">
            <stop stop-color="#9ED6F5" offset="0%"></stop>
            <stop stop-color="#D2EAF8" offset="100%"></stop>
        </linearGradient>
        <linearGradient x1="0.022781638%" y1="49.9902024%" x2="100.045563%" y2="49.9902024%" id="linearGradient-7">
            <stop stop-color="#D3D6F9" offset="0%"></stop>
            <stop stop-color="#E6E8FA" offset="100%"></stop>
        </linearGradient>
        <linearGradient x1="-0.00250116257%" y1="49.987076%" x2="100.030701%" y2="49.987076%" id="linearGradient-8">
            <stop stop-color="#9ED6F5" offset="0.847663079%"></stop>
            <stop stop-color="#D2EAF8" offset="100%"></stop>
        </linearGradient>
        <linearGradient x1="70.0894685%" y1="37.767009%" x2="31.2001502%" y2="60.0881472%" id="linearGradient-9">
            <stop stop-color="#A8ACF3" offset="0%"></stop>
            <stop stop-color="#A9A9F0" offset="81%"></stop>
            <stop stop-color="#B2B1F0" offset="100%"></stop>
        </linearGradient>
        <linearGradient x1="61.6400082%" y1="30.5204195%" x2="45.4842221%" y2="58.3477705%" id="linearGradient-10">
            <stop stop-color="#FFFFFF" offset="0%"></stop>
            <stop stop-color="#E6E8FA" offset="100%"></stop>
        </linearGradient>
        <linearGradient x1="5.4603033%" y1="50.0512948%" x2="99.0650987%" y2="50.0512948%" id="linearGradient-11">
            <stop stop-color="#4FBACF" offset="0%"></stop>
            <stop stop-color="#4BBFD5" offset="100%"></stop>
        </linearGradient>
        <linearGradient x1="50%" y1="162.087379%" x2="50%" y2="2.5%" id="linearGradient-12">
            <stop stop-color="#A8D6F3" offset="0%"></stop>
            <stop stop-color="#DBECF8" offset="100%"></stop>
        </linearGradient>
        <linearGradient x1="0.526694713%" y1="44.4969268%" x2="103.810285%" y2="55.9674401%" id="linearGradient-13">
            <stop stop-color="#32BADB" offset="0%"></stop>
            <stop stop-color="#2EB3D3" offset="100%"></stop>
        </linearGradient>
        <linearGradient x1="0%" y1="49.9864462%" x2="99.8380648%" y2="49.9864462%" id="linearGradient-14">
            <stop stop-color="#38C9EC" offset="0%"></stop>
            <stop stop-color="#32BBDC" offset="100%"></stop>
        </linearGradient>
        <linearGradient x1="4.4365969%" y1="50.0512948%" x2="99.0650987%" y2="50.0512948%" id="linearGradient-15">
            <stop stop-color="#4DACBE" offset="0%"></stop>
            <stop stop-color="#56D9F2" offset="100%"></stop>
        </linearGradient>
        <linearGradient x1="4.4365969%" y1="50.0512948%" x2="99.0650987%" y2="50.0512948%" id="linearGradient-16">
            <stop stop-color="#4FBACF" offset="0%"></stop>
            <stop stop-color="#4BBFD5" offset="100%"></stop>
        </linearGradient>
        <linearGradient x1="4.4365969%" y1="50.0512948%" x2="99.0650987%" y2="50.0512948%" id="linearGradient-17">
            <stop stop-color="#4DACBE" offset="0%"></stop>
            <stop stop-color="#56D9F2" offset="100%"></stop>
        </linearGradient>
        <linearGradient x1="16.0488559%" y1="67.8747521%" x2="76.8077522%" y2="54.3199601%" id="linearGradient-18">
            <stop stop-color="#214F95" offset="3%"></stop>
            <stop stop-color="#0E408C" offset="100%"></stop>
        </linearGradient>
        <linearGradient x1="50%" y1="150.150602%" x2="50%" y2="-1085.39157%" id="linearGradient-19">
            <stop stop-color="#D9DCF9" offset="0%"></stop>
            <stop stop-color="#E6E8FA" offset="100%"></stop>
        </linearGradient>
        <linearGradient x1="0.845443361%" y1="49.987076%" x2="100.030701%" y2="49.987076%" id="linearGradient-20">
            <stop stop-color="#9ED6F5" offset="0%"></stop>
            <stop stop-color="#D2EAF8" offset="100%"></stop>
        </linearGradient>
        <linearGradient x1="-0.0747778033%" y1="49.9713795%" x2="100.152405%" y2="49.9713795%" id="linearGradient-21">
            <stop stop-color="#A8ACF3" offset="0%"></stop>
            <stop stop-color="#A9A9F0" offset="81%"></stop>
            <stop stop-color="#B2B1F0" offset="100%"></stop>
        </linearGradient>
        <linearGradient x1="67.7831372%" y1="-12.4396619%" x2="33.0419417%" y2="58.5491254%" id="linearGradient-22">
            <stop stop-color="#FFFFFF" offset="0%"></stop>
            <stop stop-color="#E6E8FA" offset="100%"></stop>
        </linearGradient>
    </defs>
    <g id="Page-1" stroke="none" stroke-width="1" fill="none" fill-rule="evenodd">
        <g id="entery---step-enter-phone" transform="translate(-76.000000, -72.000000)">
            <g id="Asset-1(2)" transform="translate(76.000000, 72.000000)">
                <path d="M166.20882,142.043222 C167.572181,150.579849 173.393218,160.127086 169.312443,168.640428 C169.186809,168.896573 169.056522,169.152718 168.916929,169.404207 C168.851785,169.520636 168.781989,169.632409 168.712192,169.748839 C166.190208,173.986881 161.392854,176.515734 156.530357,177.419229 C147.838353,179.030616 138.57867,176.95351 130.212383,174.624915 C128.956044,174.280283 127.713665,173.879765 126.489897,173.432675 C124.830289,173.072519 123.173783,172.743411 121.520379,172.445351 C118.239649,171.840875 114.922446,171.455032 111.590648,171.290368 C109.300929,171.24916 107.010766,171.342464 104.731968,171.5698 C88.9114038,173.148587 74.072645,179.924796 58.0194252,180 C47.7453645,180.050541 36.7221536,177.246913 28.9002804,170.270444 C14.7967125,157.696034 18.8542219,136.9436 12.5399555,120.904241 C8.18464716,109.95519 -1.16809828,100.128521 0.120812407,87.6379406 C1.87038071,68.347864 22.3114806,64.8177148 35.135444,55.1307619 C36.6274853,53.8377155 38.0052625,52.4182171 39.2534439,50.8880627 C41.7118038,47.7630978 43.8637201,44.4084038 45.6793849,40.8704493 C48.1036537,33.5866059 50.3324921,26.0978461 53.6827293,19.2610927 C55.9813642,14.5759606 58.8011472,10.1842315 62.6120419,6.38396531 C70.7922044,-1.79871564 83.6394333,-1.79871564 92.7548703,4.576976 C95.1799933,6.21979787 97.4424168,8.09120956 99.511182,10.1656027 C126.936596,37.3076998 112.916784,54.6929861 154.971567,53.7801771 C181.471012,53.2073428 170.303555,95.5784477 168.172432,110.504738 C166.734622,120.620153 164.533702,131.559889 166.20882,142.043222 Z" id="Path" fill="url(#linearGradient-1)" fill-rule="nonzero"></path>
                <circle id="Oval" fill="url(#linearGradient-2)" fill-rule="nonzero" cx="124.976303" cy="21.7535545" r="4.69194313"></circle>
                <path d="M122.980068,23.8807304 C122.944232,23.8880978 122.907518,23.8880978 122.871682,23.8807304 C122.793491,23.844009 122.733329,23.770479 122.706935,23.6793758 L122.000259,21.1206988 C121.960641,20.9525353 122.045338,20.7789463 122.192115,20.7274829 C122.338893,20.6760194 122.49535,20.7650545 122.546524,20.9291664 L123.162156,23.0949563 L127.545284,20.5117239 C127.684218,20.428325 127.856528,20.4875396 127.931138,20.6443232 C128.001589,20.8032401 127.947828,20.99681 127.809746,21.0814101 L123.110131,23.8659971 C123.068431,23.882571 123.023839,23.8876222 122.980068,23.8807304 Z" id="Path" fill="#FFFFFF" fill-rule="nonzero"></path>
                <circle id="Oval" fill="#F4F4F9" fill-rule="nonzero" cx="11.5165877" cy="84.028436" r="4.69194313"></circle>
                <path d="M9.66772657,86.1611374 C9.52580821,86.1598318 9.40047431,86.0695636 9.35599667,85.9366227 L8.54945739,83.3937492 C8.50957627,83.2823804 8.5346832,83.1584137 8.61488291,83.0707074 C8.69508261,82.9830011 8.81751241,82.9456219 8.93391964,82.9733018 C9.05032687,83.0009818 9.14204178,83.0892814 9.1729172,83.2033997 L9.86070223,85.3753358 L14.8780693,82.7836548 C15.0381836,82.704343 15.2332121,82.7648653 15.3184496,82.9203159 C15.4017206,83.0780134 15.3397092,83.2724387 15.179903,83.3547032 L9.81122129,86.1220914 C9.76721432,86.146168 9.71802392,86.1595531 9.66772657,86.1611374 Z" id="Path" fill="url(#linearGradient-3)" fill-rule="nonzero"></path>
                <circle id="Oval" fill="#F4F4F9" fill-rule="nonzero" cx="161.658768" cy="81.4691943" r="4.69194313"></circle>
                <path d="M159.796861,83.6018957 C159.754665,83.6008867 159.712967,83.592671 159.673623,83.5776142 C159.585805,83.5412537 159.518962,83.4682849 159.491231,83.3785055 L158.687719,80.8483683 C158.634631,80.6807392 158.729533,80.5024513 158.899689,80.450151 C159.069845,80.3978507 159.25082,80.4913432 159.303909,80.6589722 L159.989112,82.8200299 L164.987643,80.2461859 C165.091004,80.1760028 165.226131,80.1706635 165.334866,80.232466 C165.443602,80.2942684 165.506544,80.4121851 165.496605,80.5354672 C165.486666,80.6587493 165.405618,80.7653995 165.288343,80.8095178 L159.949676,83.5630453 C159.902602,83.5877925 159.850212,83.6011118 159.796861,83.6018957 Z" id="Path" fill="url(#linearGradient-3)" fill-rule="nonzero"></path>
                <path d="M97.2511848,162.940954 C97.2511848,163.879984 89.6115882,164.64455 80.1872556,164.64455 C70.7629231,164.64455 63.1279621,163.879984 63.1279621,162.940954 C63.1279621,162.001924 70.7629231,161.232227 80.1872556,161.232227 C89.6115882,161.232227 97.2511848,162.001924 97.2511848,162.940954 Z" id="Path" fill="url(#linearGradient-4)" fill-rule="nonzero" opacity="0.5" style="mix-blend-mode: multiply;"></path>
                <path d="M52.8909953,162.514154 C52.8909953,163.219675 46.5877702,163.791469 38.8151659,163.791469 C31.0425616,163.791469 24.7393365,163.224286 24.7393365,162.514154 C24.7393365,161.804022 31.037984,161.232227 38.8151659,161.232227 C46.5923477,161.232227 52.8909953,161.808633 52.8909953,162.514154 Z" id="Path" fill="url(#linearGradient-5)" fill-rule="nonzero" opacity="0.5" style="mix-blend-mode: multiply;"></path>
                <g id="Group" transform="translate(52.037915, 111.753555)" fill-rule="nonzero">
                    <path d="M49.8867045,40.7151975 C49.840242,40.8087204 49.7844871,40.8975671 49.7333785,40.99109 C47.7912492,44.334534 44.3530298,47.9445182 38.9494499,51.1944392 C35.8506575,53.0912723 32.2895468,54.0852174 28.6626693,54.0658775 L28.4257109,54.0658775 C24.160951,53.9481811 20.0054526,52.6822049 16.3919431,50.3994945 C16.3919431,50.3994945 7.48974272,38.0170616 9.72923155,34.9682148 C9.77540705,34.9006027 9.82834056,34.8379272 9.88720379,34.781169 L9.910435,34.7577883 C12.5355619,32.3448973 16.4709292,34.0329858 18.1621615,33.6635703 C18.2413324,33.6464576 18.3190172,33.6230022 18.3944736,33.5934281 L18.5710308,33.5045814 C19.9649035,32.625466 15.5788507,28.9266351 16.5777928,25.1623381 C16.6374346,24.9372134 16.7135306,24.716834 16.8054587,24.5030016 C16.8378864,24.4198297 16.8751199,24.3386378 16.9169685,24.259842 C18.2365014,21.7113428 21.4052387,22.9271406 22.0278351,21.7721327 C22.0635068,21.7158895 22.0901616,21.6543468 22.1068213,21.589763 C22.1068213,21.5196209 22.1439912,21.4354502 22.1625762,21.3559558 C22.445997,19.9905213 22.4367045,17.0398736 22.5853842,13.771248 C22.5853842,13.673049 22.5853842,13.5748499 22.5853842,13.4766509 C22.7294177,10.5119747 23.0128385,7.31816746 23.7794685,4.81175355 C23.8026997,4.73225908 23.8305772,4.65276461 23.8538084,4.57794629 C24.6157921,2.23987362 25.8238152,0.519052133 27.7705907,0.285244866 C27.8309054,0.280643701 27.8914795,0.280643701 27.9517942,0.285244866 L28.0121953,0.285244866 C29.9914946,0.158988942 31.6873731,1.26723539 33.085892,3.03949447 C33.1602319,3.13769352 33.239218,3.23589258 33.3135579,3.33876777 L33.3135579,3.33876777 C35.9851473,6.96278041 37.495176,13.0464455 37.6949645,17.3672038 C37.6949645,17.513723 37.6949645,17.6540074 37.6949645,17.7880569 C37.7162259,18.3852719 37.703816,18.9832199 37.6577945,19.5790205 C37.4408418,22.5270577 37.5718504,25.490585 38.0480789,28.4075829 C38.0480789,28.5244866 38.0898951,28.6413902 38.10848,28.7536177 C38.5452268,31.2132701 39.1910545,33.0650237 39.8786984,33.5513428 C39.9242053,33.5821979 39.9724167,33.6088066 40.0227319,33.6308373 L40.0924255,33.6308373 C41.5374069,33.9862243 47.5868145,29.118357 50.2769888,30.5071722 C50.3486497,30.5413876 50.4170755,30.5820813 50.4814235,30.628752 C50.8233665,30.8721554 51.0880076,31.2099579 51.2434072,31.6013902 C52.1912407,33.7617694 51.9264049,37.0678041 49.8867045,40.7151975 Z" id="Path" fill="url(#linearGradient-6)"></path>
                    <path d="M49.8867045,40.7151975 C49.840242,40.8087204 49.7844871,40.8975671 49.7333785,40.99109 C47.9229559,41.346508 46.0813146,41.5157196 44.2368737,41.4961137 C42.8819111,41.4997205 41.5277871,41.4279099 40.1807041,41.2810111 L40.1807041,41.2248973 C36.914861,43.1684914 33.3481428,44.5468248 29.6290877,45.3024961 C29.1923409,49.9786414 28.7648866,53.2519431 28.6533768,54.0655924 C28.6533768,54.1824961 28.6301456,54.2526382 28.6301456,54.2619905 L28.3931872,54.2292575 C28.3931872,54.2292575 28.3931872,54.1591153 28.4164184,54.0655924 C28.4814658,53.569921 28.6905467,52.0080885 28.94609,49.6793681 C27.7148358,48.9919747 14.2825491,41.3558294 9.71993907,34.972891 C9.76611456,34.9052789 9.81904807,34.8426033 9.87791131,34.7858452 C11.8804418,37.5915324 15.6438981,40.6777883 19.3144296,43.2824013 C19.3144296,42.1507741 19.1982735,36.2681833 18.152869,33.6682464 L18.3851811,33.5981043 C19.5188643,36.4552291 19.5513879,42.9503949 19.5560342,43.4554186 C23.9049171,46.52297 28.0725965,48.9124803 28.9739675,49.4221801 C29.406068,45.4708373 29.9636171,39.4432859 30.2470379,32.6956082 C30.0426032,32.6956082 29.8428148,32.7189889 29.6430264,32.7189889 C22.9803148,32.7189889 17.9391418,26.1396524 16.7961662,24.5076777 C16.8285939,24.4245058 16.8658274,24.343314 16.907676,24.2645182 C18.4543609,26.5082052 20.3660024,28.473253 22.562153,30.0769668 C22.562153,28.9827488 22.6504316,24.1896998 22.0371276,21.7768088 C22.0727993,21.7205657 22.099454,21.6590229 22.1161137,21.5944392 C22.1161137,21.524297 22.1532837,21.4401264 22.1718687,21.3606319 C22.8455738,23.9278357 22.8130501,29.5532385 22.7991114,30.2453081 C24.973667,31.773952 27.5821222,32.5516803 30.2330992,32.4618009 C30.4421801,27.3741548 30.4932888,21.8937125 30.2330992,16.6049921 C29.3410206,16.4179463 24.7365944,15.3845182 22.5900305,13.7993049 C22.5900305,13.7011058 22.5900305,13.6029068 22.5900305,13.5047077 C24.5646835,15.0805687 29.1784022,16.151406 30.2052217,16.375861 C30.0333108,13.3083096 29.7405975,10.296872 29.3270819,7.49118483 L29.2992045,7.49118483 C27.7953471,6.02384345 25.8611284,5.0841296 23.7841148,4.81175355 C23.807346,4.73225908 23.8352234,4.65276461 23.8584546,4.57794629 C25.8804339,4.86192317 27.7702022,5.75340229 29.2806195,7.13579779 C28.9346727,4.82039498 28.4317037,2.53153099 27.775237,0.285244866 C27.8355516,0.280643701 27.8961258,0.280643701 27.9564404,0.285244866 L28.0168416,0.285244866 C28.9421626,3.54780804 29.5842074,6.88508539 29.9357397,10.2594629 C30.4375339,9.52530806 33.1137695,5.53187994 33.0905383,3.03949447 C33.1648781,3.13769352 33.2438643,3.23589258 33.3182041,3.33876777 L33.3182041,3.33876777 C33.1323544,6.14445498 30.1959292,10.3015482 30.0426032,10.5119747 L29.9543246,10.4465087 C30.4677737,15.2842361 30.7051218,20.147619 30.6651997,25.0127014 C31.4829384,24.3299842 35.4601219,20.9210742 37.7181957,17.3718799 C37.7181957,17.5183992 37.7181957,17.6586835 37.7181957,17.792733 C35.1488236,21.6645814 30.6977234,25.2745656 30.651261,25.3260032 L30.651261,25.3260032 C30.651261,28.6413902 30.5258125,31.9146919 30.3678402,34.9915956 C31.3760748,34.4538389 35.7853588,31.9754818 38.0759563,28.4169352 C38.0759563,28.5338389 38.1177725,28.6507425 38.1363575,28.76297 C35.6645565,32.4243918 31.0554841,34.9027488 30.3539015,35.2674882 C30.1587593,38.8774724 29.8892773,42.2162401 29.6383802,45.0593365 C32.3416738,44.512028 34.9657507,43.6243745 37.4487136,42.4173144 C37.8643079,39.366416 38.6912084,36.3867768 39.9065758,33.5606951 C39.9520828,33.5915502 40.0002941,33.6181589 40.0506093,33.6401896 L40.120303,33.6401896 C38.9339156,36.3954953 38.1212768,39.29893 37.7042569,42.2723539 C42.0299086,40.1493839 47.0710816,36.5393997 50.3048663,30.5165245 C50.3765271,30.5507399 50.4449529,30.5914336 50.5093009,30.6381043 C48.142422,34.9600627 44.6608683,38.5593364 40.4316012,41.0565561 C41.5234682,41.182812 46.0535545,41.5802844 49.8867045,40.7151975 Z" id="Path" fill="url(#linearGradient-7)"></path>
                    <path d="M5.31065504,46.0039179 C5.68700068,47.0887836 7.91255078,47.7387678 10.6120176,48.3653712 L10.8396835,48.421485 C12.4240521,48.7862243 14.1617468,49.1509637 15.7693466,49.6045498 L15.9923663,49.6653397 C16.619609,49.8430332 17.2236205,50.0394313 17.7904621,50.2498578 L17.9577268,50.3153239 C19.6721903,50.9746603 21.0103081,51.8163665 21.4935173,52.9854028 C22.4227657,55.2393049 25.3963609,56.9180411 27.6544347,55.5666351 C27.6998494,55.5419249 27.7433387,55.5137875 27.7845295,55.4824645 C29.903216,54.0796209 31.3110274,49.9084992 29.6430264,40.8367773 C29.6430264,40.8367773 29.6430264,40.7105213 29.6430264,40.4720379 C29.6430264,40.4159242 29.6430264,40.3551343 29.6430264,40.2849921 C29.6430264,39.027109 29.5501016,35.7865403 29.2341571,32.237346 C29.2341571,32.1484992 29.2341571,32.0596524 29.2341571,31.9708057 C29.0488734,29.8721571 28.75108,27.7851142 28.3420785,25.7187994 L28.3049086,25.5364297 C27.6312035,22.3660032 26.6183226,19.9250553 25.1036476,19.6959242 C24.8789426,19.6647859 24.6519304,19.6538317 24.4252962,19.6631912 C24.3695413,19.6631912 24.3184326,19.6631912 24.267324,19.6631912 C22.408827,19.850237 21.5957346,21.7066667 20.8151659,23.5677725 C20.8061765,23.5875311 20.7984178,23.6078337 20.7919347,23.6285624 C20.7640572,23.6893523 20.740826,23.7501422 20.7129485,23.8062559 C20.0206584,25.4475829 19.3190758,27.0374724 17.8555095,27.4209163 C16.926261,27.668752 15.6253131,26.4295735 14.1385156,24.5544392 L14.0409445,24.4281833 C12.0802302,21.9077409 9.80357143,18.2977567 7.61519127,15.5762401 L7.52226642,15.4593365 C5.52438219,12.9950079 3.60548409,11.292891 2.06293162,11.8446761 L1.9188981,11.905466 L1.9188981,11.905466 C-1.06863575,13.3083096 0.185849695,18.7326382 2.75522173,24.8350079 L2.82491537,25.0080253 C4.14444821,28.1223381 5.80315674,31.4049921 7.4107566,34.3977251 C7.52226642,34.6081517 7.62448375,34.8092259 7.72670108,35.0103002 C7.75457854,35.0664139 7.78710223,35.1272038 7.81033345,35.1833175 C8.48694694,36.4355257 8.91017036,37.8103181 9.0555264,39.2281833 C9.0555264,39.2796209 9.0555264,39.3310585 9.0555264,39.3824961 C9.15774374,43.2029068 5.11086662,43.371248 5.2734851,45.718673 C5.26900854,45.7559465 5.26900854,45.793627 5.2734851,45.8309005 C5.27931935,45.8898044 5.29178942,45.9478497 5.31065504,46.0039179 L5.31065504,46.0039179 Z" id="Path" fill="url(#linearGradient-8)"></path>
                    <path d="M14.0084208,44.5589889 C13.4013238,46.2180635 12.1859543,47.5801401 10.6120176,48.3653712 L10.8396835,48.421485 C12.3895396,47.5980353 13.5764954,46.2199132 14.166393,44.5589889 C15.2861374,44.5589889 16.3826506,44.6010742 17.4187627,44.6712164 L17.4419939,44.6945972 L17.4652251,44.6712164 C20.606085,44.881643 23.040716,45.3024961 23.2265657,45.3352291 C24.113998,47.1121643 24.9131517,48.8563665 25.591503,50.4322275 C24.7909139,50.1676653 23.9746827,49.9537045 23.1475796,49.7915956 C22.6039692,49.3707425 19.9277336,47.5938073 15.7879316,49.6045498 L16.0109513,49.6653397 C19.5235105,48.0286888 21.9256178,49.1649921 22.7898189,49.7261295 C21.1218179,49.4362085 19.072825,49.4128278 17.8090471,50.2498578 L17.9763118,50.3153239 C19.2493822,49.4595893 21.3959462,49.6185782 23.0871784,49.9459084 L23.1429333,49.9879937 L23.1661645,49.9599368 C24.0130951,50.1252599 24.8481638,50.3470869 25.6658429,50.6239494 C26.5532752,52.6861295 27.2362729,54.439684 27.6637271,55.5666351 C27.7091419,55.5419249 27.7526312,55.5137875 27.7938219,55.4824645 C27.1805179,53.8551659 26.0328961,50.9512796 24.5414523,47.7013586 L24.5879147,47.7013586 C24.5879147,47.6592733 25.2430349,43.6845498 29.6523189,40.4626856 C29.6523189,40.4065719 29.6523189,40.345782 29.6523189,40.2756398 C28.4505795,41.1328869 27.386607,42.1705889 26.4975203,43.3525434 C25.7215978,39.2328594 28.1237051,34.2621169 29.2434496,32.2279937 C29.2434496,32.1391469 29.2434496,32.0503002 29.2434496,31.9614534 C28.1562288,33.8880253 25.5032244,39.1907741 26.395303,43.5208847 C25.4983815,44.7166459 24.8518978,46.0831582 24.4949898,47.5376935 C23.0455155,44.3575241 21.3619877,41.2907896 19.4584631,38.3630964 L19.4584631,38.3630964 C20.4946716,36.5536012 21.4149533,34.6793256 22.2136848,32.751722 L22.2415623,32.751722 C22.2429844,32.734606 22.2429844,32.7174004 22.2415623,32.7002844 C22.8348805,31.2808744 23.3483284,29.8289721 23.7794685,28.3514692 L23.7794685,28.4262875 C23.7794685,28.4262875 23.960672,28.3748499 24.2440928,28.2719747 C25.7813255,27.7373274 27.181131,26.8652041 28.3420785,25.7187994 L28.3049086,25.5364297 C26.6880162,27.3273934 24.1511679,28.1597472 23.7841148,28.2766509 C24.6111459,25.35406 25.0525389,22.2584518 24.4252962,19.6631912 C24.3695413,19.6631912 24.3184326,19.6631912 24.267324,19.6631912 C25.1965724,23.5397156 23.7469448,28.5478673 22.1718687,32.4197156 C21.9349103,31.0963665 20.9917231,25.8450553 20.8151659,23.5677725 C20.8061765,23.5875311 20.7984178,23.6078337 20.7919347,23.6285624 C20.7640572,23.6893523 20.740826,23.7501422 20.7129485,23.8062559 C20.9080907,26.2565561 21.9209716,31.8959874 22.0650051,32.6909321 C21.2725676,34.5922747 20.3648413,36.4428363 19.3469533,38.2321643 C18.7522343,37.353049 18.1389303,36.516019 17.5163338,35.7491311 C16.4384056,34.4304581 15.3140149,33.1164613 14.2221479,31.8492259 L12.9304926,30.338831 C12.173155,28.1644234 13.3718856,25.7889415 14.1478081,24.5637915 L14.050237,24.4375355 C13.2975457,25.611248 12.1220464,27.8838547 12.6842417,30.04891 C10.1473934,27.0561769 7.64771496,23.9465403 5.60801456,20.3739652 C5.60801456,20.0513112 5.42216486,16.8481517 7.62448375,15.5855924 L7.5315589,15.4686888 C5.58478334,16.5956398 5.43610359,19.1721959 5.44539607,20.0840442 C3.97618509,17.4970488 2.84255498,14.7311674 2.0722241,11.8540284 L1.92819059,11.9148183 C3.3220633,17.1053397 5.73810934,21.3185466 8.52585477,25.1015482 C6.59908683,25.2529808 4.66114754,25.1666099 2.75522173,24.8443602 L2.82491537,25.0173776 C4.74467061,25.328329 6.69466848,25.4052608 8.63271835,25.2465087 C9.96618991,27.0421485 11.3740014,28.7489415 12.8143365,30.4136493 L12.8143365,30.4604107 L12.8143365,30.4604107 L14.0966994,31.9614534 C14.7146496,32.6815798 15.3418923,33.4157346 15.9551963,34.1592417 C15.2303825,34.393049 10.8443297,35.7397788 7.69882363,35.0290047 C7.72670108,35.0851185 7.75922478,35.1459084 7.78245599,35.2020221 C11.0348257,35.8847393 15.5602657,34.4491627 16.0620599,34.266793 C16.5019042,34.7874039 16.9371022,35.3111322 17.367654,35.8379779 C19.4909868,38.4379147 21.4609936,41.8374724 23.1197021,45.1435071 C22.5760917,45.0499842 20.3319567,44.6758926 17.4605789,44.4981991 C16.8983835,43.9557662 12.6749492,40.0137757 9.02764895,39.2281833 C9.02764895,39.2796209 9.02764895,39.3310585 9.02764895,39.3824961 C12.4194059,40.1400316 16.3083108,43.6377883 17.214328,44.4841706 C13.3625931,44.2410111 8.49333108,44.3438863 5.25954638,45.8309005 C5.26699962,45.8818916 5.27945031,45.9320149 5.29671632,45.9805371 C7.67094617,44.8909953 10.9233158,44.5683412 14.0084208,44.5589889 Z" id="Path" fill="url(#linearGradient-9)" opacity="0.5" style="mix-blend-mode: screen;"></path>
                    <path d="M14.3243653,14.2014534 L13.9433734,14.2341864 C15.1653351,28.183128 22.2229773,40.701169 27.9239167,48.744139 C31.5313338,53.8775834 35.6185179,58.6518612 40.1295955,63.0017062 L40.389785,62.7164613 C35.8994571,58.3847756 31.8309672,53.630882 28.2398612,48.519684 C22.562153,40.5141232 15.5416808,28.056872 14.3243653,14.2014534 Z M22.0185427,33.5981043 C24.8062881,33.3549447 25.0478927,30.2032227 25.0478927,30.2032227 C23.500465,30.6972044 22.3408237,31.9967719 22.0185427,33.5981043 Z M17.4745176,24.806951 C21.3912999,24.9846445 22.3484259,20.5984202 22.3484259,20.5984202 C18.3154875,21.5430016 17.4745176,24.806951 17.4745176,24.806951 Z M19.4816943,29.4830964 C23.3984766,29.6607899 24.3556026,25.2745656 24.3556026,25.2745656 C20.3180179,26.2144708 19.4816943,29.4597156 19.4816943,29.4597156 L19.4816943,29.4830964 Z M26.0189573,42.2022117 C29.866046,41.4306477 29.7359513,36.9509005 29.7359513,36.9509005 C26.0654198,38.8120063 26.0189573,42.2022117 26.0189573,42.2022117 Z M14.2918416,22.3098894 C10.7188812,20.2009479 7.88467332,22.0012638 7.88467332,22.0012638 C10.6259563,24.8350079 14.3011341,22.3098894 14.3011341,22.3098894 L14.2918416,22.3098894 Z M16.6474865,29.8805687 C13.0745261,27.7716272 10.2403182,29.5719431 10.2403182,29.5719431 C12.9816012,32.4056872 16.6567789,29.8805687 16.6567789,29.8805687 L16.6474865,29.8805687 Z M18.7801117,34.6642654 C14.8865606,33.2614218 12.4240521,35.5340284 12.4240521,35.5340284 C15.6299594,37.8206635 18.7894042,34.6642654 18.7894042,34.6642654 L18.7801117,34.6642654 Z M14.4451676,8.15519747 C13.3390935,9.35739835 12.9673977,11.0685377 13.4741029,12.6255924 C15.7972241,11.0310269 14.4544601,8.15519747 14.4544601,8.15519747 L14.4451676,8.15519747 Z M16.5220379,20.4487836 C19.1239336,20.1214534 19.8487475,17.2082148 19.8487475,17.2082148 C18.3196121,17.7389194 17.104042,18.9263307 16.5313304,20.4487836 L16.5220379,20.4487836 Z M27.0550694,35.0944708 C25.5217075,35.6216781 24.3019634,36.8098384 23.7283599,38.3350395 C26.3395481,38.0077093 27.0643619,35.0944708 27.0643619,35.0944708 L27.0550694,35.0944708 Z M14.6960647,25.1202528 C13.0980135,24.8465422 11.4617913,25.3023552 10.2310257,26.3641074 C12.6842417,27.3320695 14.7053571,25.1202528 14.7053571,25.1202528 L14.6960647,25.1202528 Z M20.6711324,38.5735229 C19.0723116,38.2997462 17.4354433,38.7574534 16.2060934,39.8220537 C18.6546632,40.7853397 20.6804248,38.5735229 20.6804248,38.5735229 L20.6711324,38.5735229 Z M13.5205653,19.1721959 C12.0727396,18.425022 10.3692298,18.3667299 8.87432295,19.013207 C10.9372546,20.687267 13.5205653,19.1721959 13.5205653,19.1721959 Z M12.786459,16.6844866 C11.8285876,15.3685079 10.3388163,14.5494292 8.72099695,14.4492891 C9.80357143,16.8668562 12.786459,16.698515 12.786459,16.698515 L12.786459,16.6844866 Z M15.6020819,16.5301738 C17.4605789,17.1848341 18.5245684,15.2395577 18.5245684,15.2395577 C17.3873793,15.1086691 16.2689561,15.607951 15.6020819,16.5442022 L15.6020819,16.5301738 Z M15.5091571,13.256872 C17.3258378,12.5320695 16.8705061,10.3529858 16.8705061,10.3529858 C15.9210941,11.0065794 15.3996438,12.1278381 15.5091571,13.2802528 L15.5091571,13.256872 Z M12.8793839,13.6496682 C12.2982834,12.6614527 11.2322984,12.0660234 10.0916385,12.0925118 C10.6863575,13.9863507 12.8793839,13.673049 12.8793839,13.673049 L12.8793839,13.6496682 Z" id="Shape" fill="url(#linearGradient-10)"></path>
                </g>
                <path d="M149.2891,50.1217792 L149.2891,117.953824 C149.278945,118.772816 148.617505,119.43128 147.805111,119.43128 L57.7873059,119.43128 C56.9749116,119.43128 56.3134725,118.772816 56.3033175,117.953824 L56.3033175,50.1217792 C56.3058635,49.2965398 56.9687786,48.6281885 57.7873059,48.6255924 L147.791199,48.6255924 C148.186809,48.6231346 148.567129,48.7795173 148.848176,49.0602365 C149.129222,49.3409557 149.287875,49.722919 149.2891,50.1217792 Z" id="Path" stroke="#2F6884" fill="#E3EFF9" fill-rule="nonzero"></path>
                <path d="M149.2891,50.1448702 L149.2891,61.4218009 L56.3033175,61.4218009 L56.3033175,50.1592479 C56.3058635,49.3133429 56.9687786,48.6282548 57.7873059,48.6255924 L147.791199,48.6255924 C148.609764,48.6202874 149.278915,49.2989741 149.2891,50.1448702 Z" id="Path" fill="#2F6884" fill-rule="nonzero"></path>
                <path d="M63.9810427,54.6016228 C63.9785716,55.5433242 63.2136091,56.3049573 62.2719059,56.3033175 C61.3302027,56.3016725 60.5679015,55.5373758 60.5687204,54.5956715 C60.5695406,53.6539672 61.333171,52.8909953 62.2748757,52.8909953 C62.7281527,52.8909953 63.1627997,53.0713624 63.4828956,53.3922964 C63.8029916,53.7132303 63.9822234,54.1483473 63.9810427,54.6016228 Z" id="Path" fill="#FFFFFF" fill-rule="nonzero"></path>
                <path d="M71.6587678,54.6016228 C71.6562967,55.5433242 70.8913342,56.3049573 69.949631,56.3033175 C69.0079278,56.3016725 68.2456266,55.5373758 68.2464455,54.5956715 C68.2472657,53.6539672 69.0108961,52.8909953 69.9526008,52.8909953 C70.4058778,52.8909953 70.8405248,53.0713624 71.1606208,53.3922964 C71.4807167,53.7132303 71.6599485,54.1483473 71.6587678,54.6016228 L71.6587678,54.6016228 Z" id="Path" fill="#FFFFFF" fill-rule="nonzero"></path>
                <path d="M79.3364929,54.6016228 C79.3340218,55.5433242 78.5690593,56.3049573 77.6273561,56.3033175 C76.6856529,56.3016725 75.9233517,55.5373758 75.9241706,54.5956715 C75.9249909,53.6539672 76.6886213,52.8909953 77.6303259,52.8909953 C78.0836029,52.8909953 78.5182499,53.0713624 78.8383459,53.3922964 C79.1584418,53.7132303 79.3376736,54.1483473 79.3364929,54.6016228 Z" id="Path" fill="#FFFFFF" fill-rule="nonzero"></path>
                <rect id="Rectangle" fill="url(#linearGradient-11)" fill-rule="nonzero" x="71.6587678" y="102.369668" width="62.2748815" height="9.38388626"></rect>
                <circle id="Oval" fill="url(#linearGradient-12)" fill-rule="nonzero" cx="103.222749" cy="72.5118483" r="9.38388626"></circle>
                <path d="M106.635071,73.3649289 L99.8104265,73.3649289 L99.8104265,69.8680036 C99.8104265,68.030155 101.338175,66.5402844 103.222749,66.5402844 C105.107322,66.5402844 106.635071,68.030155 106.635071,69.8680036 L106.635071,73.3649289 Z M100.947867,72.2697897 L105.49763,72.2697897 L105.49763,69.8821041 C105.49763,68.6568717 104.479131,67.6636246 103.222749,67.6636246 C101.966366,67.6636246 100.947867,68.6568717 100.947867,69.8821041 L100.947867,72.2697897 Z" id="Shape" fill="#0F5F63" fill-rule="nonzero"></path>
                <path d="M106.978655,70.8057077 L98.6136021,70.8057077 C98.4789413,70.8044881 98.3493747,70.8578334 98.2537213,70.9538992 C98.1580679,71.049965 98.1042654,71.1807851 98.1042654,71.3172616 L98.1042654,77.9718379 C98.1042654,78.1083144 98.1580679,78.2391345 98.2537213,78.3352003 C98.3493747,78.4312661 98.4789413,78.4846114 98.6136021,78.4833919 L106.978655,78.4833919 C107.258171,78.4833919 107.485473,78.2551002 107.488074,77.9718379 L107.488074,71.3312125 C107.490454,71.1927079 107.437881,71.0590127 107.342094,70.9601887 C107.246307,70.8613646 107.115344,70.8057077 106.978655,70.8057077 Z M102.390036,74.5817707 L102.390036,74.0097841 C102.390036,73.7966161 102.56055,73.6238094 102.770891,73.6238094 C102.981232,73.6238094 103.151746,73.7966161 103.151746,74.0097841 L103.151746,74.586421 C103.395224,74.7232781 103.546299,74.9832025 103.546368,75.2653645 C103.542455,75.6692643 103.23707,76.0043896 102.840097,76.0404173 C102.443124,76.076445 102.083844,75.801642 102.00918,75.4048735 C101.954052,75.0721258 102.117234,74.7413743 102.412979,74.586421 L102.390036,74.5817707 Z" id="Shape" fill="#5FC0D8" fill-rule="nonzero"></path>
                <rect id="Rectangle" stroke="#AFD7F3" fill="#FFFFFF" fill-rule="nonzero" stroke-linecap="round" stroke-linejoin="round" x="72.5118483" y="87.014218" width="8.53080569" height="9.38388626"></rect>
                <rect id="Rectangle" stroke="#AFD7F3" fill="#FFFFFF" fill-rule="nonzero" stroke-linecap="round" stroke-linejoin="round" x="82.7488152" y="87.014218" width="8.53080569" height="9.38388626"></rect>
                <rect id="Rectangle" stroke="#AFD7F3" fill="#FFFFFF" fill-rule="nonzero" stroke-linecap="round" stroke-linejoin="round" x="93.8388626" y="87.014218" width="8.53080569" height="9.38388626"></rect>
                <rect id="Rectangle" stroke="#AFD7F3" fill="#FFFFFF" fill-rule="nonzero" stroke-linecap="round" stroke-linejoin="round" x="104.075829" y="87.014218" width="8.53080569" height="9.38388626"></rect>
                <rect id="Rectangle" stroke="#AFD7F3" fill="#FFFFFF" fill-rule="nonzero" stroke-linecap="round" stroke-linejoin="round" x="115.165877" y="87.014218" width="8.53080569" height="9.38388626"></rect>
                <rect id="Rectangle" stroke="#AFD7F3" fill="#FFFFFF" fill-rule="nonzero" stroke-linecap="round" stroke-linejoin="round" x="125.402844" y="87.014218" width="8.53080569" height="9.38388626"></rect>
                <polygon id="Path" fill="#0F3163" fill-rule="nonzero" points="76.6303318 91.3019236 78.0521327 90.293653 78.4739336 91.0370783 76.8530806 91.7015147 78.4834123 92.3520119 78.042654 93.1186693 76.6208531 92.1103987 76.8056872 93.8388626 75.943128 93.8388626 76.1137441 92.1103987 74.6919431 93.1279621 74.2180095 92.3520119 75.8388626 91.6875755 74.2511848 91.055664 74.6824645 90.293653 76.1042654 91.3112164 75.9194313 89.5734597 76.8056872 89.5734597"></polygon>
                <polygon id="Path" fill="#0F3163" fill-rule="nonzero" points="87.7224358 91.3019236 89.1426588 90.293653 89.5639916 91.0370783 87.9449374 91.7015147 89.5734597 92.3520119 89.1331906 93.1186693 87.7129677 92.1103987 87.8975967 93.8388626 87.0265266 93.8388626 87.2016874 92.1103987 85.7814645 93.1279621 85.3080569 92.3520119 86.927111 91.6875755 85.3459295 91.055664 85.7767304 90.293653 87.1969534 91.3112164 87.0123244 89.5734597 87.8975967 89.5734597"></polygon>
                <line x1="97.2511848" y1="91.7061611" x2="98.957346" y2="91.7061611" id="Path" stroke="#AFD7F3" stroke-linecap="round" stroke-linejoin="round"></line>
                <line x1="107.488152" y1="91.7061611" x2="109.194313" y2="91.7061611" id="Path" stroke="#AFD7F3" stroke-linecap="round" stroke-linejoin="round"></line>
                <line x1="118.578199" y1="91.7061611" x2="120.28436" y2="91.7061611" id="Path" stroke="#AFD7F3" stroke-linecap="round" stroke-linejoin="round"></line>
                <line x1="128.815166" y1="91.7061611" x2="130.521327" y2="91.7061611" id="Path" stroke="#AFD7F3" stroke-linecap="round" stroke-linejoin="round"></line>
                <polygon id="Rectangle" fill="url(#linearGradient-13)" fill-rule="nonzero" transform="translate(32.130635, 45.318302) rotate(-10.190000) translate(-32.130635, -45.318302) " points="15.2717449 34.9227652 48.9944757 34.9147285 48.9895252 55.7138386 15.2667945 55.7218754"></polygon>
                <polygon id="Path" fill="#D1D3D4" fill-rule="nonzero" opacity="0.5" style="mix-blend-mode: multiply;" points="31.1145428 41.8009479 17.0616114 58.8625592 50.3317536 52.959484"></polygon>
                <polygon id="Path" fill="url(#linearGradient-14)" fill-rule="nonzero" points="32.7685618 49.478673 13.6492891 38.3555569 46.9194313 32.4170616"></polygon>
                <path d="M149.926004,74.2180095 L149.789719,74.1291786 C134.281411,67.663228 133.938349,44.6747399 133.933649,43.7396784 L133.933649,43.2207192 L149.911905,37.6103499 L150.14218,37.535545 L166.350711,43.2207192 L166.350711,43.7209772 C166.350711,44.6981165 165.98885,67.7427083 150.410051,74.1619058 L150.278465,74.2180095 L149.926004,74.2180095 Z" id="Path" fill="#5FC0D8" fill-rule="nonzero"></path>
                <path d="M149.717951,38.9946214 L164.968884,44.3476366 C164.968884,44.3476366 164.793267,67.4719258 149.717951,73.6902607 L149.717951,73.6902607 C149.704372,73.6862971 149.689936,73.6862971 149.676357,73.6902607 C134.647256,67.4535147 134.47626,44.3706504 134.47626,44.3706504 L149.676357,39.0360463 L149.727194,39.0360463 M149.727194,37.5769699 L149.265044,37.7288611 L149.218829,37.7288611 L134.004868,43.049657 L133.080569,43.3764533 L133.080569,44.3614449 C133.214976,48.6606778 133.893533,52.9258395 135.100162,57.0558695 C137.725171,65.9990411 142.540769,72.1667456 149.038591,74.9007878 L149.292773,75.07109 L149.985997,75.07109 L150.244801,74.9652265 C156.811945,72.2541981 161.67838,66.0680826 164.321875,57.0742806 C165.531483,52.9383315 166.213128,48.667094 166.350711,44.3614449 L166.350711,43.3764533 L165.426412,43.049657 L150.175479,37.692039 L149.713329,37.535545 L149.727194,37.5769699 Z" id="Shape" fill="#D3D3EF" fill-rule="nonzero"></path>
                <path d="M149.430189,59.7156398 L143.709396,55.100706 C143.41116,54.8602623 143.267718,54.4836293 143.333104,54.112681 C143.39849,53.7417328 143.662769,53.4328252 144.026391,53.3023206 C144.390012,53.1718161 144.797733,53.2395415 145.095969,53.4799852 L149.317,56.8862459 L156.862976,49.7486648 C157.296637,49.3701359 157.960998,49.3922105 158.366983,49.7986382 C158.772968,50.2050658 158.775259,50.8503706 158.372171,51.2595062 L149.430189,59.7156398 Z" id="Path" fill="#FEFEFE" fill-rule="nonzero"></path>
                <path d="M150.14218,38.3886256 L150.14218,73.3649289 C134.959473,67.0735588 134.78673,43.7885248 134.78673,43.7885248 L150.14218,38.3886256 Z" id="Path" fill="#D1D3D4" fill-rule="nonzero" style="mix-blend-mode: multiply;"></path>
                <path d="M31.4899957,112.674162 C30.6519484,112.502667 29.7766469,112.660984 29.0631324,113.113112 C28.3496179,113.56524 27.8585334,114.272751 27.7015501,115.07476 C27.3220543,116.890684 27.2098382,118.748024 27.3681283,120.593377 C27.7933619,126.4891 26.6577947,133.470151 28.8177886,134.578473 C30.9777824,135.686796 33.4325405,132.279049 34.1332096,126.553484 C34.7710602,121.361385 36.7425982,115.180534 35.3315955,114.067612 C34.6212619,113.529547 32.963817,113.028273 31.4899957,112.674162 Z" id="Path" fill="#F2BC97" fill-rule="nonzero"></path>
                <path d="M37.2451708,112.61074 C36.447265,112.568221 35.6664856,112.857425 35.0806882,113.412474 C34.4948907,113.967523 34.1539599,114.741151 34.1355573,115.557131 C34.071149,117.416154 34.2592137,119.275327 34.6943864,121.081615 C36.0058321,126.840889 36.0463923,133.90302 38.205095,134.685656 C40.3637977,135.468291 41.9005777,131.628775 41.65271,125.841878 C41.422869,120.612034 42.4684202,114.309519 40.9992405,113.41179 C40.2331038,112.979039 38.6287235,112.739645 37.2451708,112.61074 Z" id="Path" fill="#F2BC97" fill-rule="nonzero"></path>
                <path d="M31.0679692,131.67909 C26.2836091,128.515798 26.9301442,150.889155 28.272948,156.91022 C29.6157518,162.931285 30.9685022,157.934882 31.7542911,148.275796 C32.54008,138.616711 32.9578412,132.919965 31.0679692,131.67909 Z" id="Path" fill="#F2BC97" fill-rule="nonzero"></path>
                <path d="M40.2538466,132.485655 C35.9659885,129.58973 37.6811317,151.887407 39.1347156,157.829694 C40.5882995,163.77198 41.510189,158.708814 41.7074305,149.01969 C41.904672,139.330567 41.9389748,133.62804 40.2538466,132.485655 Z" id="Path" fill="#F2BC97" fill-rule="nonzero"></path>
                <polygon id="Path" fill="#F2BC97" fill-rule="nonzero" points="38.8243454 157.723178 38.3886256 155.260664 41.8009479 155.377542 41.727512 157.819905"></polygon>
                <polygon id="Path" fill="#F2BC97" fill-rule="nonzero" points="27.4958223 158.32479 27.2985782 155.260664 30.7109005 155.673525 30.4051722 158.672986"></polygon>
                <path d="M48.8255771,94.6043834 C48.9439717,94.2657501 49.1780025,93.9833462 49.4837617,93.8101549 C52.037703,92.3748021 63.3890685,85.198038 64.7332482,86.2697681 C66.2072107,87.4754645 51.0550613,97.699961 50.1604866,97.2358636 C49.3400735,96.8004732 48.1488522,96.5181872 48.8255771,94.6043834 Z" id="Path" fill="#F2BC97" fill-rule="nonzero"></path>
                <path d="M63.2843208,85.2243838 C63.1495592,85.4080167 63.0553552,85.6177518 63.007853,85.8399098 L63.5947407,85.47925 L64.3998925,85.0801199 L64.3998925,85.0801199 C65.1847595,85.2683792 65.724158,85.9827668 65.6852252,86.782434 C65.6852252,86.782434 65.6852252,86.782434 65.6852252,86.782434 L65.651273,86.8160956 L65.3505537,87.114241 C64.9254203,87.541375 64.4171705,87.8783988 63.8566576,88.1048531 L62.3627615,88.7203791 L61.5382084,87.0469178 L61.4218009,86.8016692 L61.4218009,86.8016692 L61.8534787,85.8062482 C61.9635949,85.5576628 62.1294843,85.3372736 62.3385099,85.1618694 L63.240668,84.4549763 C63.240668,84.4549763 63.5462376,84.9262384 63.2843208,85.2243838 Z" id="Path" fill="#F2BC97" fill-rule="nonzero"></path>
                <path d="M37.7159811,83.5941099 C37.3834163,84.331099 37.5175875,85.188579 38.0605024,85.7959238 C40.4003763,88.5889225 48.4057118,97.7546131 50.6403153,96.2277738 C53.2672903,94.4309447 45.6686814,86.6943384 43.1756869,84.7252743 C41.108559,83.0867151 38.5820694,81.8531407 37.7159811,83.5941099 Z" id="Path" fill="#F2BC97" fill-rule="nonzero"></path>
                <path d="M37.535545,88.0438262 L38.3256756,88.7766895 L45.2205058,94.6919431 L46.4339206,93.3689821 L46.4339206,93.3689821 L48.6255924,90.9038966 C48.6255924,90.9038966 47.6849607,89.6428006 44.3551246,86.0879378 C41.8812633,83.4420159 39.7507326,82.8614359 38.8195073,82.7567411 C38.7711387,82.7499638 38.7220779,82.7499638 38.6737093,82.7567411 C38.5563623,82.7461732 38.4383195,82.7461732 38.3209725,82.7567411 L38.038783,84.6935941 L37.535545,88.0438262 Z" id="Path" fill="url(#linearGradient-15)" fill-rule="nonzero"></path>
                <path d="M40.4997441,78.5210355 C40.2280215,80.1892412 38.1162125,80.3901736 38.1162125,80.3901736 L37.8873935,82.6658492 L36.7146959,86.1611374 L33.2204386,84.2546166 L33.2585751,82.1191263 L33.5445989,79.8387778 C33.5445989,79.8387778 30.6223891,76.2733969 30.7129633,74.0865053 C30.8035375,71.8996138 32.6197886,68.2734859 37.4631248,69.2688019 C39.8800259,69.7594507 40.714262,71.6472801 40.9001774,73.6192208 C40.9325895,73.9406607 40.9484997,74.2634942 40.9478673,74.5864998 C40.9170818,75.9083949 40.7671298,77.2250342 40.4997441,78.5210355 Z" id="Path" fill="#F2BC97" fill-rule="nonzero"></path>
                <path d="M38.3886256,80.2231422 L38.3345571,81.0079763 C37.7518069,81.0268468 37.1777794,80.8045416 36.6824645,80.3681659 C37.2532037,80.4073186 37.825251,80.3586946 38.3886256,80.2231422 L38.3886256,80.2231422 Z" id="Path" fill="#C6AB87" fill-rule="nonzero"></path>
                <path d="M41.0549051,72.9928324 C41.0549051,72.9928324 35.7530513,72.2836712 35.4788976,73.7348687 C35.2047439,75.1860661 35.6694112,76.3507812 35.2837374,76.4916741 C34.8980635,76.6325671 33.8897355,74.3407084 33.1695012,75.1954589 C32.4492669,76.0502095 34.024489,77.8818179 33.5319417,79.2954439 C33.3553681,79.8167478 30.7439379,75.2424233 30.7114112,72.9740467 C30.6788845,70.7056701 32.1983466,68.6909009 35.729818,68.4325972 C36.7892594,68.3574542 39.7956568,67.0236676 40.6367046,67.4933108 C42.5883072,68.6251509 41.6217992,71.8562959 41.0549051,72.9928324 Z" id="Path" fill="#0F3163" fill-rule="nonzero"></path>
                <path d="M42.5311064,133.967058 C42.1648323,142.481666 41.8502122,156.966825 41.8502122,156.966825 L37.8305889,156.966825 C37.8305889,156.966825 35.7926023,143.720837 36.6942,134.750928 L34.9802251,123.17125 C34.9802251,123.17125 33.8438363,132.864008 33.5292162,136.0652 C33.2239878,139.177209 31.4348797,156.88703 31.4348797,156.88703 L27.3870814,156.910499 C27.3870814,156.910499 25.3490948,144.654909 27.2696859,134.779091 C26.7319204,130.13094 26.5466896,125.448786 26.7155789,120.772703 C26.8517578,118.050281 26.9409784,115.689285 27.7580514,113.459716 L42.3150986,113.539511 C42.3150986,113.539511 42.9020763,125.452451 42.5311064,133.967058 Z" id="Path" fill="#253E8E" fill-rule="nonzero"></path>
                <path d="M27.2985782,113.459716 L42.6540284,113.218665 C42.6540284,113.218665 42.2992821,108.694328 42.3776027,103.377304 C42.3776027,102.658787 42.3776027,101.917093 42.4098524,101.166127 L42.4098524,100.410526 C42.4098524,98.9039583 42.4374949,97.3742131 42.4467091,95.9047306 C42.4467091,94.9544343 42.4467091,94.027316 42.4467091,93.1233757 C42.4467091,89.6049617 42.4467091,86.707717 42.3038892,85.618353 C42.2388891,84.6869211 41.8296334,83.8137341 41.1567223,83.1707607 C41.1190788,83.1369781 41.0790452,83.1059926 41.0369378,83.0780489 C40.571225,82.6980713 40.0335897,82.4173395 39.456704,82.2529136 C39.0082859,82.1134885 38.5435926,82.034002 38.0745752,82.0164984 C38.0844794,82.4477169 37.9140823,82.8633266 37.6048889,83.1620939 C37.2956956,83.4608612 36.8760869,83.6153622 36.4482704,83.5879639 C34.7897159,83.5879639 33.5642285,81.8957346 33.5642285,81.8957346 C32.9000337,81.8915389 32.2368561,81.948956 31.5831773,82.0674899 C31.0417828,82.2104211 30.5257673,82.4371832 30.0536215,82.7396507 C29.5045199,82.9885604 29.0594812,83.4232297 28.7958843,83.9680825 C28.3858528,85.1177091 28.4134954,91.2552323 28.5010302,96.7205947 L28.5010302,96.785493 C28.5424941,99.3072548 28.6116005,101.421084 28.6438502,102.348203 C28.7129566,105.231541 27.2985782,113.459716 27.2985782,113.459716 Z" id="Path" fill="url(#linearGradient-16)" fill-rule="nonzero"></path>
                <path d="M29.788952,83.8882352 C29.1767881,84.367247 28.8886343,85.1621527 29.0480499,85.932099 C29.6639805,89.3870937 31.9134663,100.953815 34.4486011,100.657933 C37.4255991,100.33929 34.8279786,90.2155641 33.7166255,87.3796462 C32.7793398,85.0171399 31.3019989,82.7957468 29.788952,83.8882352 Z" id="Path" fill="#F2BC97" fill-rule="nonzero"></path>
                <path d="M28.1516588,85.5289848 C28.1516588,87.2202484 28.472577,90.3866697 30.2035904,95.5450237 L35.8293839,94.5255676 C35.8293839,94.5255676 33.9622234,84.8336876 32.5910274,83.4102074 C31.8713926,82.6679306 30.5439582,82.6115551 29.6201027,82.9404119 C28.6184489,83.3303422 28.1565212,84.4954349 28.1516588,85.5289848 Z" id="Path" fill="url(#linearGradient-17)" fill-rule="nonzero"></path>
                <path d="M33.2789834,99.3355856 C33.3012554,98.9697545 33.4571345,98.6248084 33.7170595,98.3661634 C35.8744669,96.2296697 46.8169501,85.51426 48.4609134,86.1919144 C50.2838755,86.9401578 36.3926215,101.721494 35.3657333,101.514433 C34.423634,101.340313 33.1518,101.415608 33.2789834,99.3355856 Z" id="Path" fill="#F2BC97" fill-rule="nonzero"></path>
                <path d="M50.3230474,82.1776715 L48.8103986,87.6233 C48.7841961,87.7175955 48.6993635,87.7845104 48.6003085,87.7890165 L46.2986545,87.8672986 C46.2266451,87.8683694 46.1583154,87.835969 46.1142279,87.7798208 C46.0701404,87.7236727 46.0554429,87.6503325 46.0745583,87.5818709 L47.6292252,82.2237038 C47.6581065,82.1356931 47.736712,82.0726086 47.829978,82.0625905 L50.0849453,81.896874 C50.1589472,81.8894418 50.2318667,81.9186992 50.2795787,81.9749666 C50.3272907,82.0312341 50.3435762,82.1071775 50.3230474,82.1776715 Z" id="Path" fill="url(#linearGradient-18)" fill-rule="nonzero"></path>
                <path d="M46.7952795,85.0663507 C46.7429758,85.3154812 46.7052543,85.5670304 46.6822788,85.8199052 L47.2370094,85.3744076 L47.6016934,85.1327014 C47.9142989,84.9157874 48.3310951,84.8756894 48.6854725,85.028436 C49.126997,85.2870731 49.4149449,85.7188173 49.4662044,86.1990521 C49.5097498,86.4286019 49.4379456,86.6639764 49.2710214,86.8388626 C48.9038486,87.2405785 48.4746488,87.5902911 47.9971957,87.8767773 L46.528187,88.7203791 L45.3776348,87.2274882 L45.2132701,87.0094787 L45.2132701,87.0094787 L45.485499,85.971564 C45.5637874,85.7113128 45.7061713,85.4712655 45.9015469,85.2701422 L46.892871,84.4549763 C46.9105223,84.6629445 46.8771659,84.8719098 46.7952795,85.0663507 L46.7952795,85.0663507 Z" id="Path" fill="#F2BC97" fill-rule="nonzero"></path>
                <path d="M41.235267,157.936805 C42.1349936,158.997247 43.1498158,159.946214 44.2595313,160.764815 C46.3302409,162.365575 46.867784,162.006617 46.9192012,162.612965 C46.9706183,163.219314 38.3886256,162.792444 38.3886256,162.792444 L38.4634142,157.820386 C38.4634142,157.820386 41.2305927,157.805834 41.235267,157.936805 Z" id="Path" fill="#253E8E" fill-rule="nonzero"></path>
                <path d="M30.9983001,157.936805 C31.8980268,158.997247 32.9128489,159.946214 34.0225645,160.764815 C36.0979483,162.365575 36.6308172,162.006617 36.6822343,162.612965 C36.7336515,163.219314 28.1516588,162.792444 28.1516588,162.792444 L28.2264474,157.820386 C28.2264474,157.820386 30.9983001,157.805834 30.9983001,157.936805 Z" id="Path" fill="#253E8E" fill-rule="nonzero"></path>
                <polygon id="Path" fill="#FFFFFF" fill-rule="nonzero" points="80.3999792 37.5839468 81.5499193 36.5755773 81.8874017 37.3167288 80.5791365 37.9772109 81.8957346 38.6225673 81.5374199 39.3838863 80.3999792 38.3755168 80.5499714 40.0947867 79.8458414 40.0947867 79.9875007 38.3755168 78.8500599 39.3838863 78.4834123 38.6074418 79.7916775 37.9469598 78.4834123 37.311687 78.8292276 36.5503681 79.9958336 37.5587375 79.8458414 35.8293839 80.5624707 35.8293839"></polygon>
                <polygon id="Path" fill="#FFFFFF" fill-rule="nonzero" points="87.2246237 37.5839468 88.3745638 36.5755773 88.7120462 37.3167288 87.4037811 37.9772109 88.7203791 38.6225673 88.3620645 39.3838863 87.2246237 38.3755168 87.3746159 40.0947867 86.6704859 40.0947867 86.8121452 38.3755168 85.6747044 39.3838863 85.3080569 38.6074418 86.6163221 37.9469598 85.3080569 37.311687 85.6538722 36.5503681 86.8204781 37.5587375 86.6704859 35.8293839 87.3871153 35.8293839"></polygon>
                <polygon id="Path" fill="#FFFFFF" fill-rule="nonzero" points="93.1961877 37.5789049 94.3419614 36.5705354 94.6836102 37.311687 93.375345 37.972169 94.6919431 38.6175255 94.3502943 39.3838863 93.2128535 38.3755168 93.3628457 40.0947867 92.6420499 40.0947867 92.7837092 38.3755168 91.6462684 39.3838863 91.2796209 38.6074418 92.587886 37.9469598 91.2796209 37.311687 91.6254362 36.5503681 92.7920421 37.5587375 92.6420499 35.8293839 93.3586792 35.8293839"></polygon>
                <polygon id="Path" fill="#FFFFFF" fill-rule="nonzero" points="100.016666 37.5789049 101.162439 36.5705354 101.516588 37.3167288 100.208322 37.9772109 101.516588 38.6225673 101.158273 39.3838863 100.020832 38.3755168 100.170824 40.0947867 99.4666944 40.0947867 99.6083537 38.3755168 98.470913 39.3838863 98.1042654 38.6074418 99.4083641 37.9469598 98.1042654 37.311687 98.4500807 36.5503681 99.6166866 37.5587375 99.4666944 35.8293839 100.179157 35.8293839"></polygon>
                <polygon id="Path" fill="#FFFFFF" fill-rule="nonzero" points="66.7368274 37.5699516 67.8909953 36.5579936 68.2297184 37.3017827 66.925007 37.969675 68.2464455 38.6173281 67.8868135 39.3813564 66.745191 38.3693984 66.8957346 40.0947867 66.1890159 40.0947867 66.331196 38.3693984 65.1895735 39.3813564 64.8341232 38.6173281 66.1471982 37.9544956 64.8341232 37.3169621 65.1853917 36.5529338 66.3521048 37.5648918 66.2015612 35.8293839 66.9208252 35.8293839"></polygon>
                <polygon id="Path" fill="#FFFFFF" fill-rule="nonzero" points="73.5753346 37.5839468 74.7252747 36.5755773 75.0627571 37.3167288 73.754492 37.9772109 75.07109 38.6225673 74.7127754 39.3838863 73.5753346 38.3755168 73.7253268 40.0947867 73.0211968 40.0947867 73.1628561 38.3755168 72.0254153 39.3838863 71.6587678 38.6074418 72.967033 37.9469598 71.6587678 37.311687 72.0045831 36.5503681 73.171189 37.5587375 73.0211968 35.8293839 73.7378262 35.8293839"></polygon>
                <ellipse id="Oval" fill="url(#linearGradient-19)" fill-rule="nonzero" opacity="0.5" style="mix-blend-mode: multiply;" cx="135.63981" cy="163.791469" rx="14.5023697" ry="1.70616114"></ellipse>
                <g id="Group" transform="translate(120.284360, 108.341232)" fill-rule="nonzero">
                    <path d="M32.7239625,48.3384699 C32.6396948,48.394042 32.5554271,48.4496141 32.4664779,48.5005552 C30.6594035,49.6536764 28.6697492,50.8716317 26.8486302,52.1358971 L26.6005086,52.3118754 C25.8982777,52.8073934 25.233499,53.3168043 24.6248989,53.8262153 C24.5640388,53.8725254 24.5078604,53.9234665 24.4516819,53.9744076 C22.6118368,55.5443196 21.3244134,57.1651726 21.2495087,58.8045498 C21.1090625,61.9675288 18.1596925,65.3389032 14.7515316,64.695193 L14.5549069,64.6488829 C11.3012369,63.8893974 7.6870882,59.4158429 5.72552306,47.5975085 L5.56635071,47.1344076 C5.54294301,47.0649425 5.51485377,46.9908463 5.48676454,46.9028571 C4.94370593,45.3607312 3.61414865,41.3734326 2.40631141,36.9045091 C2.37354063,36.7933649 2.34545139,36.6775897 2.31736215,36.5664455 C1.60097271,33.9304571 1.03208214,31.2573938 0.613281702,28.5594313 C0.613281702,28.4807041 0.589874003,28.401977 0.580510924,28.3232498 C0.00468153971,24.1553419 0.16385389,20.7006093 1.94752052,19.7697766 C2.22297951,19.6346925 2.51159465,19.52763 2.80892382,19.450237 C2.87315693,19.4274505 2.93884148,19.4088861 3.00554849,19.3946649 C5.4118599,18.7926337 7.21893423,20.7052404 9.03537163,22.636371 L9.09623165,22.6965741 L9.26944862,22.8771835 C10.8564906,24.5767637 12.4528956,26.1976168 14.4191423,26.0216385 C15.6972026,25.9058632 16.7599121,23.8219093 17.7430355,20.8765877 L17.808577,20.6774543 C19.1194082,16.7272038 20.3366085,11.3181855 21.8347012,7.02060934 L21.9049243,6.83536899 C23.281297,2.94069059 24.9104728,0.0092620176 27.054618,0 L27.2606057,0 C31.5910299,0.365849695 32.4617963,7.56243737 31.9936424,16.1483277 C31.9936424,16.2270548 31.9936424,16.310413 31.9936424,16.3891401 C31.7455207,20.7793365 31.1509652,25.5214895 30.4955496,29.8885308 C30.4487343,30.1941774 30.4066004,30.4859309 30.3738296,30.7730535 C30.3738296,30.8564116 30.3504219,30.9444008 30.3457404,31.023128 C30.0742111,33.4497766 30.2099757,35.1910359 30.6032251,36.5108734 C30.6032251,36.5757075 30.6453589,36.6405416 30.6640851,36.7053758 C32.2370824,41.4104807 37.3399607,39.8174137 38.1873194,42.7534733 C38.1873194,42.8044144 38.1873194,42.8507244 38.2200902,42.9016655 C38.235878,42.96717 38.2468305,43.0337232 38.2528609,43.1007989 C38.2528609,44.5919838 35.7903711,46.3702911 32.7239625,48.3384699 Z" id="Path" fill="url(#linearGradient-20)"></path>
                    <path d="M26.8064964,45.1986459 C28.3031867,46.9520316 30.4194206,48.0749112 32.7239625,48.3384699 C32.6396948,48.394042 32.5554271,48.4496141 32.4664779,48.5005552 C30.1715564,48.1872021 28.0803516,47.0296935 26.6098717,45.258849 C25.2054098,45.758998 23.880534,46.296195 22.6446076,46.833392 L22.6446076,46.8704401 L22.6118368,46.8704401 C18.8010635,48.5237102 15.9874581,50.1121462 15.7486996,50.2418145 C15.439718,52.8027624 15.2290487,55.2849831 15.0886025,57.5124983 C15.9634851,56.8373291 16.881405,56.2185814 17.8366663,55.6600948 C18.3048203,54.9098714 20.8515779,51.55239 26.8907641,52.1636831 L26.6426425,52.3396615 C21.5444457,51.8997156 19.0725928,54.3541503 18.2486418,55.4239133 C20.1914808,54.3309953 22.7476014,53.3816385 24.6670327,53.8540014 C24.6061727,53.9003114 24.5499942,53.9512525 24.4938157,54.0021936 C22.5275691,53.5390928 19.9339961,54.6736899 17.9677494,55.8314421 L17.920934,55.9055383 L17.8788001,55.8823832 C16.9010664,56.459936 15.9627387,57.1003938 15.0698763,57.7996209 C14.8872963,60.7125254 14.8217547,63.157698 14.7936655,64.722979 L14.5970408,64.6766689 C14.6298116,62.4167366 14.7562132,58.3646039 15.1822333,53.7289641 L15.1213733,53.7613812 C15.093284,53.7150711 12.5231187,49.1303724 5.60848457,47.1760867 C5.58507687,47.1066215 5.55698763,47.0325254 5.52889839,46.9445362 C7.40419073,47.4586797 9.18953999,48.2519317 10.8237198,49.2970887 C9.94359034,43.9297495 4.73771818,38.92826 2.44844527,36.9461882 C2.41567449,36.835044 2.38758525,36.7192688 2.35949601,36.6081246 C4.56918275,38.4605281 10.2291643,43.7676642 11.0531152,49.449912 C12.6998476,50.5095401 14.1111472,51.8898497 15.2009594,53.5066757 C15.5837389,48.9834122 16.3051139,44.4944589 17.3591492,40.0767502 L17.3591492,40.0767502 C15.2686401,38.3265939 13.2907364,36.4489198 11.4370015,34.4547055 L11.3948676,34.4547055 L11.3948676,34.3945024 C10.0236809,32.9236207 8.73734095,31.3775021 7.54196047,29.7634936 L7.54196047,29.8653758 C7.54196047,29.8653758 7.2985204,29.8653758 6.90995261,29.8653758 C5.69743382,29.8653758 2.96809617,29.7218145 0.664778638,28.5594313 C0.664778638,28.4807041 0.64137094,28.401977 0.63200786,28.3232498 C3.44093168,29.7912796 6.96144954,29.6801354 7.46705583,29.6569804 C5.12628598,26.4615843 3.2068547,22.8725525 2.83233152,19.4317129 C2.89656463,19.4089265 2.96224917,19.390362 3.02895619,19.3761408 C3.57669634,24.5304536 7.64495434,30.0274611 11.3246445,34.0147596 C11.0297075,32.2920244 9.85464108,25.4659174 9.05877933,22.613216 L9.11963935,22.6734191 L9.29285632,22.8540284 C10.1448965,25.9290183 11.4042307,33.2645362 11.5727662,34.2879892 C13.4015103,36.2604352 15.3544865,38.1165407 17.4200092,39.8451997 C17.7664432,38.5068382 18.155011,37.2147867 18.5857126,36.0014624 C19.3300774,33.9175085 20.1446654,31.8335545 20.9264825,29.7820176 C21.2401456,28.9808531 21.5491273,28.1704265 21.8627904,27.36 C21.8300197,24.3729993 19.2832621,22.0065538 17.7711247,20.8765877 L17.8366663,20.6774543 C19.2973067,21.7750034 21.7691596,24.0303047 22.050052,26.9154232 C23.8664894,22.1408531 25.579933,17.2366148 26.5209224,11.9665267 C26.4038839,11.563629 25.1773205,7.58096141 21.876835,7.02060934 L21.9470581,6.83536899 C24.8636574,7.34477996 26.1978962,10.4244008 26.5958271,11.5451049 C27.2624899,7.73399271 27.4355399,3.85438443 27.1107964,1.31621187e-14 L27.3167842,1.31621187e-14 C27.9113397,6.9465132 26.7784071,13.170589 25.0087851,19.0241842 C27.4682967,18.3524533 29.8358831,17.3867152 32.0591839,16.1483277 C32.0591839,16.2270548 32.0591839,16.310413 32.0591839,16.3891401 C29.8146713,17.6210764 27.4287331,18.5819423 24.9526066,19.2511036 C24.1005664,22.0297089 23.10808,24.738849 22.0921859,27.4063101 L22.0921859,27.4665132 L22.0032366,27.4665132 C21.6989365,28.2676777 21.3899549,29.0642112 21.0669287,29.8653758 C20.6221824,31.018497 20.1680731,32.1808802 19.7186452,33.3803114 C20.7298578,33.3432634 26.8018148,33.0283548 30.3644665,30.7730535 C30.3644665,30.8564116 30.3410588,30.9444008 30.3363773,31.023128 C26.5911455,33.3015843 20.3459716,33.5562898 19.6437406,33.5794448 C19.3300774,34.4130264 19.0210958,35.246608 18.7074327,36.0755586 C17.2327477,40.1971564 16.3011213,45.2171699 15.7159288,49.99174 C16.3526182,49.6351523 18.9930066,48.1902776 22.457346,46.6898307 C22.9254999,45.763629 26.3945209,39.0903453 30.5751358,36.5016114 C30.5751358,36.5664455 30.6172697,36.6312796 30.6359958,36.6961137 C26.759681,39.1227624 23.4919662,45.1199188 22.7429199,46.5555315 C27.4244596,44.5503047 33.5104612,42.5080298 38.1920009,42.8924035 C38.1968161,42.9586959 38.1968161,43.0252446 38.1920009,43.0915369 C34.8306554,42.8090454 30.6406774,43.8417603 26.8064964,45.1986459 Z" id="Path" fill="url(#linearGradient-21)" opacity="0.5" style="mix-blend-mode: screen;"></path>
                    <path d="M20.1306207,35.4688964 C19.2598544,32.2549763 16.6054213,31.6761002 16.6054213,31.6761002 C16.567969,34.8251862 20.1306207,35.4688964 20.1306207,35.4688964 Z M14.0446191,40.6741503 C15.6269795,40.6741503 15.9453242,38.937522 15.9453242,38.937522 C15.0390544,39.1302879 14.3107067,39.7957615 14.0446191,40.6741503 Z M18.389088,38.4975762 C17.8297973,37.3194947 16.7694383,36.4487944 15.4958964,36.1218687 C16.0061843,38.1687745 18.4078141,38.4975762 18.4078141,38.4975762 L18.389088,38.4975762 Z M8.96983008,31.4908599 C8.43218831,32.2376824 8.34445437,33.2135931 8.74043463,34.0425457 C9.92018264,32.9820447 8.96983008,31.4908599 8.96983008,31.4908599 Z M15.0183794,35.4966825 C13.1223558,36.4460393 13.3611143,38.8310088 13.3611143,38.8310088 C14.3915549,38.015972 14.9994824,36.787759 15.0183794,35.4827894 L15.0183794,35.4966825 Z M12.6776095,32.5884089 C11.6258758,33.3769766 11.0883989,34.667176 11.2731476,35.9597833 C13.3564328,35.0150575 12.6963357,32.5745159 12.6963357,32.5745159 L12.6776095,32.5884089 Z M6.37625708,33.8063643 C5.14491276,33.3449745 3.75769764,33.5769276 2.74806381,34.4130264 C4.62067969,35.6587678 6.37625708,33.8063643 6.37625708,33.8063643 Z M22.2934921,31.8752336 C22.0313259,28.5640623 19.5267021,27.5128233 19.5267021,27.5128233 C18.9227835,30.6109682 22.2981736,31.8798646 22.2981736,31.8798646 L22.2934921,31.8752336 Z M31.010519,19.450237 C30.0508034,20.6959783 31.2773668,22.0019228 31.2773668,22.0019228 C31.6605245,21.1660627 31.5585353,20.1908085 31.010519,19.450237 Z M35.6592879,20.524631 C34.3555737,20.3443923 33.0552926,20.875899 32.2604901,21.9139336 C34.367183,22.6919431 35.6592879,20.533893 35.6592879,20.533893 L35.6592879,20.524631 Z M28.82424,19.5984292 C27.7334412,21.4091537 29.2315339,23.3032363 29.2315339,23.3032363 C29.6511689,22.0781852 29.50209,20.732311 28.82424,19.6262153 L28.82424,19.5984292 Z M27.9253843,24.9148274 C27.7477256,23.6260335 26.9997242,22.4822003 25.884233,21.7935274 C25.7484684,23.9237915 27.9253843,24.9426134 27.9253843,24.9426134 L27.9253843,24.9148274 Z M24.5453127,28.397346 C23.985988,27.2202238 22.925348,26.3509904 21.6521211,26.0262695 C22.1436828,28.1009614 24.5453127,28.425132 24.5453127,28.425132 L24.5453127,28.397346 Z M26.2166224,26.859851 C25.9544561,23.5486798 23.4498324,22.4974408 23.4498324,22.4974408 C22.8412322,25.6094787 26.2166224,26.859851 26.2166224,26.859851 Z M26.0340423,30.1015572 C27.7334412,32.7643873 31.071379,31.4028707 31.071379,31.4028707 C28.5854814,29.1753555 26.0340423,30.1015572 26.0340423,30.1015572 Z M18.4874003,43.665782 C20.7813548,45.8469871 23.6932725,43.7352471 23.6932725,43.7352471 C20.7392209,42.1421801 18.4874003,43.675044 18.4874003,43.675044 L18.4874003,43.665782 Z M22.3215813,37.1036425 C23.7634955,38.8124848 25.9731823,37.5667434 25.9731823,37.5667434 C24.9296258,36.7706944 23.5317764,36.5969628 22.3215813,37.1129045 L22.3215813,37.1036425 Z M23.871171,33.5516588 C25.5705699,36.2144888 28.9085077,34.8529722 28.9085077,34.8529722 C26.4226101,32.625457 23.8758525,33.5609208 23.8758525,33.5609208 L23.871171,33.5516588 Z M32.7660964,23.5533108 C34.0862906,24.4193094 35.3175355,23.127258 35.3175355,23.127258 C34.4516195,22.8048512 33.4771143,22.9714224 32.7707779,23.5625728 L32.7660964,23.5533108 Z M28.4918507,27.4896682 C29.8963126,29.0595802 32.1809039,28.2074746 32.1809039,28.2074746 C31.1156156,27.4397675 29.7604925,27.1801524 28.4824876,27.4989303 L28.4918507,27.4896682 Z M30.6453589,25.1000677 C31.0666975,26.6097766 32.8550457,26.4384292 32.8550457,26.4384292 C32.4129639,25.6308479 31.5643039,25.1225431 30.6359958,25.1093297 L30.6453589,25.1000677 Z M31.6050746,23.1920921 L31.4037684,22.9559106 C22.7382384,30.1154502 17.7243093,40.4703859 15.0417871,47.893893 C14.6953531,48.8525118 14.38169,49.7879756 14.1054791,50.6956534 C14.1675405,48.5255902 14.0201848,46.354619 13.6654144,44.212241 C12.7291065,38.8263778 10.3883366,35.2790251 6.94272338,33.9591875 L6.82568489,34.2463101 C14.6579008,37.2379418 13.8199052,50.7604875 13.730956,51.8997156 C12.6405694,55.3498111 11.8065935,58.8741379 11.2356953,62.4445227 L11.5446769,62.4862018 C12.0979412,58.9356132 12.9131459,55.4298382 13.9837591,51.9969668 L13.9837591,51.9969668 C13.9825929,51.9815517 13.9825929,51.9660719 13.9837591,51.9506567 C14.3629638,50.6956534 14.798347,49.3758158 15.2899087,48.0096682 C17.9958386,40.6185782 22.98636,30.3192146 31.5957115,23.2013541 L31.6050746,23.1920921 Z M8.56721766,44.1705619 C10.3040689,45.5876506 12.2422263,43.9390115 12.2422263,43.9390115 C11.0650896,43.3528172 9.65965761,43.4413689 8.56721766,44.1705619 Z M8.26291758,42.2023832 C10.3789735,42.9572376 11.6429892,40.7621395 11.6429892,40.7621395 C10.3359317,40.6024105 9.04351617,41.1531069 8.26291758,42.2023832 Z M10.0980811,38.1641435 C9.20552421,37.9131414 8.24553501,38.1594067 7.58877586,38.8078538 C8.97919316,39.5580772 10.0980811,38.1641435 10.0980811,38.1641435 L10.0980811,38.1641435 Z M23.6745463,41.1187271 C22.6161729,40.3477286 21.2650531,40.0844972 19.9901745,40.4009208 C21.4039995,41.9662018 23.6698648,41.1187271 23.6698648,41.1187271 L23.6745463,41.1187271 Z M7.78071899,45.777522 C9.1851809,48.6116994 12.6448387,47.6299255 12.6448387,47.6299255 C10.4164258,45.1245498 7.77603745,45.777522 7.77603745,45.777522 L7.78071899,45.777522 Z M8.45954225,36.1218687 C7.1520486,35.9591077 5.85814153,36.5104397 5.07947058,37.5621124 C7.19552653,38.3308599 8.45954225,36.1218687 8.45954225,36.1218687 Z" id="Shape" fill="url(#linearGradient-22)"></path>
                </g>
            </g>
        </g>
    </g>
</svg>