<?xml version="1.0" encoding="UTF-8"?>
<svg width="195px" height="180px" viewBox="0 0 195 180" version="1.1" xmlns="http://www.w3.org/2000/svg" xmlns:xlink="http://www.w3.org/1999/xlink">
    <title>Asset 2</title>
    <defs>
        <linearGradient x1="4.4365969%" y1="50.0512948%" x2="99.0650987%" y2="50.0512948%" id="linearGradient-1">
            <stop stop-color="#4FBACF" offset="0%"></stop>
            <stop stop-color="#4BBFD5" offset="100%"></stop>
        </linearGradient>
        <linearGradient x1="50.0046113%" y1="47.0281192%" x2="50.0046113%" y2="-1.24600101%" id="linearGradient-2">
            <stop stop-color="#F0F5F7" offset="4%"></stop>
            <stop stop-color="#EDF3F6" offset="48%"></stop>
            <stop stop-color="#E4EBF2" offset="81%"></stop>
            <stop stop-color="#DAE3EF" offset="100%"></stop>
        </linearGradient>
        <linearGradient x1="50.0046113%" y1="52.9718808%" x2="50.0046113%" y2="101.246001%" id="linearGradient-3">
            <stop stop-color="#F0F5F7" offset="4%"></stop>
            <stop stop-color="#EDF2F6" offset="48%"></stop>
            <stop stop-color="#E3EBF2" offset="81%"></stop>
            <stop stop-color="#DAE3EF" offset="100%"></stop>
        </linearGradient>
        <linearGradient x1="4.4365969%" y1="50.0512948%" x2="99.0650987%" y2="50.0512948%" id="linearGradient-4">
            <stop stop-color="#4FBACF" offset="0%"></stop>
            <stop stop-color="#4BBFD5" offset="100%"></stop>
        </linearGradient>
        <linearGradient x1="4.4365969%" y1="50.0512948%" x2="99.0650987%" y2="50.0512948%" id="linearGradient-5">
            <stop stop-color="#4FBACF" offset="0%"></stop>
            <stop stop-color="#4BBFD5" offset="100%"></stop>
        </linearGradient>
        <linearGradient x1="4.4365969%" y1="50.0512948%" x2="99.0650987%" y2="50.0512948%" id="linearGradient-6">
            <stop stop-color="#4FBACF" offset="0%"></stop>
            <stop stop-color="#4BBFD5" offset="100%"></stop>
        </linearGradient>
        <linearGradient x1="4.4365969%" y1="50.0512948%" x2="99.0650987%" y2="50.0512948%" id="linearGradient-7">
            <stop stop-color="#4FBACF" offset="0%"></stop>
            <stop stop-color="#4BBFD5" offset="100%"></stop>
        </linearGradient>
        <linearGradient x1="4.4365969%" y1="50.0111709%" x2="97.8802437%" y2="53.9384885%" id="linearGradient-8">
            <stop stop-color="#4FBACF" offset="0%"></stop>
            <stop stop-color="#4BBFD5" offset="100%"></stop>
        </linearGradient>
        <linearGradient x1="4.52511146%" y1="49.8783455%" x2="99.3592195%" y2="49.8783455%" id="linearGradient-9">
            <stop stop-color="#217595" offset="0%"></stop>
            <stop stop-color="#0E568C" offset="100%"></stop>
        </linearGradient>
        <linearGradient x1="61.3523662%" y1="38.750842%" x2="42.3747482%" y2="76.5070004%" id="linearGradient-10">
            <stop stop-color="#2EA0E2" offset="0%"></stop>
            <stop stop-color="#1D607E" offset="100%"></stop>
        </linearGradient>
        <linearGradient x1="4.4365969%" y1="50.0512948%" x2="99.0650987%" y2="50.0512948%" id="linearGradient-11">
            <stop stop-color="#4FBACF" offset="0%"></stop>
            <stop stop-color="#4BBFD5" offset="100%"></stop>
        </linearGradient>
        <linearGradient x1="68.6736019%" y1="23.5517295%" x2="83.6439658%" y2="100%" id="linearGradient-12">
            <stop stop-color="#3098B0" offset="0%"></stop>
            <stop stop-color="#185068" offset="100%"></stop>
        </linearGradient>
        <linearGradient x1="4.4365969%" y1="50.0512948%" x2="99.0650987%" y2="50.0512948%" id="linearGradient-13">
            <stop stop-color="#4FBACF" offset="0%"></stop>
            <stop stop-color="#4BBFD5" offset="100%"></stop>
        </linearGradient>
        <linearGradient x1="4.4365969%" y1="50.0512948%" x2="97.1882902%" y2="50.0512948%" id="linearGradient-14">
            <stop stop-color="#2B89A7" offset="0%"></stop>
            <stop stop-color="#115469" offset="100%"></stop>
        </linearGradient>
        <linearGradient x1="4.4365969%" y1="50.0512948%" x2="97.1882902%" y2="50.0512948%" id="linearGradient-15">
            <stop stop-color="#2B89A7" offset="0%"></stop>
            <stop stop-color="#115469" offset="100%"></stop>
        </linearGradient>
        <linearGradient x1="57.6421742%" y1="23.5517295%" x2="63.7687978%" y2="100%" id="linearGradient-16">
            <stop stop-color="#2A789A" offset="0%"></stop>
            <stop stop-color="#185068" offset="100%"></stop>
        </linearGradient>
    </defs>
    <g id="Page-1" stroke="none" stroke-width="1" fill="none" fill-rule="evenodd">
        <g id="entery---complete-profile" transform="translate(-83.000000, -72.000000)">
            <g id="Asset-2" transform="translate(83.000000, 72.000000)">
                <line x1="193.979879" y1="57.024413" x2="193.615263" y2="56.6597976" id="Path"></line>
                <line x1="192.103603" y1="56.0955061" x2="191.702065" y2="55.6939676" id="Path"></line>
                <path d="M139.013194,163.617113 C138.967006,163.709654 138.920817,163.802196 138.87001,163.894737 L38.4378086,163.894737 C36.4086712,161.423256 35.2466777,158.352154 35.1307144,155.154221 C35.0968428,154.247317 35.052194,153.343498 34.9967678,152.442764 C34.5120407,144.17815 32.748148,136.039201 29.7682334,128.317275 C26.8675977,120.96025 20.6090605,114.371317 21.4543094,106.019474 C22.6274965,93.1053506 36.2992826,90.7501772 44.8718619,84.2722936 C45.8775447,83.4091073 46.8049372,82.4583882 47.6431699,81.431279 C49.2857285,79.3407956 50.7241686,77.0971773 51.9386973,74.7312965 C54.6730545,66.5136385 57.0194286,57.9026804 63.2687281,51.6422686 C68.7374426,46.16383 77.3284973,46.16383 83.4253749,50.4346061 C85.0458528,51.5365161 86.5583676,52.7898906 87.9426069,54.1778973 C106.284047,72.3483608 96.9124071,83.9854159 125.036564,83.374644 C142.759079,82.985971 135.281166,111.349847 133.86318,121.316534 C132.860891,128.377427 131.516806,135.660419 132.883985,142.767582 C133.562955,146.288775 135.022511,149.347261 136.810004,152.415002 L136.907,152.586203 C138.87001,155.950075 140.976204,159.781281 139.013194,163.617113 Z" id="Path" fill="#F4F4F7" fill-rule="nonzero"></path>
                <g id="Group" transform="translate(138.850202, 96.631579)" fill-rule="nonzero">
                    <path d="M35.0348276,58.3567602 C21.465,66.9402584 23.2851724,77.1228238 18.8441379,76.2773401 C18.6322932,76.2395121 18.4259327,76.1762435 18.2296552,76.0889442 C15.012931,74.6598928 18.5415517,67.3905704 10.8605172,54.2212417 C6.00517241,45.8858746 -3.41224138,30.7177119 1.82482759,25.8194201 C6.30775862,21.6333564 11.7962069,35.2438071 18.4810345,29.7711377 C23.3363793,25.79185 10.5672414,20.1215947 14.2587931,15.5265742 C18.36,10.4306965 24.0998276,20.631642 26.9767241,15.3152033 C29.8536207,9.99876458 26.1294828,0.303271352 31.59,0.445716987 C31.6784483,0.445716987 31.7622414,0.445716987 31.8367241,0.445716987 C37.0272414,0.827103687 36.4918966,8.82243933 35.8634483,14.0469776 C35.2396552,19.3542263 34.695,20.9395084 36.3615517,20.9808635 C38.0281034,21.0222187 44.4289655,16.0641916 46.5517241,20.7143523 C48.6744828,25.3645131 36.3522414,31.2828995 35.3560345,38.0605547 C34.3598276,44.8382099 44.5174138,36.0157706 45.1551724,42.7336905 C45.522931,46.5751276 41.7801724,54.0742011 35.0348276,58.3567602 Z" id="Path" fill="#C4D5E8"></path>
                    <polygon id="Path" fill="#DAE3EF" points="39.6946552 45.1552663 24.732931 52.3189032 27.8332759 34.6326694 27.8425862 34.6464545 38.3772414 26.1456666 28.0939655 33.1300977 31.7156897 12.4800756 28.997069 24.4638891 21.8932759 19.960769 28.7456897 25.5942641 24.6025862 43.8824456 9.0962069 34.995676 24.3605172 44.9484904 19.2258621 68.0017082 21.4324138 68.4336401 24.5048276 53.605509"></polygon>
                    <path d="M46.2025862,34.545364 C47.9110345,33.2357832 55.4244828,27.1933312 52.1332759,24.9877214 C49.1958621,23.0072676 46.9567241,30.2673999 46.1513793,33.3690388 C45.8906897,29.5827419 44.8618966,27.5057926 44.6477586,27.1152159 C45.3786207,24.2111629 47.0032759,16.4547684 43.3582759,16.6293791 C39.7132759,16.8039899 42.66,24.440914 43.8237931,27.1979263 C43.8048853,27.2938475 43.8213992,27.3932811 43.8703448,27.4782225 C43.8703448,27.5057926 45.0341379,29.5505767 45.2994828,33.5390545 C43.9448276,30.7820422 40.2113793,23.9676269 37.5439655,26.3800126 C34.5972414,29.0543145 43.4094828,33.5298645 45.3413793,34.4626536 C45.3851579,36.1671158 45.2792446,37.8721173 45.0248276,39.5585314 C44.927069,40.1926442 44.8106897,40.8589222 44.6617241,41.5619603 C43.3862069,39.025509 39.3827586,31.7561866 36.6781034,34.2880429 C33.8058621,36.9715348 42.417931,41.2311188 44.522069,42.2098582 C43.8492661,45.0811295 42.9144136,47.8863585 41.7289655,50.5911755 C40.6024138,48.2936653 36.4360345,40.4591554 33.6382759,43.069127 C30.7334483,45.7801891 39.5643103,50.1178884 41.552069,51.0368925 C40.4792144,53.466337 39.2701003,55.8349095 37.9303448,58.1316042 C37.0505172,55.7697636 33.6941379,47.5033218 30.6356897,49.8284021 C27.4655172,52.2178128 35.8448276,57.4377561 37.7068966,58.5221809 C36.5384483,60.5164198 35.1931034,62.6117491 33.6522414,64.8127639 C32.967931,62.6209392 29.9793103,53.7847148 26.7393103,56.0178947 C23.4015517,58.315405 31.8134483,64.0545856 33.4334483,65.1206303 C32.0368966,67.1102742 30.4727586,69.1780334 28.7363793,71.328503 C28.0381034,69.0999181 25.0587931,60.346404 21.8327586,62.5566089 C18.5136207,64.826549 26.7812069,70.5105893 28.485,71.6363694 C27.3491379,73.0148755 26.1574138,74.4577119 24.8539655,75.9235235 C24.7231983,76.0760189 24.7231983,76.2994554 24.8539655,76.4519508 C24.8669502,76.470913 24.8826276,76.4879353 24.9005172,76.5024961 C24.983919,76.5756176 25.0936691,76.612453 25.2049406,76.6046695 C25.3162121,76.596886 25.4196027,76.5451414 25.4917241,76.4611409 C26.7812069,74.9999244 27.9868966,73.570873 29.1227586,72.1739868 C30.8637931,72.7207942 40.6256897,75.6110621 40.5977586,71.5766341 C40.5744828,67.7076269 31.6784483,70.9241412 29.4253448,71.8017901 C31.1943103,69.6099653 32.777069,67.505446 34.1968966,65.4836369 C36.6641379,66.2280303 45.3134483,68.5714907 45.2901724,64.7714088 C45.2901724,61.1781027 37.5951724,63.696174 34.695,64.7714088 C36.0791379,62.7679798 37.3081034,60.8518563 38.3818966,59.0230381 C40.6024138,58.9265427 50.1641379,58.3016199 48.7908621,54.6256035 C47.547931,51.2942137 41.3425862,56.073035 38.9172414,58.104034 C40.1774145,55.9119171 41.3195197,53.6556885 42.3387931,51.3447589 C44.5918966,50.908232 53.8324138,48.895613 51.9331034,45.4769177 C50.2386207,42.4258241 44.9875862,47.774428 42.8136207,50.2281689 C43.8815087,47.6899097 44.7317329,45.0676751 45.3553448,42.389064 C47.5712069,41.3689694 55.8108621,37.3069713 53.1760345,34.4718437 C50.8903448,32.0181027 47.3105172,37.8170186 45.6718966,40.8405421 C45.7556897,40.38104 45.8255172,39.9674882 45.8860345,39.5585314 C46.1309806,37.8989057 46.2368566,36.2221679 46.2025862,34.545364 Z" id="Path" fill="url(#linearGradient-1)"></path>
                </g>
                <path d="M167.271255,38.5862408 L167.271255,54 L66.8502024,54 L66.8502024,38.5862408 C66.8502024,31.9275343 72.2522873,26.52887 78.9177697,26.5263158 L155.199057,26.5263158 C161.866348,26.5263158 167.271255,31.9257281 167.271255,38.5862408 L167.271255,38.5862408 Z" id="Path" fill="url(#linearGradient-2)" fill-rule="nonzero"></path>
                <path d="M167.271255,57.5263158 L142.271255,57.5263158 L142.639676,38.5759654 C142.639676,31.9229323 147.865846,26.5288678 154.768857,26.5263158 C161.673741,26.5263158 167.271255,31.9211277 167.271255,38.5759654 L167.271255,57.5263158 Z" id="Path" fill="#DFE5EA" fill-rule="nonzero"></path>
                <path d="M167.271255,151.834812 L167.271255,136.421053 L66.8502024,136.421053 L66.8502024,151.834812 C66.8502024,158.493518 72.2522873,163.892183 78.9177697,163.894737 L155.199057,163.894737 C161.866348,163.894737 167.271255,158.495324 167.271255,151.834812 L167.271255,151.834812 Z" id="Path" fill="url(#linearGradient-3)" fill-rule="nonzero"></path>
                <path d="M167.271255,132.894737 L142.639676,132.894737 L142.639676,151.647749 C142.639676,158.300782 147.865846,163.892185 154.768857,163.894737 C161.673741,163.894737 167.271255,158.499925 167.271255,151.845087 L167.271255,132.894737 Z" id="Path" fill="#DFE5EA" fill-rule="nonzero"></path>
                <rect id="Rectangle" fill="#F0F5F7" fill-rule="nonzero" x="66.8502024" y="38.8421053" width="75.7894737" height="108"></rect>
                <rect id="Rectangle" fill="#C3D3DD" fill-rule="nonzero" x="85.7975709" y="60.6315789" width="52.1052632" height="1"></rect>
                <rect id="Rectangle" fill="#C3D3DD" fill-rule="nonzero" x="70.6396761" y="65.3684211" width="67.2631579" height="1"></rect>
                <rect id="Rectangle" fill="#C3D3DD" fill-rule="nonzero" x="70.6396761" y="70.1052632" width="67.2631579" height="1"></rect>
                <rect id="Rectangle" fill="#C3D3DD" fill-rule="nonzero" x="70.6396761" y="74.8421053" width="67.2631579" height="1"></rect>
                <rect id="Rectangle" fill="#C3D3DD" fill-rule="nonzero" x="70.6396761" y="79.5789474" width="67.2631579" height="1"></rect>
                <rect id="Rectangle" fill="#C3D3DD" fill-rule="nonzero" x="71.5870445" y="85.2631579" width="67.2631579" height="1"></rect>
                <rect id="Rectangle" fill="#C3D3DD" fill-rule="nonzero" x="70.6396761" y="89.0526316" width="67.2631579" height="1"></rect>
                <rect id="Rectangle" fill="#C3D3DD" fill-rule="nonzero" x="70.6396761" y="94.7368421" width="67.2631579" height="1"></rect>
                <rect id="Rectangle" fill="#C3D3DD" fill-rule="nonzero" x="70.6396761" y="99.4736842" width="59.6842105" height="1"></rect>
                <rect id="Rectangle" fill="#C3D3DD" fill-rule="nonzero" x="70.6396761" y="104.210526" width="67.2631579" height="1"></rect>
                <rect id="Rectangle" fill="#C3D3DD" fill-rule="nonzero" x="70.6396761" y="108.947368" width="67.2631579" height="1"></rect>
                <rect id="Rectangle" fill="#C3D3DD" fill-rule="nonzero" x="70.6396761" y="113.684211" width="67.2631579" height="1"></rect>
                <rect id="Rectangle" fill="#C3D3DD" fill-rule="nonzero" x="70.6396761" y="118.421053" width="67.2631579" height="1"></rect>
                <rect id="Rectangle" fill="#C3D3DD" fill-rule="nonzero" x="70.6396761" y="123.157895" width="67.2631579" height="1"></rect>
                <rect id="Rectangle" fill="#C3D3DD" fill-rule="nonzero" x="121.797571" y="141.157895" width="16.1052632" height="1"></rect>
                <path d="M124.76865,135.118352 C124.596685,134.733453 124.596685,134.297005 124.76865,133.912106 C124.964261,133.526412 125.409382,133.322296 125.842122,133.419852 C126.342158,133.566198 126.548595,134.147147 126.57612,134.652705 C126.533229,135.15978 126.605244,135.669796 126.787144,136.147208 C126.895526,136.32098 127.039075,136.471816 127.209193,136.590681 C127.394521,136.738685 127.62136,136.829796 127.860616,136.85233 C128.257681,136.838058 128.628989,136.658587 128.879038,136.360075 C129.256431,135.970444 129.524841,135.494237 129.658911,134.976441 C129.743219,134.591205 129.790823,134.199309 129.801123,133.805673 L129.966272,130.852145 C129.645501,131.784526 129.508565,132.766816 129.562574,133.748021 C129.478084,135.091498 129.619061,136.43934 129.980035,137.739275 C130.02591,137.872317 130.09931,138.027532 130.241522,138.054141 C130.372851,138.063174 130.500187,138.00828 130.580996,137.907795 C130.989112,137.447526 131.210773,136.859831 131.204894,136.253642 C131.241594,135.654954 131.172781,135.051831 131.246181,134.453143 C131.168456,135.241298 131.241546,136.036551 131.461793,136.799113 C132.329425,136.283238 132.755257,135.286324 132.516915,134.32897 C132.560645,135.085338 132.715099,135.831889 132.975664,136.546334 C132.998601,136.603985 133.021539,136.666071 133.081176,136.688245 C133.141217,136.701962 133.204457,136.6907 133.2555,136.657202 C133.698436,136.375086 133.983925,135.912939 134.030786,135.402174 C134.075106,134.899883 134.064342,134.394469 133.998673,133.894367 C133.959959,132.840561 133.998283,131.785428 134.11336,130.736842 C134.073602,133.25281 134.073602,135.765822 134.11336,138.275877 C131.397568,138.178313 128.680247,138.157618 125.961397,138.213791 C125.694353,138.205326 125.427709,138.239794 125.172349,138.315789" id="Path" stroke="#849BAD" stroke-width="0.25" stroke-linecap="round" stroke-linejoin="round"></path>
                <g id="Group" opacity="0.3" transform="translate(76.323887, 132.631579)">
                    <path d="M6.66,12.3484574 C3.37419641,12.3484574 0.710526316,9.77663794 0.710526316,6.60413793 C0.710526316,3.43163792 3.37419641,0.859818512 6.66,0.859818512 C9.94580359,0.859818512 12.6094737,3.43163792 12.6094737,6.60413793 C12.6068616,9.7755927 9.94472101,12.3459353 6.66,12.3484574 Z M6.66,2.36449843 C4.88120846,2.3626512 3.27659156,3.39604134 2.59499224,4.98240861 C1.91339292,6.56877588 2.28917687,8.39539501 3.54697316,9.60981902 C4.80476945,10.824243 6.69662498,11.1870689 8.33964823,10.528973 C9.98267147,9.87087712 11.0529684,8.32159183 11.0510552,6.60413793 C11.0484419,4.26369595 9.08402919,2.36702158 6.66,2.36449843 Z" id="Shape" fill="url(#linearGradient-4)" fill-rule="nonzero"></path>
                    <ellipse id="Oval" stroke="url(#linearGradient-5)" stroke-width="0.25" cx="6.66" cy="6.60413793" rx="6.58894737" ry="6.36174229"></ellipse>
                    <ellipse id="Oval" fill="url(#linearGradient-6)" fill-rule="nonzero" cx="6.66" cy="6.60413793" rx="3.34421053" ry="3.22889292"></ellipse>
                </g>
                <ellipse id="Oval" fill="#F4F4F7" fill-rule="nonzero" cx="42.2186235" cy="175.736842" rx="26.5263158" ry="4.26315789"></ellipse>
                <path d="M25.5896042,87.7280564 C25.1065485,88.4107675 25.031314,89.2856274 25.3912316,90.0348188 C26.9404272,93.5628083 32.5657079,106.105263 34.2896604,106.105263 C36.3017255,106.105263 29.0280629,87.6059337 27.9842451,87.3888267 C27.2049241,87.2214733 26.2839084,86.8279668 25.5896042,87.7280564 Z" id="Path" fill="#F2BC97" fill-rule="nonzero"></path>
                <path d="M38.7906673,77.999337 C38.166908,77.5926991 37.3627699,77.5785549 36.7248591,77.9630008 C33.8253989,79.5890442 24.1925949,85.2075238 25.2461112,87.4194879 C26.4828478,90.0175238 34.7277585,84.5307628 36.9172404,82.6412821 C38.7357012,81.065201 40.2518487,79.0349177 38.7906673,77.999337 Z" id="Path" fill="#F2BC97" fill-rule="nonzero"></path>
                <polygon id="Path" fill="url(#linearGradient-7)" fill-rule="nonzero" points="36.6777454 76.7368421 28.9554656 82.3062451 32.0125695 87.1578947 37.4817814 82.9149727"></polygon>
                <path d="M53.5847207,94.5970762 L56.4291498,94.7368421 L25.1404292,82.5492574 C24.1714338,82.1725044 23.081192,82.6542743 22.705003,83.6254547 L22.3238866,84.6131336 L23.1651312,84.939254 L23.5462475,83.9515751 C23.7448646,83.4481435 24.3107638,83.1988024 24.815086,83.3925116 L53.5847207,94.5970762 Z" id="Path" fill="#5FC0D8" fill-rule="nonzero"></path>
                <path d="M20.9532329,91.3459586 L96.9956702,121.121297 L102.813453,123.157895 L105.692308,115.668621 L100.04088,113.217247 L23.9938213,83.4232672 C23.5765939,83.2614923 23.1081149,83.4696327 22.9448645,83.8893078 L20.4911374,90.2694046 C20.4069307,90.4736287 20.4085784,90.7035876 20.4957027,90.906563 C20.582827,91.1095384 20.7479557,91.2681221 20.9532329,91.3459586 Z" id="Path" fill="url(#linearGradient-8)" fill-rule="nonzero"></path>
                <path d="M16.8812499,85.0494471 L22.4779887,85.0467115 L22.4762646,88.5750523 C22.4761937,88.7202458 22.3583889,88.8380059 22.2131402,88.8380769 L17.1377793,88.8405577 C17.0680285,88.8405577 17.001148,88.8129265 16.9518507,88.7636481 C16.9025535,88.7143696 16.8749118,88.6475145 16.8749118,88.5777902 L16.8766359,85.0494494 L16.8812499,85.0494471 Z" id="Path" fill="url(#linearGradient-9)" fill-rule="nonzero" transform="translate(19.676450, 86.943635) rotate(111.220000) translate(-19.676450, -86.943635) "></path>
                <polygon id="Path" fill="#5FC0D8" fill-rule="nonzero" points="117.277656 125.188588 116.11336 124.132909 115.726842 125.052632"></polygon>
                <polygon id="Path" fill="url(#linearGradient-10)" fill-rule="nonzero" points="115.726842 125.052632 116.11336 124.132909 105.692308 115.041847 101.902834 123.59085"></polygon>
                <path d="M34.1402935,102.552452 C33.0319417,103.17057 34.2739857,105.03836 34.7225016,105.656478 C35.4513399,106.664278 37.0383962,107.273438 37.4265349,106.977816 C37.8146737,106.682195 36.0292354,104.491908 36.0637366,104.348577 C36.0982379,104.205245 37.0685847,105.181692 37.4092843,104.868154 C37.7499839,104.554616 36.6243815,103.076508 35.960233,102.682346 C35.2960844,102.288184 34.8346306,102.162769 34.1402935,102.552452 Z" id="Path" fill="#F2BC97" fill-rule="nonzero"></path>
                <path d="M45.5040118,136.676588 C39.5789091,133.409574 43.0541685,162.41573 45.2208425,169.65244 C47.3875166,176.88915 47.8937889,168.981698 47.9023698,156.995042 C47.9109507,145.008386 47.8251418,137.958754 45.5040118,136.676588 Z" id="Path" fill="#F2BC97" fill-rule="nonzero"></path>
                <polygon id="Path" fill="#F2BC97" fill-rule="nonzero" points="45.1797698 169.811115 44.1133603 164.935596 48.8502024 164.842105 48.57244 170.526316"></polygon>
                <path d="M32.6731415,134.463293 C30.6463834,126.493833 9.02611187,146.725798 4.68110681,153.111644 C0.336101755,159.497489 7.4138144,155.475388 17.4975054,148.599042 C27.5811964,141.722696 33.4701812,137.602495 32.6731415,134.463293 Z" id="Path" fill="#F2BC97" fill-rule="nonzero"></path>
                <path d="M41.3388677,119.526278 C41.7539911,130.51355 43.9695375,139.350735 46.2876987,139.262503 C48.6058599,139.17427 50.1450817,130.197771 49.7299582,119.210498 C49.3148348,108.223225 47.0992884,99.3906839 44.7811272,99.4742726 C42.462966,99.5578614 40.9237442,108.539005 41.3388677,119.526278 Z" id="Path" fill="#F2BC97" fill-rule="nonzero"></path>
                <ellipse id="Oval" fill="#F2BC97" fill-rule="nonzero" transform="translate(34.618905, 114.074376) rotate(-78.440000) translate(-34.618905, -114.074376) " cx="34.6189046" cy="114.074376" rx="19.7861538" ry="4.15384615"></ellipse>
                <path d="M52.3885871,79.5811056 C53.1591913,79.6364442 53.8314539,80.1181105 54.123588,80.8242085 C55.5227823,83.9227575 60.988968,96.3399741 58.7316012,97.4725789 C56.08246,98.7985553 51.6610061,87.3435925 51.0360326,84.4706436 C50.5183307,82.0811236 50.5369866,79.493628 52.3885871,79.5811056 Z" id="Path" fill="#F2BC97" fill-rule="nonzero"></path>
                <path d="M57.5457792,89.0526316 L59.719468,95.1344442 L64.0080972,100.07027 L59.8234073,101.368421 C59.8234073,101.368421 57.2384801,98.8244259 56.6329203,97.9114408 C56.0273604,96.9984556 53.5870445,91.7297704 53.5870445,91.7297704 L57.5457792,89.0526316 Z" id="Path" fill="#F2BC97" fill-rule="nonzero"></path>
                <path d="M57.4373791,96.9142962 C57.243327,97.7642102 57.5202827,98.6504944 58.1687166,99.2546445 C61.0940668,102.148575 71.6076262,112.387599 73.2985531,111.762006 C75.2689721,111.037398 60.7214107,95.5145879 59.6313917,95.6856133 C58.7789409,95.8161328 57.7215293,95.7666254 57.4373791,96.9142962 Z" id="Path" fill="#F2BC97" fill-rule="nonzero"></path>
                <path d="M72.6516108,112.841248 C72.2614704,112.551037 71.8948619,112.23139 71.5551044,111.885199 C70.8391207,111.155842 70.248309,110.219505 70.9642927,109.539429 C71.6802763,108.859353 72.2410468,108.849497 73.1623125,109.090973 C74.0835782,109.33245 75.8910614,110.608824 75.5856418,111.062208 C75.2802222,111.515592 73.8182136,110.746811 73.8282274,110.924222 C73.8282274,110.924222 73.8282274,110.924222 73.8582686,110.978431 C74.173702,111.318469 76.6320795,112.998947 76.2916118,113.442474 C75.951144,113.886002 73.8382411,113.73816 72.6516108,112.841248 Z" id="Path" fill="#F2BC97" fill-rule="nonzero"></path>
                <line x1="47.902834" y1="72.9473684" x2="46.9554656" y2="77.6842105" id="Path" fill="#F2BC97" fill-rule="nonzero"></line>
                <path d="M47.902834,73.1725407 L45.9365701,71.0526316 L45.0607287,76.9984939 C45.0607287,76.9984939 46.8124115,78.8103035 46.8780996,78.6171664 C46.9437877,78.4240294 47.4868094,76.9984939 47.4868094,76.9984939" id="Path" fill="#F2BC97" fill-rule="nonzero"></path>
                <path d="M52.5417861,85.1851461 C52.5417861,85.3910904 52.4911525,85.5876737 52.4497251,85.8029791 C52.4082977,86.0182846 52.3898855,86.1118956 52.3576642,86.2710344 C52.3576642,86.3412427 52.3254428,86.4020899 52.3162367,86.4722982 C52.3070306,86.5425065 52.2656032,86.6688815 52.247191,86.7624925 C52.2402827,86.8070606 52.2295,86.8509176 52.2149697,86.893548 C52.0778695,87.4502251 51.9103657,87.9987002 51.7132376,88.5364222 C51.561337,88.9483109 51.4094364,89.3274357 51.2529328,89.7159217 C50.647384,91.145552 50.2295212,92.6500083 50.0101101,94.1905306 C49.3979048,98.2345286 49.1125159,100.27525 49.1125159,100.27525 C43.8840704,100.755988 38.6160114,100.044418 33.6923077,98.1924036 C33.6923077,98.1924036 33.7337351,98.051987 33.7935747,97.7851955 C34.1572155,96.2359324 35.4184504,90.4882129 35.0271914,85.8404235 C34.985764,85.3723682 34.9351304,84.9651601 34.8660847,84.5579519 C33.9454753,79.0161769 37.1031657,74.8364428 43.1515697,75.9784978 C45.0119059,76.2697063 46.8477032,76.7046979 48.6430051,77.2796916 C49.7296884,77.6116705 50.6574963,78.3400787 51.2483298,79.3250934 C52.3970484,81.039944 52.8596109,83.1356009 52.5417861,85.1851461 Z" id="Path" fill="url(#linearGradient-11)" fill-rule="nonzero"></path>
                <path d="M51.6923077,86.0636842 C51.6840413,86.1087882 51.6711388,86.1531727 51.653752,86.1963158 C51.4896994,86.7596875 51.2892662,87.3147587 51.0533848,87.8589474 C50.8716223,88.2757895 50.6898597,88.6594737 50.5025892,89.0526316 C50.1853309,87.7230023 49.6277731,86.4443364 48.8502024,85.2631579 L51.6923077,86.0636842 Z" id="Path" fill="#D8D0BC" fill-rule="nonzero" opacity="0.5" style="mix-blend-mode: multiply;"></path>
                <g id="Group" opacity="0.5" style="mix-blend-mode: multiply;" transform="translate(33.692308, 84.315789)" fill="#D8D0BC" fill-rule="nonzero">
                    <path d="M0.0487218045,13.0847913 C0.369473684,11.5709619 1.48195489,5.95470054 1.13278195,1.41321234 L2.75684211,0.297277677 C2.75684211,0.297277677 1.45353383,9.22018149 0.0487218045,13.0847913 Z" id="Path"></path>
                </g>
                <path d="M53.5870445,64.9555483 L46.0080972,61.5789474 L46.6711399,73.4913692 C46.6711399,73.4913692 47.9603898,74.8306914 50.6355833,72.6283553 C53.3107767,70.4260192 53.5870445,64.9555483 53.5870445,64.9555483" id="Path" fill="#F2BC97" fill-rule="nonzero"></path>
                <path d="M44.3560389,59.6259453 C44.3560389,59.6259453 40.9825822,59.2322594 39.2866368,61.589743 C37.5906913,63.9472266 38.2036281,68.717773 35.5629305,69.4958816 C35.2956347,69.5746188 35.0052962,69.6533559 34.6873065,69.7320931 C31.5857541,70.5148332 34.2264517,72.3257882 31.2447215,73.5948462 C28.5901982,74.7295878 28.7514974,76.4201213 29.2492205,79.5186606 C29.4243453,80.6209811 29.5257334,84.5161554 33.9545474,84.3077334 C36.7196759,84.1780487 39.6599291,83.6685728 41.982637,82.075303 C43.2894519,81.1147458 44.2863172,79.7891449 44.8491535,78.2634974 C45.4482647,76.7767543 45.52661,75.0584313 46.4805793,73.7291626 C47.3377691,72.5342102 49.0844086,72.1219979 49.6005659,70.6584128 C49.9323813,69.7320931 48.641988,68.5649303 50.0107266,67.4996626 C51.3794652,66.434395 53.5685252,65.75355 53.5823508,64.8550199 C53.5961765,63.9564898 53.7574756,61.2145836 50.1397659,59.4731025 C46.5220562,57.7316215 44.3560389,59.6259453 44.3560389,59.6259453 Z" id="Path" fill="url(#linearGradient-12)" fill-rule="nonzero"></path>
                <path d="M58.3238866,89.4387826 L53.2669586,92.8421053 L49.4057341,85.579785 L47.902834,76.7368421 L48.134413,76.8032947 C48.134413,76.8032947 52.4115343,78.0089348 54.3114269,80.0926986 C56.0222755,81.9201452 58.3238866,89.4387826 58.3238866,89.4387826 Z" id="Path" fill="url(#linearGradient-13)" fill-rule="nonzero"></path>
                <path d="M48.6529993,169.76474 C49.7253372,170.937851 50.9418528,171.991992 52.2780547,172.905939 C54.7696947,174.690416 55.430073,174.314509 55.4815919,174.971266 C55.5331108,175.628023 45.0607287,174.971266 45.0607287,174.971266 L45.2714878,169.578947 C45.2714878,169.578947 48.6529993,169.622155 48.6529993,169.76474 Z" id="Path" fill="url(#linearGradient-14)" fill-rule="nonzero"></path>
                <path d="M7.36117764,155.096307 C7.16350716,156.737634 7.16350716,158.395125 7.36117764,160.036452 C7.67325831,163.150184 8.45345999,163.350021 7.94632889,163.870526 C7.4391978,164.39103 0.534412955,156.346447 0.534412955,156.346447 L5.12297407,152.526316 C5.12297407,152.526316 7.49283667,154.994065 7.36117764,155.096307 Z" id="Path" fill="url(#linearGradient-15)" fill-rule="nonzero"></path>
                <path d="M48.7952013,101.017736 C48.7952013,101.017736 50.9443879,111.435829 50.7266417,127.228004 C50.5088955,143.020179 49.2765445,164.707236 49.2765445,164.707236 C49.2765445,164.707236 44.1596893,164.957098 44.1133603,164.776642 C40.2217256,141.497875 43.0916251,136.181376 43.0916251,136.181376 L39.2880154,117.724011 C39.2880154,117.724011 37.0642242,131.651479 35.1184068,135.089389 C33.1725895,138.527299 13.7144159,151.922654 13.7144159,151.922654 L10.0080972,146.657053 C16.8925843,139.101055 28.3312106,131.614462 28.3312106,131.614462 C28.3312106,131.614462 25.7471699,107.815775 33.1598074,98.7189641 L48.7952013,101.017736 Z" id="Path" fill="url(#linearGradient-16)" fill-rule="nonzero"></path>
                <path d="M48.8502024,101.368421 C43.454906,101.285351 38.0862855,100.526236 32.8502024,99.1060448 C33.0675321,98.5023593 33.3335757,97.9208724 33.6452053,97.3684211 L49.49313,99.3684211 C49.49313,99.3684211 49.1749539,100.045292 48.8502024,101.368421 Z" id="Path" fill="#1D607E" fill-rule="nonzero"></path>
                <polygon id="Path" fill="#DFE5EA" fill-rule="nonzero" points="172.955466 76.2069532 170.634451 86.2105263 161.587045 84.1114607 164.613466 71.0526316 170.607145 72.4459376"></polygon>
                <polygon id="Path" fill="#E9EEF4" fill-rule="nonzero" points="170.11336 76.0257423 172.955466 76.7368421 170.769882 72.9473684"></polygon>
                <polygon id="Rectangle" fill="#F9FBFC" fill-rule="nonzero" transform="translate(168.456269, 77.504061) rotate(13.060000) translate(-168.456269, -77.504061) " points="164.717808 77.50021 172.194609 77.5002576 172.194731 77.5079117 164.71793 77.5078641"></polygon>
                <polygon id="Rectangle" fill="#F9FBFC" fill-rule="nonzero" transform="translate(168.103272, 79.045419) rotate(13.060000) translate(-168.103272, -79.045419) " points="164.36481 79.0415683 171.841611 79.0416159 171.841734 79.0492699 164.364933 79.0492223"></polygon>
                <polygon id="Rectangle" fill="#F9FBFC" fill-rule="nonzero" transform="translate(167.741163, 80.585734) rotate(13.060000) translate(-167.741163, -80.585734) " points="164.002702 80.5818836 171.479503 80.5819312 171.479625 80.5895853 164.002824 80.5895377"></polygon>
                <polygon id="Path" fill="#DFE5EA" fill-rule="nonzero" points="47.902834 33.5769231 45.5818193 43.5789474 36.534413 41.479251 39.5608341 28.4210526 45.5545132 29.8102227"></polygon>
                <polygon id="Path" fill="#E9EEF4" fill-rule="nonzero" points="45.0607287 33.390441 47.902834 34.1052632 45.7205032 30.3157895"></polygon>
                <polygon id="Rectangle" fill="#F9FBFC" fill-rule="nonzero" transform="translate(43.336706, 34.578549) rotate(13.060000) translate(-43.336706, -34.578549) " points="39.5982442 34.5746985 47.0750451 34.5747461 47.0751673 34.5824002 39.5983665 34.5823526"></polygon>
                <polygon id="Rectangle" fill="#F9FBFC" fill-rule="nonzero" transform="translate(42.980136, 36.120027) rotate(13.060000) translate(-42.980136, -36.120027) " points="39.2416746 36.1161761 46.7184755 36.1162238 46.7185977 36.1238778 39.2417968 36.1238302"></polygon>
                <polygon id="Rectangle" fill="#F9FBFC" fill-rule="nonzero" transform="translate(42.618028, 37.660342) rotate(13.060000) translate(-42.618028, -37.660342) " points="38.879566 37.6564915 46.3563669 37.6565391 46.3564891 37.6641932 38.8796882 37.6641455"></polygon>
                <polygon id="Path" fill="#DFE5EA" fill-rule="nonzero" points="121.303302 1.45971074 127.481781 12.4168388 117.550586 18 109.481781 3.70041322 116.060674 0"></polygon>
                <polygon id="Path" fill="#E9EEF4" fill-rule="nonzero" points="117.821316 3.78947368 120.850202 1.65263158 116.11336 0"></polygon>
                <polygon id="Rectangle" fill="#F9FBFC" fill-rule="nonzero" transform="translate(117.455516, 6.344984) rotate(-29.390000) translate(-117.455516, -6.344984) " points="112.971956 6.11970044 121.939362 6.11421451 121.939076 6.57026705 112.97167 6.57575297"></polygon>
                <polygon id="Rectangle" fill="#F9FBFC" fill-rule="nonzero" transform="translate(118.388665, 8.004975) rotate(-29.390000) translate(-118.388665, -8.004975) " points="113.905105 7.77969123 122.872511 7.7742053 122.872225 8.23025784 113.904819 8.23574376"></polygon>
                <polygon id="Rectangle" fill="#F9FBFC" fill-rule="nonzero" transform="translate(119.315528, 9.658594) rotate(-29.390000) translate(-119.315528, -9.658594) " points="114.831968 9.43331025 123.799374 9.42782433 123.799088 9.88387686 114.831682 9.88936279"></polygon>
                <path d="M142.342539,107.990758 L142.161471,107.875239 C135.03947,104.899453 129.746718,98.1253821 126.840347,88.2831097 C125.516486,83.7176916 124.777082,79.004184 124.639676,74.2544059 L124.639676,73.5797712 L142.351825,67.3648152 L142.66289,67.2631579 L160.639676,73.5890128 L160.639676,74.2636474 C160.48899,79.0228101 159.735554,83.7440326 158.397221,88.3154552 C155.49085,98.1900731 150.165598,104.973386 142.997169,107.930688 L142.820744,108 L142.342539,107.990758 Z" id="Path" fill="#5FC0D8" fill-rule="nonzero"></path>
                <path d="M142.665196,68.349378 L159.717132,74.3440836 C159.717132,74.3440836 159.517612,100.135151 142.665196,107.084398 L142.665196,107.084398 C142.649901,107.081161 142.634091,107.081161 142.618796,107.084398 C125.80814,100.070593 125.6179,74.3256383 125.6179,74.3256383 L142.614156,68.3678233 L142.665196,68.3678233 M142.665196,66.3757365 L142.048078,66.5786343 L141.992399,66.5786343 L141.964559,66.5786343 L124.968303,72.5364493 L123.692308,72.9975805 L123.692308,74.3440836 C123.844535,79.1728522 124.608416,83.9633125 125.965899,88.6022601 C128.926208,98.6641428 134.368907,105.618001 141.71864,108.721414 L142.061998,108.947368 L143.013195,108.947368 L143.365833,108.804418 C150.789805,105.742507 156.316024,98.7609803 159.304173,88.6253167 C160.663309,83.9738439 161.430248,79.1713661 161.587045,74.3302496 L161.587045,72.9837465 L160.311049,72.5226154 L143.259114,66.5279098 L142.646636,66.3157895 L142.665196,66.3757365 Z" id="Shape" fill="#F9FBFC" fill-rule="nonzero"></path>
                <g id="Group" opacity="0.2" style="mix-blend-mode: multiply;" transform="translate(125.587045, 68.210526)" fill="#7A76FD" fill-rule="nonzero">
                    <path d="M16.8821053,0.233052632 L16.8821053,38.5496471 C0.188961593,31.6494613 0,6.13705263 0,6.13705263 L16.8821053,0.233052632 Z" id="Path"></path>
                </g>
                <path d="M141.457023,93.7894737 L133.69793,87.3765632 C133.072405,86.8606488 132.986137,85.9384488 133.505245,85.3167719 C134.024352,84.695095 134.952259,84.6093576 135.577783,85.125272 L141.306635,89.8567202 L151.556534,79.945434 C152.147151,79.4279474 153.042525,79.4624453 153.591058,80.0238221 C154.139591,80.5851988 154.148048,81.4756955 153.610274,82.0472619 L141.457023,93.7894737 Z" id="Path" fill="#FEFEFE" fill-rule="nonzero"></path>
            </g>
        </g>
    </g>
</svg>