<?xml version="1.0" encoding="UTF-8"?>
<svg width="154px" height="180px" viewBox="0 0 154 180" version="1.1" xmlns="http://www.w3.org/2000/svg" xmlns:xlink="http://www.w3.org/1999/xlink">
    <title>Asset 1</title>
    <defs>
        <linearGradient x1="49.9974622%" y1="96.429106%" x2="49.9974622%" y2="11.5170331%" id="linearGradient-1">
            <stop stop-color="#E0F2FD" offset="0%"></stop>
            <stop stop-color="#EBF9FB" offset="100%"></stop>
        </linearGradient>
        <linearGradient x1="50%" y1="85.4329925%" x2="49.9991483%" y2="28.824834%" id="linearGradient-2">
            <stop stop-color="#CCE7F6" offset="0%"></stop>
            <stop stop-color="#EBF9FB" offset="100%"></stop>
        </linearGradient>
        <linearGradient x1="4.01376443%" y1="49.9926546%" x2="100%" y2="49.9926546%" id="linearGradient-3">
            <stop stop-color="#38C9EC" offset="0%"></stop>
            <stop stop-color="#33BADB" offset="100%"></stop>
        </linearGradient>
        <linearGradient x1="4.4365969%" y1="50.0512948%" x2="99.0650987%" y2="50.0512948%" id="linearGradient-4">
            <stop stop-color="#4FBACF" offset="0%"></stop>
            <stop stop-color="#4BBFD5" offset="100%"></stop>
        </linearGradient>
    </defs>
    <g id="Page-1" stroke="none" stroke-width="1" fill="none" fill-rule="evenodd">
        <g id="entery---verify-phone" transform="translate(-103.000000, -72.000000)">
            <g id="Asset-1" transform="translate(103.000000, 72.000000)">
                <path d="M114.714504,88.3145038 C106.928244,101.450382 91.7587786,104.345038 91.2091603,148.314504 C91.1838819,152.154142 90.9100266,155.988116 90.389313,159.792366 C88.9465649,169.900763 85.6946565,176.138931 81.3022901,179.945038 L30.2656489,179.945038 C24.3114504,175.653435 19.6534351,168.709924 15.8335878,159.792366 C12.2610687,151.48855 9.42137405,141.471756 6.86564885,130.337405 C5.34721998,123.885516 4.63643028,117.269941 4.74961832,110.642748 C5.05648855,97.1221374 13.1038168,85.1496183 25.1175573,78.9435115 C44.3175573,69.0274809 28.9877863,55.6854962 40.8778626,38.5374046 C54.3984733,19.0442748 89.5465649,17.5236641 106.140458,26.3725191 C122.734351,35.221374 129.645802,63.151145 114.714504,88.3145038 Z" id="Path" fill="url(#linearGradient-1)" fill-rule="nonzero"></path>
                <path d="M136.854962,152.432061 L136.548092,152.629008 C134.418321,154.003053 132.077863,155.450382 129.961832,156.952672 L129.668702,157.158779 C128.844275,157.754198 128.061069,158.358779 127.341985,158.963359 L127.135878,159.141985 C124.974046,161.010687 123.471756,162.938931 123.370992,164.890076 C123.206107,168.654962 119.729771,172.676336 115.717557,171.90229 L115.483969,171.847328 C111.654962,170.931298 107.4,165.618321 105.091603,151.552672 L104.899237,151.016794 L104.807634,150.741985 C104.170992,148.909924 102.581679,144.160305 101.180153,138.833588 C101.143511,138.700763 101.11145,138.567939 101.074809,138.430534 C100.234827,135.293455 99.5651465,132.113237 99.0687023,128.903817 L99.0320611,128.619847 C98.3541985,123.654962 98.5419847,119.551145 100.644275,118.442748 C100.955361,118.275311 101.282115,118.13878 101.619847,118.035115 C101.70229,118.007634 101.780153,117.989313 101.853435,117.970992 C104.68855,117.251908 106.836641,119.532824 108.952672,121.822901 L109.025954,121.896183 L109.227481,122.11145 C111.100763,124.131298 112.974046,126.064122 115.300763,125.853435 C116.807634,125.716031 118.048855,123.233588 119.216794,119.729771 C119.244275,119.651908 119.267176,119.574046 119.294656,119.491603 C120.838168,114.792366 122.271756,108.348092 124.035115,103.236641 C124.067176,103.163359 124.090076,103.085496 124.117557,103.016794 C125.743511,98.3816794 127.653435,94.8916031 130.2,94.8778626 L130.442748,94.8778626 C135.535878,95.3358779 136.561832,103.882443 136.012214,114.114504 L136.012214,114.398473 C135.719084,119.624427 135.018321,125.267176 134.244275,130.465649 C134.189313,130.827481 134.143511,131.180153 134.10229,131.519084 C134.10229,131.619847 134.074809,131.720611 134.065649,131.821374 C133.749618,134.70687 133.909924,136.8 134.367939,138.348092 C134.39542,138.425954 134.418321,138.503817 134.441221,138.581679 C136.296183,144.183206 142.300763,142.287023 143.299237,145.781679 C143.315822,145.838688 143.328071,145.896869 143.335878,145.955725 C143.353134,146.035443 143.360822,146.116935 143.3591,146.198473 C143.3591,147.975573 140.464122,150.091603 136.854962,152.432061 Z" id="Path" fill="url(#linearGradient-2)" fill-rule="nonzero"></path>
                <path d="M129.879389,148.694656 C131.638036,150.785617 134.131116,152.123127 136.845802,152.432061 L136.538931,152.629008 C133.838987,152.256362 131.378174,150.88125 129.645802,148.777099 C128.010687,149.372519 126.439695,150.01374 124.974046,150.650382 L124.951145,150.696183 L124.909924,150.696183 C120.430534,152.656489 117.123664,154.548092 116.835115,154.708397 C116.468702,157.758779 116.221374,160.712977 116.051908,163.360305 C117.084428,162.552343 118.165877,161.808943 119.290076,161.134351 C119.862595,160.218321 122.839695,156.242748 129.952672,156.970992 L129.659542,157.177099 C123.659542,156.659542 120.746565,159.577099 119.780153,160.841221 C122.070229,159.540458 125.074809,158.40916 127.332824,158.967939 L127.126718,159.146565 C124.81374,158.578626 121.763359,159.948092 119.445802,161.322137 C119.429375,161.352299 119.411016,161.381367 119.39084,161.40916 L119.340458,161.381679 C118.188911,162.071338 117.084212,162.836365 116.033588,163.671756 C115.818321,167.134351 115.740458,170.047328 115.708397,171.916031 L115.474809,171.861069 C115.516031,169.167939 115.667176,164.345038 116.166412,158.830534 L116.09313,158.867176 C116.065649,158.812214 113.033588,153.370992 104.890076,151.030534 L104.798473,150.755725 C107.007137,151.366679 109.109322,152.311968 111.032061,153.558779 C110.001527,147.146565 103.877863,141.192366 101.170992,138.851908 C101.134351,138.719084 101.10229,138.58626 101.065649,138.448855 C103.667176,140.679389 110.335878,146.977099 111.30229,153.737405 C113.240707,154.99988 114.903172,156.64209 116.189313,158.564885 C116.639754,153.181059 117.489419,147.83812 118.731298,142.580153 L118.731298,142.580153 C116.266478,140.501521 113.936569,138.267991 111.755725,135.89313 L111.705344,135.89313 C111.705344,135.89313 111.705344,135.861069 111.705344,135.819847 C110.089296,134.075402 108.573867,132.240372 107.166412,130.323664 L107.166412,130.442748 C107.166412,130.442748 106.882443,130.442748 106.424427,130.442748 C104.99542,130.442748 101.784733,130.273282 99.0687023,128.890076 L99.0320611,128.606107 C102.334351,130.355725 106.483969,130.222901 107.079389,130.19542 C104.331298,126.389313 102.041221,122.120611 101.619847,118.021374 C101.70229,117.993893 101.780153,117.975573 101.853435,117.957252 C102.503817,124.090076 107.290076,130.616794 111.622901,135.384733 C111.274809,133.332824 109.887023,125.207634 108.952672,121.80916 L109.025954,121.882443 L109.227481,122.09771 C110.230534,125.761832 111.714504,134.487023 111.916031,135.705344 C114.066815,138.050187 116.361318,140.259029 118.78626,142.319084 C119.193893,140.725191 119.647328,139.18626 120.160305,137.738931 C121.035115,135.261069 121.992366,132.755725 122.908397,130.337405 L124.007634,127.456489 C123.970992,123.90229 120.970992,121.080916 119.189313,119.716031 C119.216794,119.638168 119.239695,119.560305 119.267176,119.477863 C120.984733,120.783206 123.89771,123.467176 124.21374,126.90229 C126.352672,121.218321 128.367939,115.383206 129.476336,109.108397 C129.343511,108.650382 127.896183,103.891603 124.007634,103.222901 C124.039695,103.149618 124.062595,103.071756 124.090076,103.003053 C127.525191,103.612214 129.100763,107.276336 129.58626,108.60916 C130.367185,104.072912 130.570329,99.4560091 130.19084,94.8687023 L130.433588,94.8687023 C131.129771,103.149618 129.796947,110.546565 127.712977,117.517557 C128.629008,117.265649 132.792366,116.047328 136.016794,114.096183 L136.016794,114.380153 C132.545038,116.441221 128.08855,117.668702 127.648855,117.787786 C126.641221,121.099237 125.473282,124.319084 124.273282,127.49313 C124.273282,127.49313 124.273282,127.538931 124.273282,127.566412 L124.241221,127.566412 C123.883969,128.519084 123.517557,129.467176 123.155725,130.419847 C122.629008,131.793893 122.09771,133.19542 121.570992,134.606107 C122.757252,134.564885 129.90687,134.189313 134.10229,131.500763 C134.10229,131.601527 134.074809,131.70229 134.065649,131.803053 C129.664122,134.514504 122.303817,134.816794 121.479389,134.844275 C121.112977,135.833588 120.746565,136.827481 120.398473,137.816794 C118.662595,142.717557 117.567939,148.694656 116.876336,154.374046 C117.622901,153.952672 120.732824,152.230534 124.80916,150.448855 C125.349618,149.358779 129.448855,141.403053 134.367939,138.329771 C134.39542,138.407634 134.418321,138.485496 134.441221,138.563359 C129.861069,141.453435 126.027481,148.589313 125.152672,150.30229 C130.648855,147.91145 137.825954,145.483969 143.335878,145.937405 C143.352774,146.015629 143.36046,146.095562 143.359005,146.175573 C139.323664,145.854962 134.38626,147.077863 129.879389,148.694656 Z" id="Path" fill="#F4F4F4" fill-rule="nonzero"></path>
                <path d="M120,140.716031 C119.33994,139.314903 118.091426,138.279509 116.592366,137.890076 C117.155725,140.331298 120,140.716031 120,140.716031 Z M122.015267,137.11145 C120.993893,133.291603 117.865649,132.6 117.865649,132.6 C117.815267,136.346565 122.001527,137.11145 122.001527,137.11145 L122.015267,137.11145 Z M113.276336,133.667176 C112.046015,134.612411 111.422418,136.148632 111.645802,137.683969 C114.045802,136.570992 113.262595,133.667176 113.262595,133.667176 L113.276336,133.667176 Z M116.024427,137.129771 C113.789313,138.261069 114.068702,141.100763 114.068702,141.100763 C115.268939,140.128873 115.975395,138.67401 115.996947,137.129771 L116.024427,137.129771 Z M108.870229,132.366412 C108.23802,133.255419 108.134707,134.41638 108.6,135.403053 C109.992366,134.157252 108.870229,132.366412 108.870229,132.366412 Z M124.580153,132.824427 C124.273282,128.880916 121.323664,127.635115 121.323664,127.635115 C120.59084,131.331298 124.580153,132.824427 124.580153,132.824427 Z M134.839695,118.039695 C133.712977,119.523664 135.151145,121.076336 135.151145,121.076336 C135.594397,120.085111 135.47017,118.932078 134.825954,118.058015 L134.839695,118.039695 Z M105.801527,135.141985 C104.351786,134.592135 102.718187,134.867028 101.528244,135.861069 C103.754198,137.326718 105.801527,135.141985 105.801527,135.141985 Z M132.233588,118.259542 C130.951145,120.412214 132.691603,122.661069 132.691603,122.661069 C133.208355,121.201688 133.04714,119.587861 132.251908,118.259542 L132.233588,118.259542 Z M140.280916,119.335878 C138.743906,119.123995 137.212508,119.760034 136.277863,120.998473 C138.778626,121.928244 140.299237,119.335878 140.299237,119.335878 L140.280916,119.335878 Z M129.183206,126.870229 C128.871756,122.926718 125.922137,121.680916 125.922137,121.680916 C125.207634,125.377099 129.183206,126.870229 129.183206,126.870229 Z M131.189313,124.580153 C130.98044,123.045865 130.099051,121.684328 128.784733,120.865649 C128.610687,123.370992 131.189313,124.580153 131.189313,124.580153 Z M127.21374,128.725191 C126.553681,127.324063 125.305167,126.288669 123.806107,125.899237 C124.383206,128.345038 127.21374,128.729771 127.21374,128.729771 L127.21374,128.725191 Z M114.870229,143.308397 C116.734351,143.308397 117.109924,141.242748 117.109924,141.242748 C116.043716,141.473637 115.186428,142.264306 114.870229,143.308397 L114.870229,143.308397 Z M126.412214,134.844275 C128.40916,138.01374 132.366412,136.392366 132.366412,136.392366 C129.425954,133.740458 126.412214,134.844275 126.412214,134.844275 Z M124.580153,139.071756 C126.279389,141.105344 128.880916,139.603053 128.880916,139.603053 C127.649713,138.659232 126.004027,138.455931 124.580153,139.071756 L124.580153,139.071756 Z M120.064122,146.880916 C122.766412,149.482443 126.196947,146.963359 126.196947,146.963359 C122.748092,145.080916 120.077863,146.880916 120.077863,146.880916 L120.064122,146.880916 Z M128.954198,130.735878 C130.955725,133.905344 134.885496,132.283969 134.885496,132.283969 C131.972519,129.618321 128.967939,130.735878 128.967939,130.735878 L128.954198,130.735878 Z M131.835115,127.630534 C133.51145,129.494656 136.177099,128.482443 136.177099,128.482443 C134.931294,127.572446 133.346596,127.260537 131.848855,127.630534 L131.835115,127.630534 Z M136.873282,122.945038 C138.430534,123.975573 139.882443,122.436641 139.882443,122.436641 C138.862604,122.050989 137.714051,122.245333 136.877863,122.945038 L136.873282,122.945038 Z M108.274809,137.908397 C106.735503,137.714532 105.212046,138.370197 104.294656,139.621374 C106.78626,140.519084 108.274809,137.908397 108.274809,137.908397 Z M134.381679,124.78626 C134.876336,126.581679 136.983206,126.375573 136.983206,126.375573 C136.469937,125.413951 135.476114,124.805738 134.38626,124.78626 L134.381679,124.78626 Z M108.036641,145.131298 C110.528244,146.047328 112.016794,143.418321 112.016794,143.418321 C110.47903,143.226195 108.957768,143.88167 108.041221,145.131298 L108.036641,145.131298 Z M108.393893,147.471756 C110.441221,149.157252 112.722137,147.196947 112.722137,147.196947 C111.335223,146.504669 109.682929,146.613188 108.398473,147.480916 L108.393893,147.471756 Z M110.198473,140.322137 C109.147054,140.025031 108.017158,140.31933 107.244275,141.091603 C108.88855,141.984733 110.203053,140.322137 110.203053,140.322137 L110.198473,140.322137 Z M126.178626,143.839695 C124.930637,142.92281 123.339324,142.608912 121.836641,142.983206 C123.517557,144.851908 126.183206,143.839695 126.183206,143.839695 L126.178626,143.839695 Z M135.512977,122.514504 L135.274809,122.230534 C125.070229,130.754198 119.166412,143.079389 116.010687,151.919084 C115.603053,153.059542 115.227481,154.172519 114.88855,155.248855 C114.962082,152.661165 114.788779,150.072357 114.370992,147.517557 C113.271756,141.105344 110.532824,136.887023 106.451908,135.31145 L106.319084,135.654962 C115.543511,139.21374 114.563359,155.308397 114.448855,156.664122 C113.182591,160.775157 112.215184,164.972356 111.554198,169.222901 L111.920611,169.273282 C112.576936,165.047512 113.538225,160.874781 114.796947,156.787786 L114.796947,156.787786 C114.795655,156.76796 114.795655,156.748071 114.796947,156.728244 C115.254962,155.235115 115.754198,153.664122 116.335878,152.038168 C119.505344,143.244275 125.377099,130.992366 135.517557,122.514504 L135.512977,122.514504 Z M107.464122,149.38626 C109.103817,152.757252 113.189313,151.575573 113.189313,151.575573 C110.574046,148.607634 107.468702,149.38626 107.468702,149.38626 L107.464122,149.38626 Z" id="Shape" fill="#C7D3E0" fill-rule="nonzero"></path>
                <path d="M103.415267,29.7709852 L46.621374,29.7709852 C43.2761008,29.7659001 40.5565873,32.4669832 40.5389313,35.8122137 L40.5389313,153.28855 C40.5389313,157.396536 43.8691125,160.726718 47.9770992,160.726718 L102.022901,160.726718 C106.128198,160.714144 109.453075,157.389266 109.465649,153.283969 L109.465649,35.8076336 C109.458072,32.4714673 106.751442,29.7709852 103.415267,29.7709852 Z" id="Path" fill="#2F6884" fill-rule="nonzero"></path>
                <path d="M103.012214,32.519084 L46.9969466,32.519084 C44.8307212,32.5215256 43.0710249,34.2689591 43.0534351,36.4351145 L43.0534351,153.29771 C43.0534351,155.466275 44.8100622,157.224953 46.978626,157.227481 L103.012214,157.227481 C105.180477,157.222444 106.936948,155.465973 106.941985,153.29771 L106.941985,36.4259542 C106.929389,34.2645503 105.173654,32.519084 103.012214,32.519084 Z" id="Path"></path>
                <path d="M103.012214,32.519084 L46.9969466,32.519084 C44.8307212,32.5215256 43.0710249,34.2689591 43.0534351,36.4351145 L43.0534351,153.29771 C43.0534351,155.466275 44.8100622,157.224953 46.978626,157.227481 L103.012214,157.227481 C105.180477,157.222444 106.936948,155.465973 106.941985,153.29771 L106.941985,36.4259542 C106.929389,34.2645503 105.173654,32.519084 103.012214,32.519084 Z" id="Path" fill="url(#linearGradient-3)" fill-rule="nonzero"></path>
                <path d="M106.941985,36.1374046 L106.941985,41.3541985 L43.0534351,41.3541985 L43.0534351,36.1419847 C43.0534351,34.118346 44.6939185,32.4778626 46.7175573,32.4778626 L103.305344,32.4778626 C105.316458,32.4929449 106.939527,34.1262355 106.941985,36.1374046 Z" id="Path" fill="#CFE9FA" fill-rule="nonzero"></path>
                <path d="M76.9007634,35.0075305 L70.2091603,35.0075305 C69.9233213,35.0075305 69.6916031,35.3016645 69.6916031,35.6644973 C69.6916031,36.02733 69.9233213,36.3214641 70.2091603,36.3214641 L76.9007634,36.3214641 C77.1866023,36.3214641 77.4183206,36.02733 77.4183206,35.6644973 C77.4183206,35.3016645 77.1866023,35.0075305 76.9007634,35.0075305 L76.9007634,35.0075305 Z M79.7312977,34.9145086 C79.4919173,34.9121531 79.275074,35.0933809 79.1821784,35.3734377 C79.0892827,35.6534945 79.1386957,35.9770269 79.3073083,36.1927293 C79.475921,36.4084317 79.730407,36.4736703 79.9517515,36.3579352 C80.173096,36.2422002 80.3175501,35.9683665 80.3175573,35.6644973 C80.3187782,35.4661244 80.2575512,35.2753437 80.1474736,35.1345239 C80.037396,34.9937041 79.8875802,34.9145026 79.7312977,34.9145086 Z" id="Shape" fill="#F9FBFC" fill-rule="nonzero"></path>
                <rect id="Rectangle" fill="#FFFFFF" fill-rule="nonzero" x="59.4458015" y="69.9251908" width="93.1007634" height="41.1755725" rx="8.65"></rect>
                <path d="M148.580153,70.8412179 C149.388743,70.8400054 150.164631,71.1603646 150.736821,71.731695 C151.309011,72.3030255 151.630534,73.0784319 151.630534,73.8870229 L151.630534,107.138931 C151.628007,108.821822 150.263045,110.184733 148.580153,110.184733 L63.389313,110.184733 C61.7071632,110.184733 60.3435115,108.821081 60.3435115,107.138931 L60.3435115,73.8870229 C60.3435115,72.2048732 61.7071632,70.8412179 63.389313,70.8412179 L148.580153,70.8412179 M148.580153,69.0091603 L63.389313,69.0091603 C60.6963904,69.0116853 58.5139754,71.1941004 58.5114504,73.8870229 L58.5114504,107.138931 C58.5164914,109.83081 60.6974347,112.011753 63.389313,112.016794 L148.580153,112.016794 C151.273819,112.014274 153.457548,109.832595 153.462595,107.138931 L153.462595,73.8870229 C153.460068,71.1923131 151.274864,69.0091603 148.580153,69.0091603 L148.580153,69.0091603 Z" id="Shape" fill="#2F6884" fill-rule="nonzero"></path>
                <rect id="Rectangle" stroke="#AFDCF3" fill="#FFFFFF" fill-rule="nonzero" stroke-linecap="round" stroke-linejoin="round" x="65.189313" y="84.0320611" width="10.919084" height="12.9618321"></rect>
                <rect id="Rectangle" stroke="#AFDCF3" fill="#FFFFFF" fill-rule="nonzero" stroke-linecap="round" stroke-linejoin="round" x="79.3282443" y="84.0320611" width="10.919084" height="12.9618321"></rect>
                <rect id="Rectangle" stroke="#AFDCF3" fill="#FFFFFF" fill-rule="nonzero" stroke-linecap="round" stroke-linejoin="round" x="93.4671756" y="84.0320611" width="10.919084" height="12.9618321"></rect>
                <rect id="Rectangle" stroke="#AFDCF3" fill="#FFFFFF" fill-rule="nonzero" stroke-linecap="round" stroke-linejoin="round" x="107.601527" y="84.0320611" width="10.919084" height="12.9618321"></rect>
                <rect id="Rectangle" stroke="#AFDCF3" fill="#FFFFFF" fill-rule="nonzero" stroke-linecap="round" stroke-linejoin="round" x="121.740458" y="84.0320611" width="10.919084" height="12.9618321"></rect>
                <rect id="Rectangle" stroke="#AFDCF3" fill="#FFFFFF" fill-rule="nonzero" stroke-linecap="round" stroke-linejoin="round" x="135.879389" y="84.0320611" width="10.919084" height="12.9618321"></rect>
                <polygon id="Path" fill="#0F3163" fill-rule="nonzero" points="70.9923664 89.9725191 72.8473282 88.6305344 73.3969466 89.6198473 71.280916 90.5038168 73.410687 91.3694656 72.8244275 92.3908397 70.9923664 91.0534351 71.2351145 93.3435115 70.0763359 93.3435115 70.3053435 91.0534351 68.4732824 92.4045802 67.8824427 91.3694656 69.9938931 90.4900763 67.8824427 89.6381679 68.4412214 88.6167939 70.3282443 89.9908397 70.0854962 87.6778626 71.2442748 87.6778626"></polygon>
                <polygon id="Path" fill="#0F3163" fill-rule="nonzero" points="85.1312977 89.9725191 86.9633588 88.6305344 87.5129771 89.6198473 85.3969466 90.5038168 87.5267176 91.3694656 86.9496183 92.3908397 85.1175573 91.0534351 85.3603053 93.3435115 84.2198473 93.3435115 84.448855 91.0534351 82.6167939 92.4045802 82.021374 91.3694656 84.1374046 90.4900763 82.021374 89.6381679 82.5847328 88.6167939 84.4717557 89.9908397 84.2290076 87.6778626 85.3832061 87.6778626"></polygon>
                <line x1="97.6030534" y1="90.5129771" x2="100.250382" y2="90.5129771" id="Path" stroke="#AFDCF3" stroke-linecap="round" stroke-linejoin="round"></line>
                <line x1="111.741985" y1="90.5129771" x2="114.384733" y2="90.5129771" id="Path" stroke="#AFDCF3" stroke-linecap="round" stroke-linejoin="round"></line>
                <line x1="125.876336" y1="90.5129771" x2="128.523664" y2="90.5129771" id="Path" stroke="#AFDCF3" stroke-linecap="round" stroke-linejoin="round"></line>
                <line x1="140.015267" y1="90.5129771" x2="142.662595" y2="90.5129771" id="Path" stroke="#AFDCF3" stroke-linecap="round" stroke-linejoin="round"></line>
                <path d="M27.210687,150.824427 C27.210687,150.824427 12.1557252,151.740458 11.789313,150.187786 C11.4229008,148.635115 13.9603053,141.943511 16.2549618,136.035115 C18.5496183,130.126718 16.621374,124.516031 14.3267176,120.192366 C12.0320611,115.868702 11.9908397,111.682443 14.7480916,109.145038 C17.5053435,106.607634 27.0916031,106.822901 27.0916031,106.822901 C27.0916031,106.822901 36.8198473,106.273282 39.5770992,108.810687 C42.3343511,111.348092 42.1374046,115.877863 39.8473282,120.192366 C37.5572519,124.50687 35.6290076,130.140458 37.9236641,136.030534 C40.2183206,141.920611 42.7603053,148.625954 42.389313,150.183206 C42.0183206,151.740458 26.9679389,150.819847 26.9679389,150.819847 L27.210687,150.824427 Z" id="Path" fill="#F2BC97" fill-rule="nonzero"></path>
                <path d="M38.3083969,108.01374 C39.2849764,108.125481 40.1227316,108.761262 40.4931298,109.671756 C42.1923664,113.661069 47.6748092,127.099237 44.7847328,128.40916 C41.3908397,129.948092 37.2458015,117.774046 36.4992366,114.119084 C35.880916,111.073282 35.9496183,107.825954 38.3083969,108.01374 Z" id="Path" fill="#F2BC97" fill-rule="nonzero"></path>
                <path d="M45.1694656,122.912977 C45.1694656,122.912977 46.1541985,125.624427 45.9847328,126.741985 C45.8152672,127.859542 41.7801527,138.032061 41.7801527,138.032061 L38.3908397,136.822901 C38.3908397,136.822901 41.248855,127.351145 41.2259542,127.090076 C41.2030534,126.829008 40.4244275,124.717557 40.4244275,124.717557 L45.1694656,122.912977 Z" id="Path" fill="#F2BC97" fill-rule="nonzero"></path>
                <path d="M9.32519084,122.912977 C9.32519084,122.912977 8.34503817,125.624427 8.51450382,126.741985 C8.68396947,127.859542 12.7145038,138.032061 12.7145038,138.032061 L16.1083969,136.822901 C16.1083969,136.822901 13.2458015,127.351145 13.2687023,127.090076 C13.2916031,126.829008 14.0748092,124.717557 14.0748092,124.717557 L9.32519084,122.912977 Z" id="Path" fill="#F2BC97" fill-rule="nonzero"></path>
                <path d="M11.2946565,124.726718 C12.1884921,124.950327 12.9026274,125.621129 13.1816794,126.499237 C14.5923664,130.538931 19.5022901,144.975573 18.1419847,146.225954 C16.5572519,147.682443 8.86259542,127.369466 9.13740458,126.160305 C9.22178844,125.677977 9.50047231,125.251435 9.90828858,124.980424 C10.3161049,124.709412 10.8172936,124.617694 11.2946565,124.726718 L11.2946565,124.726718 Z" id="Path" fill="#F2BC97" fill-rule="nonzero"></path>
                <path d="M20.5374046,104.977099 C20.5374046,104.977099 25.9969466,107.500763 34.1267176,104.977099 C34.1267176,104.977099 36.1969466,97.7267176 34.919084,92.7572519 C33.6412214,87.7877863 29.7709924,87.6366412 28.1038168,88.2412214 C28.1038168,88.2412214 23.5236641,87.448855 21.6320611,89.7435115 C19.8320611,91.9419847 17.940458,96.7740458 20.5374046,104.977099 Z" id="Path" fill="#1A5E77" fill-rule="nonzero"></path>
                <rect id="Rectangle" fill="#F2BC97" fill-rule="nonzero" x="24.3251908" y="103.236641" width="5.87175573" height="6.14656489"></rect>
                <ellipse id="Oval" fill="#F2BC97" fill-rule="nonzero" cx="27.2290076" cy="97.8" rx="5.38625954" ry="7.4519084"></ellipse>
                <path d="M24.1780902,106.751226 C24.3162536,107.095918 24.6728209,107.838769 25.349509,108.38012 C25.8124426,108.750466 26.422298,109.028626 27.210687,109.028626 C29.1619206,109.028626 30.1349306,107.321601 30.3975809,106.77281 C31.593276,106.82667 38.7621973,107.226685 40.3269547,109.129098 C41.7419397,110.862245 44.7788799,121.21143 45.2551165,122.85405 L45.2551165,122.85405 L40.4268793,124.723045 L39.1659008,122.211257 C39.014292,122.507463 38.9405837,122.675009 38.9405837,122.675009 C38.9405837,122.675009 36.7591328,127.633641 37.4676552,133.818107 C37.8222165,136.91296 38.8994498,140.314203 41.3323692,143.553971 C42.3864648,144.968373 42.8069898,146.102613 42.7298664,147.01562 C42.644796,148.022708 41.9390006,148.728339 40.9108378,149.235124 C37.1385017,151.094521 29.0572044,150.335484 27.3608787,150.154465 C25.6058813,150.33546 17.5236855,151.094414 13.7525698,149.235619 C12.7246126,148.728936 12.0192685,148.023392 11.9350868,147.016318 C11.858759,146.103202 12.280474,144.968794 13.3362205,143.554122 C20.6094578,133.810117 15.7052179,122.647528 15.7052179,122.647528 C15.7052179,122.647528 15.6306677,122.477844 15.4772794,122.178004 L15.4772794,122.178004 L14.2280858,124.727379 L9.07956862,122.881684 C9.32721237,122.072528 10.1019607,119.572501 11.031444,116.889478 L11.031444,116.889478 L11.2517371,116.258606 C12.3167792,113.233292 13.5323918,110.121097 14.3714046,109.127417 C15.7909194,107.441231 22.9278488,106.843597 24.1780902,106.751226 Z" id="Path" stroke-opacity="0.065747241" stroke="#000000" stroke-width="0.5" fill="url(#linearGradient-4)" fill-rule="nonzero"></path>
                <path d="M14.3083969,143.157252 C12.751145,144.206107 14.8625954,146.69313 15.6183206,147.512977 C16.8458015,148.854962 19.2824427,149.491603 19.8320611,149.015267 C20.3816794,148.538931 17.4045802,145.648855 17.4274809,145.442748 C17.4503817,145.236641 19.0396947,146.491603 19.5022901,145.992366 C19.9648855,145.49313 18.0870229,143.551145 17.0381679,143.074809 C15.989313,142.598473 15.2885496,142.49771 14.3083969,143.157252 Z" id="Path" fill="#F2BC97" fill-rule="nonzero"></path>
                <path d="M43.2,124.726718 C42.3079162,124.951721 41.5957645,125.622287 41.3175573,126.499237 C39.9068702,130.534351 34.9923664,144.975573 36.3572519,146.225954 C37.9374046,147.682443 45.6320611,127.369466 45.3618321,126.160305 C45.2763301,125.677622 44.996706,125.251086 44.5881722,124.980173 C44.1796385,124.70926 43.6779109,124.617653 43.2,124.726718 L43.2,124.726718 Z" id="Path" fill="#F2BC97" fill-rule="nonzero"></path>
                <path d="M43.1038168,141.563359 L43.1358779,141.664122 C35.7801527,144.549618 27.9755725,149.285496 27.3160305,149.679389 C22.1838823,146.921962 16.905895,144.445039 11.5053435,142.259542 L11.5374046,141.563359 L11.5374046,130.690076 L43.1038168,130.690076 L43.1038168,141.563359 Z" id="Path" fill="#F8FAFB" fill-rule="nonzero"></path>
                <path d="M39.4625954,159.357252 C39.4625954,159.357252 4.23206107,156.233588 0.664122137,148.566412 C-1.9648855,142.900763 3.60916031,138.398473 10.0305344,140.610687 C16.4519084,142.822901 39.5496183,154.163359 39.5496183,154.163359 L39.4625954,159.357252 Z" id="Path" fill="#115469" fill-rule="nonzero"></path>
                <path d="M41.7160305,155.079389 L41.7160305,159.659542 C41.7160305,159.659542 47.7389313,160.058015 48.1282443,159.384733 C48.5175573,158.71145 48.9847328,156.274809 47.4549618,155.10687 C45.9251908,153.938931 42.1969466,153.89313 41.7160305,155.079389 Z" id="Path" fill="#115469" fill-rule="nonzero"></path>
                <polygon id="Path" fill="#DEC6A0" fill-rule="nonzero" points="39.3938931 154.181679 41.7572519 155.051908 41.7572519 159.6 39.3068702 159.357252"></polygon>
                <path d="M14.3587786,159.357252 C14.3587786,159.357252 49.5847328,156.233588 53.1526718,148.566412 C55.7816794,142.914504 50.2122137,138.398473 43.7908397,140.629008 C37.3694656,142.859542 14.2717557,154.181679 14.2717557,154.181679 L14.3587786,159.357252 Z" id="Path" fill="#256E8E" fill-rule="nonzero"></path>
                <polygon id="Path" fill="#DEC6A0" fill-rule="nonzero" points="14.3541985 154.181679 11.9908397 155.051908 11.9908397 159.6 14.4458015 159.357252"></polygon>
                <path d="M12.0366412,155.079389 L12.0366412,159.659542 C12.0366412,159.659542 6.00916031,160.058015 5.62442748,159.384733 C5.23969466,158.71145 4.76793893,156.274809 6.29770992,155.10687 C7.82748092,153.938931 11.5557252,153.89313 12.0366412,155.079389 Z" id="Path" fill="#256E8E" fill-rule="nonzero"></path>
                <path d="M20.459542,97.5572519 C20.459542,97.5572519 25.4061069,97.9007634 28.5618321,95.7251908 C29.2763359,95.2396947 29.8946565,93.6229008 29.8946565,93.6229008 C29.8946565,93.6229008 30.0641221,94.9007634 30.6274809,95.3725191 C30.4675928,94.7394346 30.3921294,94.0879857 30.4030534,93.4351145 C30.4030534,93.4351145 31.319084,96.0870229 31.9465649,96.1419847 C32.5740458,96.1969466 34.5435115,96.1419847 34.5435115,96.1419847 L31.8274809,90.0732824 L23.1801527,89.1572519 L20.459542,97.5572519 Z" id="Path" fill="#1A5E77" fill-rule="nonzero"></path>
                <path d="M18.3435115,55.5160305 L9.61832061,55.5160305 L9.61832061,50.9358779 C9.61832061,49.3731818 10.452009,47.9291911 11.8053435,47.147843 C13.158678,46.366495 14.8260548,46.366495 16.1793893,47.147843 C17.5327238,47.9291911 18.3664122,49.3731818 18.3664122,50.9358779 L18.3435115,55.5160305 Z M11.0519084,54.0458015 L16.8870229,54.0458015 L16.8870229,50.9083969 C16.8870229,49.2970746 15.580788,47.9908397 13.9694656,47.9908397 C12.3581433,47.9908397 11.0519084,49.2970746 11.0519084,50.9083969 L11.0519084,54.0458015 Z" id="Shape" fill="#DAE3EF" fill-rule="nonzero"></path>
                <path d="M19.6076336,52.140458 L8.33587786,52.140458 C7.95822708,52.140458 7.65137263,52.4452584 7.64885496,52.8229008 L7.64885496,61.6625954 C7.64885496,62.0420277 7.95644559,62.3496183 8.33587786,62.3496183 L19.6076336,62.3496183 C19.985276,62.3471006 20.2900763,62.0402462 20.2900763,61.6625954 L20.2900763,52.8229008 C20.2900763,52.445998 19.9845363,52.140458 19.6076336,52.140458 L19.6076336,52.140458 Z M13.4519084,57.178626 L13.4519084,56.4229008 C13.4769977,56.1570838 13.7001772,55.9539773 13.9671756,55.9539773 C14.2341739,55.9539773 14.4573535,56.1570838 14.4824427,56.4229008 L14.4824427,57.178626 C14.811297,57.3662979 15.0141357,57.7160198 15.013741,58.0946565 C15.0093501,58.6009368 14.6424211,59.031134 14.1431723,59.1153337 C13.6439234,59.1995335 13.1561961,58.9134764 12.9860004,58.4366406 C12.8158047,57.9598047 13.0121766,57.429574 13.4519084,57.178626 Z" id="Shape" fill="#DAE3EF" fill-rule="nonzero"></path>
                <rect id="Rectangle" stroke="#DAE3EF" x="3.50839695" y="43.9877863" width="20.9221374" height="20.9221374"></rect>
                <path d="M89.9358779,11.9816794 L82.8137405,11.9816794 L82.8137405,8.24427481 C82.7670137,6.94156855 83.4353446,5.71731352 84.5563769,5.05209663 C85.6774092,4.38687973 87.0722091,4.38687973 88.1932414,5.05209663 C89.3142737,5.71731352 89.9826047,6.94156855 89.9358779,8.24427481 L89.9358779,11.9816794 Z M83.9816794,10.7954198 L88.7267176,10.7954198 L88.7267176,8.24427481 C88.7267176,6.9339687 87.6645046,5.87175573 86.3541985,5.87175573 C85.0438924,5.87175573 83.9816794,6.9339687 83.9816794,8.24427481 L83.9816794,10.7954198 Z" id="Shape" fill="#DAE3EF" fill-rule="nonzero"></path>
                <path d="M90.9618321,9.23358779 L81.8015267,9.23358779 C81.4929218,9.23358779 81.2427481,9.4837615 81.2427481,9.79236641 L81.2427481,16.9877863 C81.2427481,17.1355658 81.3017599,17.277227 81.406685,17.381292 C81.5116101,17.4853571 81.6537522,17.5432061 81.8015267,17.5420037 L90.9618321,17.5420037 C91.2679074,17.5420037 91.5160305,17.2938616 91.5160305,16.9877863 L91.5160305,9.79236641 C91.5160305,9.48554135 91.2686468,9.23610275 90.9618321,9.23358779 Z M85.951145,13.319084 L85.951145,12.7053435 C85.951145,12.4726251 86.1398006,12.2839695 86.3725191,12.2839695 C86.6052375,12.2839695 86.7938931,12.4726251 86.7938931,12.7053435 L86.7938931,13.319084 C87.1270411,13.5100445 87.2901235,13.9011708 87.1913162,14.2722376 C87.0925089,14.6433044 86.7565158,14.9015374 86.3725191,14.9015374 C85.9885224,14.9015374 85.6525292,14.6433044 85.5537219,14.2722376 C85.4549147,13.9011708 85.6179971,13.5100445 85.951145,13.319084 L85.951145,13.319084 Z" id="Shape" fill="#DAE3EF" fill-rule="nonzero"></path>
                <rect id="Rectangle" stroke="#DAE3EF" x="77.8580153" y="2.59694656" width="17.0290076" height="17.0290076"></rect>
                <path d="M126.764885,63.2656489 L126.668702,63.2015267 C114.810687,58.2045802 114.545038,40.5572519 114.540458,39.8061069 L114.540458,39.480916 L126.760305,35.1709924 L126.91145,35.1206107 L139.277863,39.480916 L139.277863,39.8061069 C139.277863,40.5618321 138.998473,58.2961832 127.085496,63.2290076 L127.003053,63.2656489 L126.764885,63.2656489 Z" id="Path" fill="#45BFD7" fill-rule="nonzero"></path>
                <path d="M126.90687,35.6061069 L138.815267,39.8015267 C138.815267,39.8015267 138.677863,57.929771 126.90687,62.8076336 L126.90687,62.8076336 C126.90687,62.8076336 126.90687,62.8076336 126.874809,62.8076336 C115.135878,57.9114504 115.003053,39.8152672 115.003053,39.8152672 L126.870229,35.6198473 L126.90687,35.6198473 M126.90687,34.648855 L126.60916,34.7496183 L126.572519,34.7496183 L114.664122,38.940458 L114.045802,39.1557252 L114.045802,39.810687 C114.150668,43.167414 114.678498,46.4975112 115.616794,49.7221374 C117.654962,56.6885496 121.387786,61.4885496 126.421374,63.6137405 L126.59084,63.7236641 L127.048855,63.7236641 L127.222901,63.6549618 C132.29771,61.5526718 136.067176,56.7389313 138.119084,49.7358779 C139.057694,46.5064827 139.587026,43.1719958 139.694656,39.810687 L139.694656,39.1557252 L139.117557,38.9312977 L127.20916,34.7312977 L126.91145,34.6259542 L126.90687,34.648855 Z" id="Shape" fill="#DAE3EF" fill-rule="nonzero"></path>
                <path d="M126.412214,52.1816794 L122.047328,48.5496183 C121.694456,48.2574555 121.645242,47.7345514 121.937405,47.3816794 C122.229567,47.0288074 122.752471,46.9795929 123.105344,47.2717557 L126.338931,49.9557252 L132.123664,44.3312977 C132.452505,44.0125746 132.97746,44.020777 133.296183,44.3496183 C133.614906,44.6784596 133.606704,45.2034143 133.277863,45.5221374 L126.412214,52.1816794 Z" id="Path" fill="#FEFEFE" fill-rule="nonzero"></path>
                <path d="M126.870229,35.6198473 L126.870229,62.7938931 C115.131298,57.8977099 114.998473,39.8015267 114.998473,39.8015267 L126.870229,35.6198473 Z" id="Path" fill="#D1D3D4" fill-rule="nonzero" opacity="0.5" style="mix-blend-mode: multiply;"></path>
                <rect id="Rectangle" fill="#F9FBFC" fill-rule="nonzero" x="0.911450382" y="159.801527" width="145.126718" height="20.1389313"></rect>
                <polygon id="Rectangle" fill="#32BADB" fill-rule="nonzero" transform="translate(34.267946, 15.074560) rotate(-10.190000) translate(-34.267946, -15.074560) " points="15.029015 3.22341539 53.5068776 3.22341539 53.5068776 26.9257055 15.029015 26.9257055"></polygon>
                <polygon id="Path" fill="#D1D3D4" fill-rule="nonzero" opacity="0.5" style="mix-blend-mode: multiply;" points="34.3877863 10.6076336 18.2473282 30.0137405 56.4549618 23.2992366"></polygon>
                <polygon id="Path" fill="#38C9EC" fill-rule="nonzero" points="35.9954198 19.5572519 14.2351145 6.81068702 52.1038168 0"></polygon>
            </g>
        </g>
    </g>
</svg>