<svg width="130" height="120" viewBox="0 0 130 120" fill="none" xmlns="http://www.w3.org/2000/svg">
<path d="M129.341 56.4217C129.342 66.3766 121.715 74.6539 111.837 75.4193C111.676 75.4315 111.513 75.4437 111.351 75.451V57.367C111.351 57.0009 111.186 56.6544 110.903 56.4241C110.887 56.4074 110.869 56.3927 110.85 56.3801C110.832 56.3657 110.813 56.3526 110.794 56.341C110.447 56.1166 110.01 56.0844 109.634 56.2555L109.432 55.811C109.653 55.71 109.892 55.6575 110.135 55.6571L96.2871 43.6703C96.3941 43.5481 96.5059 43.4284 96.6177 43.3087C101.959 37.6511 110.193 35.8347 117.402 38.7235C124.611 41.6123 129.34 48.6233 129.341 56.4217H129.341Z" fill="#F2F2F2"/>
<path d="M111.377 55.7972C111.379 55.8575 111.358 55.9163 111.319 55.9618C111.231 56.0633 111.078 56.0752 110.976 55.9884L110.163 55.2892L96.3369 43.4172L57.5575 10.1144C57.1004 9.72432 56.426 9.72535 55.97 10.1168L3.74784 55.3376L3.27695 55.744C3.25884 55.7599 3.23837 55.773 3.21627 55.7827C3.17739 55.7999 3.13468 55.8065 3.09241 55.8021C3.03179 55.7956 2.97565 55.7672 2.93466 55.7222C2.89206 55.6742 2.87042 55.6112 2.87451 55.5472C2.87861 55.4831 2.90809 55.4234 2.95646 55.3811L3.022 55.323L55.652 9.75145C56.2909 9.20448 57.2342 9.20243 57.8754 9.74661L96.667 43.0592L111.292 55.6206C111.344 55.6652 111.374 55.7292 111.377 55.7972Z" fill="#3F3D56"/>
<path d="M81.7931 63.1151L81.1535 61.36L78.9505 55.2999L74.204 42.2511L68.8984 27.6654L59.3301 1.35695C58.9389 0.288823 57.755 -0.262841 56.6821 0.123099L1.36138 20.1193C0.28959 20.5088 -0.263945 21.6895 0.123744 22.7591L13.6895 60.0559L13.9204 60.6934L28.1598 67.1269L32.1621 68.9353L32.8113 69.2286L49.7571 76.8862L50.4136 76.6487L61.5283 72.632L78.294 66.5718L80.553 65.7549C81.6252 65.3657 82.1797 64.1853 81.7931 63.1151Z" fill="#E6E6E6"/>
<path d="M58.7393 32.1957C58.1608 30.6087 56.4068 29.7889 54.8176 30.3628L32.781 38.3524L22.1398 42.209C21.1111 42.5806 20.3591 43.473 20.1675 44.5494C19.9759 45.6259 20.3737 46.7228 21.2109 47.4264C22.0482 48.13 23.1975 48.3332 24.2254 47.9595L32.781 44.8591L56.9058 36.1158C58.4934 35.5376 59.3134 33.7842 58.7393 32.1957Z" fill="white"/>
<path d="M62.3319 42.9732C61.7534 41.3861 59.9991 40.5662 58.4099 41.1402L54.6764 42.4935L32.4909 50.5351L25.7291 52.9847C24.1413 53.5616 23.3213 55.3153 23.8969 56.903C24.4725 58.4907 26.2261 59.3121 27.815 58.7382L32.4909 57.0422L60.4982 46.8912C60.5618 46.8691 60.623 46.8422 60.6842 46.8153C62.1599 46.1681 62.8805 44.4877 62.3319 42.9732Z" fill="white"/>
<path d="M66.6429 53.0606C66.0656 51.4541 64.3121 50.6239 62.7235 51.2049L52.2531 55.0475L44.1474 58.0231L32.8813 62.1556L30.0417 63.1986C28.6896 63.697 27.8618 65.0798 28.0513 66.5234C28.0794 66.732 28.1286 66.937 28.1982 67.1354L32.2277 68.9836L32.8814 68.7433H32.8863L53.3302 61.2414L64.8092 57.0296C66.3979 56.4453 67.2186 54.669 66.6429 53.0606H66.6429Z" fill="white"/>
<path d="M43.6498 21.4322C43.0742 19.8343 41.329 19.0089 39.7478 19.5867L27.1553 24.204C25.5756 24.7848 24.7598 26.5504 25.3325 28.149C25.9051 29.7475 27.6498 30.5744 29.2305 29.9966L33.2154 28.5355L35.8531 27.5672L41.8255 25.3768C43.4049 24.7958 44.221 23.031 43.6498 21.4322Z" fill="white"/>
<path d="M93.517 27.3047H35.1054C34.4052 27.3054 33.7537 27.6666 33.3772 28.2628C33.1654 28.595 33.0531 28.9819 33.0537 29.377V69.1074L49.8749 76.8091L52.2451 77.8941L55.9888 79.608C56.4322 79.8104 56.9405 79.8104 57.3839 79.608L61.1275 77.8941L72.8437 72.5304L83.7633 67.5299L95.5687 62.1272V29.377C95.568 28.2328 94.6498 27.3054 93.517 27.3047V27.3047Z" fill="#5FC0D8"/>
<path d="M81.7784 55.3281H47.5629C45.9462 55.329 44.6188 56.5481 44.5558 58.0897C44.5518 58.1271 44.5502 58.1648 44.551 58.2024C44.5533 59.7889 45.9004 61.0744 47.5629 61.0766H81.7784C83.4418 61.0766 84.7903 59.7898 84.7903 58.2024C84.7903 56.615 83.4418 55.3281 81.7784 55.3281V55.3281Z" fill="white"/>
<path d="M83.7105 67.5134C83.1676 67.07 82.4763 66.8269 81.7619 66.8281H47.5614C45.8987 66.8281 44.5508 68.115 44.5508 69.7024C44.5508 71.2898 45.8987 72.5766 47.5614 72.5766H73.1757L84.0717 67.8606C83.9618 67.7353 83.8409 67.6191 83.7105 67.5134Z" fill="white"/>
<path d="M52.4551 78.3242L56.0893 80.3045C56.5198 80.5384 57.0131 80.5384 57.4437 80.3045L61.0778 78.3242H52.4551Z" fill="white"/>
<path d="M73.8273 42.8448C73.39 41.7114 72.2529 40.9575 70.9801 40.957H57.6418C56.4525 40.9581 55.3735 41.6179 54.882 42.6448C54.7024 43.0171 54.6097 43.4218 54.6104 43.8313C54.6127 45.4178 55.9685 46.7033 57.6418 46.7055H70.9801C71.9699 46.7056 72.8973 46.2475 73.4645 45.4785C74.0317 44.7094 74.1671 43.7262 73.8273 42.8448Z" fill="white"/>
<path fill-rule="evenodd" clip-rule="evenodd" d="M110.893 55.8404C110.804 55.7508 110.706 55.6708 110.6 55.6013C110.117 55.2856 109.507 55.2405 108.983 55.4818L83.2097 67.2485L71.4431 72.6197L59.6888 77.9859L56.9064 79.2567C56.5892 79.4007 56.2259 79.4007 55.9087 79.2567L53.1264 77.9859L50.2276 76.6614L32.7026 68.6633L32.6977 68.6608L27.9199 66.4778L13.6545 59.9651L3.83247 55.4818C3.73255 55.4353 3.62777 55.4001 3.52009 55.3769C3.28289 55.3172 3.03537 55.3122 2.79598 55.3623C2.00655 55.5251 1.43916 56.2239 1.4375 57.0356V118.291C1.43854 119.234 2.19686 119.998 3.13261 119.999H109.683C110.618 119.998 111.377 119.234 111.378 118.291V57.0356C111.378 56.5885 111.204 56.1592 110.893 55.8404ZM51.9519 77.9859L49.5739 76.9005L32.6977 69.195L32.6977 68.6633L32.0512 68.8999L28.0652 67.0802L13.8844 60.6066L3.63144 55.9257C3.47487 55.8536 3.30476 55.8162 3.13259 55.816C3.0848 55.8156 3.03705 55.8188 2.98976 55.8257C2.94823 55.8299 2.90698 55.8364 2.86619 55.8453C2.72784 55.8778 2.59601 55.9339 2.47635 56.0111C2.13082 56.2356 1.922 56.6214 1.92181 57.0356V118.291C1.92208 118.965 2.46401 119.511 3.1326 119.511H109.682C110.351 119.511 110.893 118.965 110.893 118.291L110.893 57.0356C110.894 56.6701 110.73 56.324 110.448 56.0941C110.432 56.0774 110.414 56.0627 110.394 56.0501C110.377 56.0357 110.358 56.0227 110.339 56.0111C109.993 55.787 109.558 55.7549 109.184 55.9257L83.5729 67.6169L72.6176 72.6197L60.8633 77.9859L57.1074 79.7007C56.6625 79.9031 56.1526 79.9031 55.7077 79.7007L51.9519 77.9859Z" fill="#3F3D56"/>
</svg>
